<svg width="144" height="132" viewBox="0 0 144 132" fill="none" xmlns="http://www.w3.org/2000/svg">
<g filter="url(#filter0_i)">
<path d="M142.738 43.7961C142.038 43.2359 141.144 42.9744 140.252 43.0686C139.359 43.1628 138.54 43.605 137.972 44.299L77.3725 118.998V102.402L119.751 49.3488C120.315 48.6395 120.573 47.7358 120.469 46.8366C120.365 45.9374 119.907 45.1163 119.196 44.5539C118.486 43.9915 117.581 43.7339 116.68 43.8378C115.779 43.9417 114.956 44.3985 114.393 45.1078L77.3384 91.5002V67.203L113.834 22.3466C114.602 22.1902 115.293 21.7741 115.789 21.1686C116.285 20.5632 116.557 19.8054 116.558 19.0232L127.561 5.53908C127.966 5.04058 128.222 4.43773 128.298 3.80034C128.374 3.16295 128.268 2.51707 127.991 1.9375C127.715 1.35792 127.28 0.868345 126.736 0.525455C126.192 0.182564 125.563 0.000381926 124.919 0L15.1659 0C14.263 0 13.397 0.358024 12.7586 0.995312C12.1201 1.6326 11.7614 2.49695 11.7614 3.39821C11.7614 4.29947 12.1201 5.16382 12.7586 5.8011C13.397 6.43839 14.263 6.79642 15.1659 6.79642H117.797L110.559 15.6318H54.365C53.4621 15.6318 52.5962 15.9898 51.9577 16.6271C51.3193 17.2644 50.9606 18.1287 50.9606 19.03C50.9606 19.9312 51.3193 20.7956 51.9577 21.4329C52.5962 22.0702 53.4621 22.4282 54.365 22.4282H105.03L85.1143 46.9496H3.40684C2.76929 46.9492 2.14443 47.1275 1.60341 47.4641C1.06238 47.8008 0.626933 48.2823 0.346648 48.8539C0.0663628 49.4255 -0.047497 50.0641 0.0180331 50.6971C0.0835633 51.3301 0.32585 51.9321 0.717305 52.4344L55.5975 122.859C55.868 123.222 56.2084 123.528 56.5989 123.758C56.9893 123.988 57.4218 124.138 57.8711 124.199C58.3203 124.259 58.7772 124.23 59.215 124.113C59.6528 123.995 60.0626 123.791 60.4204 123.513C60.7782 123.235 61.0768 122.889 61.2986 122.494C61.5205 122.099 61.6611 121.664 61.7123 121.215C61.7634 120.765 61.7241 120.31 61.5966 119.876C61.4691 119.441 61.256 119.037 60.9697 118.686L10.3656 53.7461H21.328L59.5058 103.306C59.7739 103.672 60.1126 103.981 60.5021 104.214C60.8916 104.447 61.324 104.601 61.7737 104.665C62.2235 104.729 62.6815 104.702 63.1209 104.587C63.5602 104.471 63.972 104.269 64.3319 103.993C64.6919 103.716 64.9927 103.37 65.2166 102.976C65.4406 102.581 65.5831 102.146 65.6359 101.695C65.6887 101.245 65.6507 100.789 65.524 100.353C65.3974 99.9177 65.1847 99.5119 64.8985 99.1597L29.9209 53.7461H70.5567V128.602C70.5571 129.304 70.7753 129.988 71.1813 130.562C71.5873 131.135 72.1612 131.568 72.8241 131.803C73.1895 131.931 73.5738 131.998 73.9612 132C74.4692 132 74.9708 131.886 75.4291 131.668C75.8874 131.449 76.2909 131.13 76.6099 130.736L143.242 48.574C143.81 47.8736 144.076 46.9769 143.981 46.0809C143.887 45.185 143.44 44.3632 142.738 43.7961V43.7961ZM79.5514 53.7461L77.3657 56.4646V53.7461H79.5514Z" fill="#30EBD4"/>
<path d="M22.6762 22.4282C23.5791 22.4282 24.445 22.0702 25.0835 21.4329C25.722 20.7956 26.0806 19.9312 26.0806 19.03C26.0806 18.1287 25.722 17.2644 25.0835 16.6271C24.445 15.9898 23.5791 15.6318 22.6762 15.6318H18.7542C17.8513 15.6318 16.9853 15.9898 16.3469 16.6271C15.7084 17.2644 15.3497 18.1287 15.3497 19.03C15.3497 19.9312 15.7084 20.7956 16.3469 21.4329C16.9853 22.0702 17.8513 22.4282 18.7542 22.4282H22.6762Z" fill="#30EBD4"/>
<path d="M127.652 40.1123C128.481 38.1149 127.53 35.8249 125.529 34.9975C123.528 34.1701 121.234 35.1187 120.405 37.1161C119.576 39.1136 120.526 41.4036 122.528 42.231C124.529 43.0584 126.823 42.1098 127.652 40.1123Z" fill="#30EBD4"/>
<path d="M54.3651 69.9147C56.5311 69.9147 58.287 68.1621 58.287 66C58.287 63.838 56.5311 62.0853 54.3651 62.0853C52.199 62.0853 50.4431 63.838 50.4431 66C50.4431 68.1621 52.199 69.9147 54.3651 69.9147Z" fill="#30EBD4"/>
<path d="M43.7976 22.4282C44.7005 22.4282 45.5665 22.0702 46.2049 21.4329C46.8434 20.7956 47.2021 19.9312 47.2021 19.03C47.2021 18.1287 46.8434 17.2644 46.2049 16.6271C45.5665 15.9898 44.7005 15.6318 43.7976 15.6318H35.9605C35.0576 15.6318 34.1916 15.9898 33.5532 16.6271C32.9147 17.2644 32.556 18.1287 32.556 19.03C32.556 19.9312 32.9147 20.7956 33.5532 21.4329C34.1916 22.0702 35.0576 22.4282 35.9605 22.4282H43.7976Z" fill="#30EBD4"/>
</g>
<defs>
<filter id="filter0_i" x="0" y="0" width="144" height="136" filterUnits="userSpaceOnUse" color-interpolation-filters="sRGB">
<feFlood flood-opacity="0" result="BackgroundImageFix"/>
<feBlend mode="normal" in="SourceGraphic" in2="BackgroundImageFix" result="shape"/>
<feColorMatrix in="SourceAlpha" type="matrix" values="0 0 0 0 0 0 0 0 0 0 0 0 0 0 0 0 0 0 127 0" result="hardAlpha"/>
<feOffset dy="4"/>
<feGaussianBlur stdDeviation="2"/>
<feComposite in2="hardAlpha" operator="arithmetic" k2="-1" k3="1"/>
<feColorMatrix type="matrix" values="0 0 0 0 0 0 0 0 0 0 0 0 0 0 0 0 0 0 0.25 0"/>
<feBlend mode="normal" in2="shape" result="effect1_innerShadow"/>
</filter>
</defs>
</svg>
