<svg width="129" height="150" viewBox="0 0 129 150" fill="none" xmlns="http://www.w3.org/2000/svg">
<g filter="url(#filter0_i)">
<path d="M120.164 109.124L89.1032 55.4049L113.282 36.8447C113.605 36.6053 113.877 36.304 114.083 35.9584C114.288 35.6129 114.423 35.23 114.478 34.832C114.534 34.4341 114.51 34.0291 114.407 33.6406C114.304 33.2521 114.125 32.8879 113.88 32.5692C113.635 32.2506 113.328 31.9838 112.979 31.7845C112.629 31.5852 112.243 31.4573 111.843 31.4083C111.444 31.3592 111.038 31.3901 110.651 31.499C110.263 31.6079 109.901 31.7928 109.586 32.0427L86.0445 50.1124L67.1824 17.5215C66.9161 17.0613 66.533 16.6791 66.0718 16.4134C65.6105 16.1477 65.0872 16.0078 64.5546 16.0078C64.022 16.0078 63.4987 16.1477 63.0375 16.4134C62.5762 16.6791 62.1931 17.0613 61.9268 17.5215L42.1423 51.7111L20.5856 35.8577C20.2711 35.5772 19.9014 35.3652 19.5001 35.2352C19.0989 35.1053 18.6748 35.0603 18.2552 35.103C17.8355 35.1458 17.4293 35.2754 17.0627 35.4836C16.696 35.6918 16.3769 35.9739 16.1257 36.3121C15.8745 36.6503 15.6967 37.037 15.6037 37.4476C15.5106 37.8582 15.5045 38.2836 15.5855 38.6967C15.6665 39.1098 15.833 39.5015 16.0743 39.8468C16.3155 40.1921 16.6263 40.4834 16.9868 40.7021L39.0896 56.9915L8.43573 109.965L8.40539 110.026C8.33457 110.16 8.27372 110.3 8.22332 110.444C8.22332 110.486 8.22332 110.534 8.17477 110.577C8.12333 110.739 8.08677 110.905 8.06553 111.073V111.073C8.05038 111.243 8.05038 111.413 8.06553 111.582C8.06251 111.628 8.06251 111.675 8.06553 111.721C8.07746 111.878 8.10182 112.034 8.13836 112.188C8.13836 112.188 8.13836 112.224 8.13836 112.236C8.18362 112.403 8.24458 112.565 8.32042 112.721C8.33816 112.764 8.35843 112.807 8.38111 112.848C8.38111 112.89 8.41753 112.932 8.4418 112.975C8.50889 113.091 8.58391 113.202 8.66635 113.308V113.308C8.7425 113.403 8.82353 113.494 8.90911 113.58L8.97586 113.641C9.04869 113.708 9.12152 113.774 9.19434 113.829L9.27931 113.895L9.50385 114.041L9.61309 114.101C9.68592 114.138 9.75875 114.18 9.83764 114.21L9.95902 114.265L10.1836 114.337L10.3171 114.38L10.5598 114.428H10.6873C10.8065 114.437 10.9262 114.437 11.0453 114.428H61.2107V133.558C61.2107 134.361 61.5304 135.131 62.0994 135.699C62.6685 136.266 63.4403 136.585 64.2451 136.585C65.0499 136.585 65.8217 136.266 66.3908 135.699C66.9598 135.131 67.2795 134.361 67.2795 133.558V114.507H118.258C118.885 114.504 119.495 114.308 120.005 113.946C120.516 113.583 120.901 113.072 121.108 112.482C121.316 111.892 121.335 111.252 121.164 110.651C120.993 110.05 120.639 109.516 120.152 109.124H120.164ZM107.971 100.125L68.5783 71.1554L84.2481 59.1291L107.971 100.125ZM64.5546 25.0909L81.1894 53.8365L63.4986 67.4191L47.058 55.308L64.5546 25.0909ZM58.4857 71.2583L21.3442 99.7738L44.0054 60.5824L58.4857 71.2583ZM19.9848 108.451L61.2167 76.8052V108.451H19.9848ZM67.2856 77.7256L109.064 108.451H67.2856V77.7256Z" fill="#E9D5C3"/>
<path d="M10.748 34.9554C11.1729 34.9554 11.5883 34.8297 11.9416 34.5941C12.2949 34.3586 12.5702 34.0238 12.7328 33.6321C12.8954 33.2404 12.938 32.8094 12.8551 32.3935C12.7722 31.9777 12.5676 31.5958 12.2671 31.296C11.9667 30.9962 11.5838 30.792 11.1671 30.7093C10.7504 30.6266 10.3184 30.669 9.92583 30.8313C9.53326 30.9935 9.19773 31.2683 8.96166 31.6208C8.72559 31.9733 8.59959 32.3878 8.59959 32.8118C8.59959 33.3803 8.82594 33.9255 9.22884 34.3275C9.63174 34.7296 10.1782 34.9554 10.748 34.9554V34.9554Z" fill="#E9D5C3"/>
<path d="M68.4757 146.033C69.3851 143.843 68.3425 141.331 66.147 140.424C63.9515 139.516 61.4345 140.557 60.5251 142.747C59.6157 144.938 60.6582 147.45 62.8537 148.357C65.0492 149.264 67.5662 148.224 68.4757 146.033Z" fill="#E9D5C3"/>
<path d="M118.252 30.6681C118.678 30.6681 119.095 30.542 119.449 30.3058C119.803 30.0696 120.079 29.7339 120.242 29.341C120.406 28.9482 120.448 28.516 120.365 28.099C120.282 27.682 120.077 27.2989 119.775 26.9983C119.474 26.6977 119.09 26.4929 118.672 26.41C118.254 26.327 117.821 26.3696 117.428 26.5323C117.034 26.695 116.697 26.9705 116.461 27.3241C116.224 27.6776 116.098 28.0932 116.098 28.5184C116.098 28.8007 116.153 29.0802 116.262 29.341C116.37 29.6019 116.529 29.8388 116.729 30.0385C116.929 30.2381 117.166 30.3964 117.428 30.5045C117.689 30.6125 117.969 30.6681 118.252 30.6681V30.6681Z" fill="#E9D5C3"/>
<path d="M65.1912 9.16371C67.5369 8.78379 69.1298 6.57842 68.749 4.23789C68.3683 1.89737 66.158 0.307979 63.8123 0.6879C61.4667 1.06782 59.8738 3.27318 60.2545 5.61371C60.6353 7.95424 62.8455 9.54363 65.1912 9.16371Z" fill="#E9D5C3"/>
<path d="M124.697 26.3808C127.074 26.3808 129 24.4586 129 22.0874C129 19.7162 127.074 17.794 124.697 17.794C122.321 17.794 120.394 19.7162 120.394 22.0874C120.394 24.4586 122.321 26.3808 124.697 26.3808Z" fill="#E9D5C3"/>
<path d="M4.30283 30.6681C6.67922 30.6681 8.60567 28.7459 8.60567 26.3747C8.60567 24.0036 6.67922 22.0814 4.30283 22.0814C1.92644 22.0814 0 24.0036 0 26.3747C0 28.7459 1.92644 30.6681 4.30283 30.6681Z" fill="#E9D5C3"/>
</g>
<defs>
<filter id="filter0_i" x="0" y="0.63179" width="129" height="152.053" filterUnits="userSpaceOnUse" color-interpolation-filters="sRGB">
<feFlood flood-opacity="0" result="BackgroundImageFix"/>
<feBlend mode="normal" in="SourceGraphic" in2="BackgroundImageFix" result="shape"/>
<feColorMatrix in="SourceAlpha" type="matrix" values="0 0 0 0 0 0 0 0 0 0 0 0 0 0 0 0 0 0 127 0" result="hardAlpha"/>
<feOffset dy="4"/>
<feGaussianBlur stdDeviation="2"/>
<feComposite in2="hardAlpha" operator="arithmetic" k2="-1" k3="1"/>
<feColorMatrix type="matrix" values="0 0 0 0 0 0 0 0 0 0 0 0 0 0 0 0 0 0 0.25 0"/>
<feBlend mode="normal" in2="shape" result="effect1_innerShadow"/>
</filter>
</defs>
</svg>
