<svg width="129" height="150" viewBox="0 0 129 150" fill="none" xmlns="http://www.w3.org/2000/svg">
<g filter="url(#filter0_i)">
<path d="M120.164 109.124L89.1033 55.4049L113.282 36.8447C113.605 36.6053 113.877 36.304 114.083 35.9585C114.288 35.6129 114.423 35.23 114.479 34.8321C114.534 34.4341 114.51 34.0291 114.407 33.6406C114.304 33.2521 114.125 32.8879 113.88 32.5693C113.635 32.2506 113.328 31.9838 112.979 31.7845C112.629 31.5852 112.243 31.4573 111.843 31.4083C111.444 31.3593 111.038 31.3901 110.651 31.499C110.263 31.608 109.901 31.7928 109.586 32.0427L86.0445 50.1124L67.1825 17.5215C66.9161 17.0613 66.5331 16.6791 66.0718 16.4134C65.6105 16.1477 65.0873 16.0078 64.5546 16.0078C64.022 16.0078 63.4988 16.1477 63.0375 16.4134C62.5762 16.6791 62.1932 17.0613 61.9268 17.5215L42.1423 51.7111L20.5856 35.8577C20.2711 35.5772 19.9014 35.3652 19.5001 35.2352C19.0989 35.1053 18.6749 35.0603 18.2552 35.103C17.8355 35.1458 17.4294 35.2754 17.0627 35.4836C16.6961 35.6918 16.3769 35.974 16.1257 36.3121C15.8745 36.6503 15.6967 37.037 15.6037 37.4476C15.5107 37.8582 15.5045 38.2836 15.5855 38.6967C15.6666 39.1098 15.833 39.5015 16.0743 39.8468C16.3156 40.1921 16.6264 40.4834 16.9868 40.7021L39.0897 56.9915L8.43576 109.965L8.40542 110.026C8.3346 110.16 8.27375 110.3 8.22335 110.444C8.22335 110.486 8.22335 110.534 8.1748 110.577C8.12336 110.739 8.0868 110.905 8.06556 111.073V111.073C8.05041 111.243 8.05041 111.413 8.06556 111.582C8.06254 111.628 8.06254 111.675 8.06556 111.721C8.07749 111.878 8.10185 112.034 8.13839 112.188C8.13839 112.188 8.13839 112.224 8.13839 112.236C8.18365 112.403 8.24461 112.565 8.32046 112.721C8.3382 112.764 8.35846 112.807 8.38114 112.848C8.38114 112.89 8.41756 112.932 8.44183 112.975C8.50892 113.091 8.58394 113.202 8.66638 113.308V113.308C8.74253 113.403 8.82356 113.494 8.90914 113.58L8.97589 113.641C9.04872 113.708 9.12155 113.774 9.19437 113.829L9.27934 113.895L9.50389 114.041L9.61313 114.101C9.68595 114.138 9.75878 114.18 9.83767 114.21L9.95905 114.265L10.1836 114.337L10.3171 114.38L10.5599 114.428H10.6873C10.8065 114.437 10.9262 114.437 11.0454 114.428H61.2107V133.558C61.2107 134.361 61.5304 135.131 62.0995 135.699C62.6685 136.266 63.4404 136.585 64.2451 136.585C65.0499 136.585 65.8217 136.266 66.3908 135.699C66.9599 135.131 67.2796 134.361 67.2796 133.558V114.507H118.258C118.885 114.504 119.495 114.308 120.005 113.946C120.516 113.583 120.901 113.072 121.108 112.482C121.316 111.892 121.335 111.253 121.164 110.651C120.993 110.05 120.639 109.516 120.152 109.124H120.164ZM107.971 100.125L68.5783 71.1554L84.2481 59.1291L107.971 100.125ZM64.5546 25.091L81.1894 53.8366L63.4987 67.4191L47.0581 55.3081L64.5546 25.091ZM58.4858 71.2583L21.3443 99.7738L44.0054 60.5824L58.4858 71.2583ZM19.9848 108.451L61.2168 76.8052V108.451H19.9848ZM67.2856 77.7256L109.064 108.451H67.2856V77.7256Z" fill="#FFA756"/>
<path d="M10.7479 34.9554C11.1728 34.9554 11.5881 34.8297 11.9414 34.5942C12.2947 34.3586 12.5701 34.0238 12.7327 33.6321C12.8953 33.2404 12.9379 32.8094 12.855 32.3936C12.7721 31.9777 12.5675 31.5958 12.267 31.296C11.9665 30.9962 11.5837 30.792 11.167 30.7093C10.7503 30.6266 10.3183 30.669 9.92572 30.8313C9.53315 30.9935 9.19762 31.2683 8.96155 31.6208C8.72549 31.9733 8.59949 32.3878 8.59949 32.8118C8.59949 33.3803 8.82583 33.9255 9.22873 34.3276C9.63163 34.7296 10.1781 34.9554 10.7479 34.9554V34.9554Z" fill="#FFA756"/>
<path d="M68.4756 146.033C69.385 143.843 68.3425 141.331 66.147 140.424C63.9515 139.516 61.4344 140.557 60.525 142.747C59.6156 144.938 60.6582 147.45 62.8537 148.357C65.0492 149.264 67.5662 148.224 68.4756 146.033Z" fill="#FFA756"/>
<path d="M118.252 30.6681C118.678 30.6681 119.095 30.542 119.449 30.3058C119.803 30.0696 120.079 29.7339 120.243 29.3411C120.406 28.9482 120.448 28.516 120.365 28.099C120.282 27.682 120.077 27.299 119.776 26.9983C119.474 26.6977 119.09 26.4929 118.672 26.41C118.254 26.327 117.821 26.3696 117.428 26.5323C117.034 26.695 116.697 26.9706 116.461 27.3241C116.224 27.6776 116.098 28.0932 116.098 28.5184C116.098 28.8007 116.153 29.0802 116.262 29.3411C116.37 29.6019 116.529 29.8389 116.729 30.0385C116.929 30.2381 117.166 30.3964 117.428 30.5045C117.689 30.6125 117.969 30.6681 118.252 30.6681V30.6681Z" fill="#FFA756"/>
<path d="M65.1911 9.16372C67.5368 8.7838 69.1297 6.57844 68.749 4.23791C68.3682 1.89738 66.158 0.307994 63.8123 0.687916C61.4666 1.06784 59.8737 3.2732 60.2545 5.61373C60.6352 7.95426 62.8455 9.54364 65.1911 9.16372Z" fill="#FFA756"/>
<path d="M124.697 26.3808C127.074 26.3808 129 24.4586 129 22.0874C129 19.7163 127.074 17.7941 124.697 17.7941C122.321 17.7941 120.394 19.7163 120.394 22.0874C120.394 24.4586 122.321 26.3808 124.697 26.3808Z" fill="#FFA756"/>
<path d="M4.30283 30.6681C6.67922 30.6681 8.60567 28.7459 8.60567 26.3747C8.60567 24.0036 6.67922 22.0814 4.30283 22.0814C1.92644 22.0814 0 24.0036 0 26.3747C0 28.7459 1.92644 30.6681 4.30283 30.6681Z" fill="#FFA756"/>
</g>
<defs>
<filter id="filter0_i" x="0" y="0.631805" width="129" height="152.053" filterUnits="userSpaceOnUse" color-interpolation-filters="sRGB">
<feFlood flood-opacity="0" result="BackgroundImageFix"/>
<feBlend mode="normal" in="SourceGraphic" in2="BackgroundImageFix" result="shape"/>
<feColorMatrix in="SourceAlpha" type="matrix" values="0 0 0 0 0 0 0 0 0 0 0 0 0 0 0 0 0 0 127 0" result="hardAlpha"/>
<feOffset dy="4"/>
<feGaussianBlur stdDeviation="2"/>
<feComposite in2="hardAlpha" operator="arithmetic" k2="-1" k3="1"/>
<feColorMatrix type="matrix" values="0 0 0 0 0 0 0 0 0 0 0 0 0 0 0 0 0 0 0.25 0"/>
<feBlend mode="normal" in2="shape" result="effect1_innerShadow"/>
</filter>
</defs>
</svg>
