<svg width="104" height="144" viewBox="0 0 104 144" fill="none" xmlns="http://www.w3.org/2000/svg">
<g filter="url(#filter0_i)">
<path d="M51.9877 26.2417C54.3818 26.2417 56.3226 24.2904 56.3226 21.8834C56.3226 19.4764 54.3818 17.5252 51.9877 17.5252C49.5937 17.5252 47.6529 19.4764 47.6529 21.8834C47.6529 24.2904 49.5937 26.2417 51.9877 26.2417Z" fill="#D0A6C7"/>
<path d="M4.34094 87.2139C3.48411 87.2127 2.64614 87.4668 1.93287 87.9441C1.21961 88.4215 0.663046 89.1006 0.333482 89.8958C0.00391711 90.691 -0.0838642 91.5665 0.0812251 92.4118C0.246314 93.2571 0.656869 94.0343 1.26103 94.6451C1.8652 95.256 2.63586 95.6731 3.4757 95.8439C4.31553 96.0146 5.18686 95.9313 5.97962 95.6044C6.77238 95.2776 7.45102 94.7219 7.92981 94.0074C8.4086 93.293 8.66606 92.452 8.66969 91.5905C8.67291 91.017 8.56333 90.4484 8.34723 89.9175C8.13113 89.3867 7.81279 88.904 7.41051 88.4972C7.00823 88.0905 6.52994 87.7677 6.00315 87.5475C5.47636 87.3272 4.91146 87.2139 4.34094 87.2139V87.2139Z" fill="#D0A6C7"/>
<path d="M99.6652 87.2139C98.8075 87.2139 97.9692 87.4696 97.2562 87.9488C96.5432 88.428 95.9876 89.109 95.6597 89.9057C95.3318 90.7024 95.2463 91.579 95.414 92.4246C95.5818 93.2702 95.9953 94.0467 96.6021 94.656C97.209 95.2653 97.9819 95.6799 98.8232 95.8473C99.6645 96.0148 100.536 95.9276 101.328 95.5968C102.12 95.266 102.797 94.7064 103.272 93.9889C103.748 93.2714 104.001 92.4282 104 91.566C104 90.9939 103.888 90.4275 103.67 89.8991C103.452 89.3706 103.133 88.8906 102.73 88.4864C102.327 88.0822 101.849 87.7617 101.324 87.5434C100.798 87.325 100.234 87.2131 99.6652 87.2139V87.2139Z" fill="#D0A6C7"/>
<path d="M51.9756 66.7197C51.1648 66.7197 50.3872 67.0435 49.8139 67.6199C49.2406 68.1963 48.9185 68.9781 48.9185 69.7932V140.926C48.9185 141.742 49.2406 142.523 49.8139 143.1C50.3872 143.676 51.1648 144 51.9756 144C52.7863 144 53.5639 143.676 54.1372 143.1C54.7105 142.523 55.0326 141.742 55.0326 140.926V69.7932C55.0326 68.9781 54.7105 68.1963 54.1372 67.6199C53.5639 67.0435 52.7863 66.7197 51.9756 66.7197Z" fill="#D0A6C7"/>
<path d="M4.3417 81.5771C5.15248 81.5771 5.93005 81.2533 6.50335 80.6769C7.07665 80.1005 7.39873 79.3187 7.39873 78.5036V59.7982H96.6089V78.5036C96.6089 79.3187 96.931 80.1005 97.5043 80.6769C98.0776 81.2533 98.8551 81.5771 99.6659 81.5771C100.477 81.5771 101.254 81.2533 101.828 80.6769C102.401 80.1005 102.723 79.3187 102.723 78.5036V56.7247C102.723 55.9096 102.401 55.1278 101.828 54.5514C101.254 53.975 100.477 53.6512 99.6659 53.6512H56.8675L70.0005 31.0855L84.9922 4.59188C85.2572 4.12288 85.3949 3.592 85.3912 3.05259C85.3876 2.51318 85.2428 1.98423 84.9714 1.5189C84.7 1.05357 84.3116 0.668241 83.8452 0.401634C83.3787 0.135027 82.8507 -0.00346743 82.3142 6.59548e-05H21.6689C21.134 -0.000223506 20.6083 0.140635 20.1444 0.408567C19.6806 0.676499 19.2947 1.06212 19.0255 1.52691C18.7563 1.9917 18.6131 2.51938 18.6103 3.05722C18.6075 3.59506 18.745 4.12424 19.0093 4.59188L34.0377 31.1162L47.1523 53.6512H4.35393C3.54316 53.6512 2.76559 53.975 2.19229 54.5514C1.61898 55.1278 1.29691 55.9096 1.29691 56.7247V78.5036C1.2969 79.3166 1.6173 80.0965 2.18796 80.6725C2.75862 81.2486 3.53305 81.5738 4.3417 81.5771V81.5771ZM26.9087 6.14708H77.0439L64.6691 28.012L51.9763 49.7909L39.3324 28.0427L26.9087 6.14708Z" fill="#D0A6C7"/>
</g>
<defs>
<filter id="filter0_i" x="0" y="0" width="104" height="148" filterUnits="userSpaceOnUse" color-interpolation-filters="sRGB">
<feFlood flood-opacity="0" result="BackgroundImageFix"/>
<feBlend mode="normal" in="SourceGraphic" in2="BackgroundImageFix" result="shape"/>
<feColorMatrix in="SourceAlpha" type="matrix" values="0 0 0 0 0 0 0 0 0 0 0 0 0 0 0 0 0 0 127 0" result="hardAlpha"/>
<feOffset dy="4"/>
<feGaussianBlur stdDeviation="2"/>
<feComposite in2="hardAlpha" operator="arithmetic" k2="-1" k3="1"/>
<feColorMatrix type="matrix" values="0 0 0 0 0 0 0 0 0 0 0 0 0 0 0 0 0 0 0.25 0"/>
<feBlend mode="normal" in2="shape" result="effect1_innerShadow"/>
</filter>
</defs>
</svg>
