<svg width="104" height="144" viewBox="0 0 104 144" fill="none" xmlns="http://www.w3.org/2000/svg">
<g filter="url(#filter0_i)">
<path d="M51.9877 26.2417C54.3818 26.2417 56.3226 24.2904 56.3226 21.8834C56.3226 19.4764 54.3818 17.5252 51.9877 17.5252C49.5936 17.5252 47.6528 19.4764 47.6528 21.8834C47.6528 24.2904 49.5936 26.2417 51.9877 26.2417Z" fill="#C747AB"/>
<path d="M4.34094 87.2139C3.48411 87.2127 2.64614 87.4668 1.93287 87.9441C1.21961 88.4215 0.663046 89.1006 0.333482 89.8958C0.00391711 90.691 -0.0838642 91.5665 0.0812251 92.4118C0.246314 93.2571 0.656869 94.0343 1.26103 94.6452C1.8652 95.256 2.63586 95.6732 3.4757 95.8439C4.31553 96.0146 5.18686 95.9313 5.97962 95.6044C6.77238 95.2776 7.45102 94.7219 7.92981 94.0075C8.4086 93.293 8.66606 92.452 8.66969 91.5906C8.67291 91.017 8.56333 90.4484 8.34723 89.9175C8.13113 89.3867 7.81279 88.904 7.41051 88.4973C7.00823 88.0905 6.52994 87.7677 6.00315 87.5475C5.47636 87.3273 4.91146 87.2139 4.34094 87.2139V87.2139Z" fill="#C747AB"/>
<path d="M99.6651 87.2139C98.8074 87.2139 97.9691 87.4697 97.2561 87.9488C96.5431 88.428 95.9875 89.109 95.6596 89.9057C95.3317 90.7025 95.2462 91.5791 95.4139 92.4246C95.5817 93.2702 95.9952 94.0468 96.602 94.656C97.2089 95.2653 97.9818 95.6799 98.8231 95.8474C99.6644 96.0148 100.536 95.9276 101.328 95.5968C102.12 95.266 102.797 94.7065 103.272 93.989C103.748 93.2714 104.001 92.4282 104 91.566C104 90.9939 103.888 90.4275 103.67 89.8991C103.452 89.3707 103.133 88.8906 102.73 88.4864C102.327 88.0822 101.849 87.7618 101.323 87.5434C100.798 87.3251 100.234 87.2131 99.6651 87.2139V87.2139Z" fill="#C747AB"/>
<path d="M51.9756 66.7198C51.1648 66.7198 50.3873 67.0436 49.814 67.62C49.2407 68.1964 48.9186 68.9781 48.9186 69.7933V140.927C48.9186 141.742 49.2407 142.523 49.814 143.1C50.3873 143.676 51.1648 144 51.9756 144C52.7864 144 53.5639 143.676 54.1373 143.1C54.7106 142.523 55.0326 141.742 55.0326 140.927V69.7933C55.0326 68.9781 54.7106 68.1964 54.1373 67.62C53.5639 67.0436 52.7864 66.7198 51.9756 66.7198Z" fill="#C747AB"/>
<path d="M4.3418 81.5771C5.15257 81.5771 5.93014 81.2533 6.50344 80.6769C7.07674 80.1005 7.39882 79.3187 7.39882 78.5036V59.7982H96.609V78.5036C96.609 79.3187 96.9311 80.1005 97.5044 80.6769C98.0777 81.2533 98.8552 81.5771 99.666 81.5771C100.477 81.5771 101.254 81.2533 101.828 80.6769C102.401 80.1005 102.723 79.3187 102.723 78.5036V56.7247C102.723 55.9096 102.401 55.1278 101.828 54.5514C101.254 53.975 100.477 53.6512 99.666 53.6512H56.8676L70.0006 31.0855L84.9923 4.59189C85.2573 4.12288 85.395 3.592 85.3913 3.05259C85.3877 2.51318 85.2429 1.98423 84.9715 1.5189C84.7001 1.05357 84.3117 0.668241 83.8453 0.401634C83.3788 0.135027 82.8508 -0.00346743 82.3143 6.59548e-05H21.669C21.1341 -0.000223506 20.6084 0.140635 20.1445 0.408567C19.6806 0.676499 19.2948 1.06212 19.0256 1.52691C18.7564 1.9917 18.6132 2.51938 18.6104 3.05722C18.6075 3.59506 18.7451 4.12424 19.0094 4.59189L34.0378 31.1162L47.1524 53.6512H4.35402C3.54325 53.6512 2.76568 53.975 2.19238 54.5514C1.61908 55.1278 1.297 55.9096 1.297 56.7247V78.5036C1.29699 79.3166 1.61739 80.0965 2.18805 80.6725C2.75871 81.2486 3.53314 81.5738 4.3418 81.5771V81.5771ZM26.9088 6.14708H77.044L64.6692 28.012L51.9764 49.7909L39.3325 28.0427L26.9088 6.14708Z" fill="#C747AB"/>
</g>
<defs>
<filter id="filter0_i" x="0" y="0" width="104" height="148" filterUnits="userSpaceOnUse" color-interpolation-filters="sRGB">
<feFlood flood-opacity="0" result="BackgroundImageFix"/>
<feBlend mode="normal" in="SourceGraphic" in2="BackgroundImageFix" result="shape"/>
<feColorMatrix in="SourceAlpha" type="matrix" values="0 0 0 0 0 0 0 0 0 0 0 0 0 0 0 0 0 0 127 0" result="hardAlpha"/>
<feOffset dy="4"/>
<feGaussianBlur stdDeviation="2"/>
<feComposite in2="hardAlpha" operator="arithmetic" k2="-1" k3="1"/>
<feColorMatrix type="matrix" values="0 0 0 0 0 0 0 0 0 0 0 0 0 0 0 0 0 0 0.25 0"/>
<feBlend mode="normal" in2="shape" result="effect1_innerShadow"/>
</filter>
</defs>
</svg>
