<svg width="160" height="118" viewBox="0 0 160 118" fill="none" xmlns="http://www.w3.org/2000/svg">
<g filter="url(#filter0_i)">
<path d="M159.352 32.5285C158.838 31.8666 158.081 31.4331 157.245 31.3232C156.41 31.2133 155.564 31.4359 154.894 31.9423L138.976 44.0022L82.07 0.654374C81.5133 0.230074 80.8305 0 80.128 0C79.4254 0 78.7426 0.230074 78.1859 0.654374L21.2992 44.0022L5.34236 31.9423C5.01575 31.644 4.62968 31.4167 4.20901 31.275C3.78833 31.1333 3.34236 31.0804 2.89978 31.1196C2.4572 31.1589 2.02782 31.2894 1.63926 31.5028C1.2507 31.7162 0.911564 32.0078 0.643671 32.3588C0.375778 32.7098 0.185061 33.1124 0.083789 33.5408C-0.0174827 33.9691 -0.0270661 34.4137 0.0556553 34.846C0.138377 35.2782 0.311571 35.6886 0.564096 36.0505C0.81662 36.4125 1.14288 36.7182 1.52189 36.9478L30.6657 59.0126L1.52189 81.0711C0.932522 81.5996 0.564223 82.3273 0.489451 83.111C0.414678 83.8948 0.638845 84.6779 1.11785 85.3063C1.59686 85.9347 2.29603 86.3629 3.07782 86.5066C3.85962 86.6503 4.66743 86.4992 5.34236 86.083L21.261 74.0167L78.1859 117.346C78.7426 117.77 79.4254 118 80.128 118C80.8305 118 81.5133 117.77 82.07 117.346L138.957 74.0167L154.875 86.083C155.547 86.5912 156.394 86.8147 157.232 86.7042C158.07 86.5936 158.829 86.1581 159.342 85.4935C159.856 84.8289 160.081 83.9896 159.97 83.1602C159.858 82.3309 159.418 81.5794 158.747 81.0711L129.603 59.0063L158.747 36.9415C159.417 36.4352 159.858 35.6862 159.971 34.8589C160.084 34.0316 159.862 33.1935 159.352 32.5285V32.5285ZM133.723 70.0513L80.128 110.865L26.5396 70.0513L35.9061 62.978L78.2177 95.016C78.7733 95.4373 79.4536 95.6656 80.1534 95.6656C80.8532 95.6656 81.5335 95.4373 82.0891 95.016L124.401 62.978L133.723 70.0513ZM41.121 59.0126L80.128 29.4773L119.135 59.0126L80.128 88.5416L41.121 59.0126ZM82.0637 23.0092C81.5081 22.5879 80.8278 22.3596 80.128 22.3596C79.4282 22.3596 78.7479 22.5879 78.1923 23.0092L35.9061 55.0409L26.5396 47.9676L80.128 7.15403L133.716 47.9676L124.375 55.0409L82.0637 23.0092Z" fill="#BBCB00"/>
<path d="M80.128 61.2443C82.6213 61.2443 84.6426 59.2431 84.6426 56.7746C84.6426 54.3061 82.6213 52.3049 80.128 52.3049C77.6347 52.3049 75.6135 54.3061 75.6135 56.7746C75.6135 59.2431 77.6347 61.2443 80.128 61.2443Z" fill="#BBCB00"/>
<path d="M7.94677 61.2443C10.4401 61.2443 12.4613 59.2431 12.4613 56.7746C12.4613 54.3061 10.4401 52.3049 7.94677 52.3049C5.45347 52.3049 3.43225 54.3061 3.43225 56.7746C3.43225 59.2431 5.45347 61.2443 7.94677 61.2443Z" fill="#BBCB00"/>
<path d="M152.309 61.2443C154.803 61.2443 156.824 59.2431 156.824 56.7746C156.824 54.3061 154.803 52.3049 152.309 52.3049C149.816 52.3049 147.795 54.3061 147.795 56.7746C147.795 59.2431 149.816 61.2443 152.309 61.2443Z" fill="#BBCB00"/>
</g>
<defs>
<filter id="filter0_i" x="0" y="0" width="160" height="122" filterUnits="userSpaceOnUse" color-interpolation-filters="sRGB">
<feFlood flood-opacity="0" result="BackgroundImageFix"/>
<feBlend mode="normal" in="SourceGraphic" in2="BackgroundImageFix" result="shape"/>
<feColorMatrix in="SourceAlpha" type="matrix" values="0 0 0 0 0 0 0 0 0 0 0 0 0 0 0 0 0 0 127 0" result="hardAlpha"/>
<feOffset dy="4"/>
<feGaussianBlur stdDeviation="2"/>
<feComposite in2="hardAlpha" operator="arithmetic" k2="-1" k3="1"/>
<feColorMatrix type="matrix" values="0 0 0 0 0 0 0 0 0 0 0 0 0 0 0 0 0 0 0.25 0"/>
<feBlend mode="normal" in2="shape" result="effect1_innerShadow"/>
</filter>
</defs>
</svg>
