<?xml version="1.0" encoding="utf-8"?>
<!-- Generator: Adobe Illustrator 24.1.3, SVG Export Plug-In . SVG Version: 6.00 Build 0)  -->
<svg version="1.1" xmlns="http://www.w3.org/2000/svg" xmlns:xlink="http://www.w3.org/1999/xlink" x="0px" y="0px"
	 viewBox="0 0 1920 1759" style="enable-background:new 0 0 1920 1759;" xml:space="preserve">
<g id="Layer_1">
</g>
<g id="Layer_2">
</g>
<g id="Layer_3">
	<g style="opacity:8.000000e-02;">
		<g>
			<path style="fill:none;stroke:#F7931E;stroke-width:10;stroke-linecap:round;stroke-miterlimit:10;" d="M1312.4-677.1
				c22,23.1,7.5,36.8,29.4,59.9c22,23.1,36.4,9.3,58.4,32.3c22,23.1,7.5,36.8,29.4,59.9c22,23.1,36.4,9.3,58.4,32.3
				c22,23.1,7.5,36.8,29.4,59.9c22,23.1,36.4,9.3,58.4,32.3c22,23.1,7.5,36.8,29.4,59.9c22,23.1,36.4,9.3,58.4,32.3
				c22,23.1,7.5,36.8,29.4,59.9c22,23.1,36.4,9.3,58.4,32.3c22,23.1,7.5,36.8,29.4,59.9c22,23.1,36.4,9.3,58.4,32.3
				c22,23.1,7.5,36.8,29.4,59.9c22,23.1,36.4,9.3,58.4,32.3c22,23.1,7.5,36.8,29.4,59.9c22,23.1,36.4,9.3,58.4,32.3
				c22,23.1,7.5,36.8,29.4,59.9c22,23.1,36.4,9.3,58.4,32.3c22,23.1,7.5,36.8,29.4,59.9c22,23.1,36.4,9.3,58.4,32.3
				c22,23.1,7.5,36.8,29.4,59.9c22,23.1,36.4,9.3,58.4,32.3c22,23,7.5,36.8,29.4,59.9c22,23,36.4,9.3,58.4,32.3
				c22,23.1,7.5,36.8,29.4,59.9c22,23.1,36.4,9.3,58.4,32.3c22,23.1,7.5,36.8,29.4,59.9c22,23.1,36.4,9.3,58.4,32.3
				c22,23.1,7.5,36.8,29.4,59.9c22,23.1,36.4,9.3,58.4,32.3c22,23.1,7.5,36.8,29.4,59.9c22,23.1,36.4,9.3,58.4,32.3
				c22,23.1,7.5,36.8,29.4,59.9c22,23.1,36.4,9.3,58.4,32.3c22,23.1,7.5,36.8,29.4,59.9c22,23.1,36.4,9.3,58.4,32.3
				c22,23.1,7.5,36.8,29.4,59.9c22,23.1,36.4,9.3,58.4,32.3c22,23.1,7.5,36.8,29.4,59.9c22,23.1,36.4,9.3,58.4,32.3
				c22,23.1,7.5,36.8,29.4,59.9"/>
		</g>
		<g>
			<path style="fill:none;stroke:#F7931E;stroke-width:10;stroke-linecap:round;stroke-miterlimit:10;" d="M1262.7-652.4
				c22,23.1,7.5,36.8,29.4,59.9c22,23.1,36.4,9.3,58.4,32.3c22,23.1,7.5,36.8,29.4,59.9c22,23.1,36.4,9.3,58.4,32.3
				c22,23.1,7.5,36.8,29.4,59.9c22,23.1,36.4,9.3,58.4,32.3c22,23.1,7.5,36.8,29.4,59.9c22,23.1,36.4,9.3,58.4,32.3
				c22,23.1,7.5,36.8,29.4,59.9c22,23.1,36.4,9.3,58.4,32.3c22,23.1,7.5,36.8,29.4,59.9c22,23.1,36.4,9.3,58.4,32.3
				c22,23.1,7.5,36.8,29.4,59.9c22,23.1,36.4,9.3,58.4,32.3c22,23.1,7.5,36.8,29.4,59.9c22,23.1,36.4,9.3,58.4,32.3
				c22,23.1,7.5,36.8,29.4,59.9c22,23.1,36.4,9.3,58.4,32.3c22,23.1,7.5,36.8,29.4,59.9c22,23.1,36.4,9.3,58.4,32.3
				c22,23.1,7.5,36.8,29.4,59.9c22,23.1,36.4,9.3,58.4,32.3c22,23,7.5,36.8,29.4,59.9c22,23,36.4,9.3,58.4,32.3
				c22,23.1,7.5,36.8,29.4,59.9c22,23.1,36.4,9.3,58.4,32.3c22,23.1,7.5,36.8,29.4,59.9c22,23.1,36.4,9.3,58.4,32.3
				c22,23.1,7.5,36.8,29.4,59.9c22,23.1,36.4,9.3,58.4,32.3c22,23.1,7.5,36.8,29.4,59.9c22,23.1,36.4,9.3,58.4,32.3
				c22,23.1,7.5,36.8,29.4,59.9c22,23.1,36.4,9.3,58.4,32.3c22,23.1,7.5,36.8,29.4,59.9c22,23.1,36.4,9.3,58.4,32.3
				c22,23.1,7.5,36.8,29.4,59.9c22,23.1,36.4,9.3,58.4,32.3c22,23.1,7.5,36.8,29.4,59.9c22,23.1,36.4,9.3,58.4,32.3
				c22,23.1,7.5,36.8,29.4,59.9"/>
		</g>
		<g>
			<path style="fill:none;stroke:#F7931E;stroke-width:10;stroke-linecap:round;stroke-miterlimit:10;" d="M1213-627.6
				c22,23.1,7.5,36.8,29.4,59.9c22,23.1,36.4,9.3,58.4,32.3c22,23.1,7.5,36.8,29.4,59.9c22,23.1,36.4,9.3,58.4,32.3
				c22,23.1,7.5,36.8,29.4,59.9c22,23.1,36.4,9.3,58.4,32.3c22,23.1,7.5,36.8,29.4,59.9c22,23.1,36.4,9.3,58.4,32.3
				c22,23.1,7.5,36.8,29.4,59.9c22,23.1,36.4,9.3,58.4,32.3c22,23.1,7.5,36.8,29.4,59.9c22,23.1,36.4,9.3,58.4,32.3
				c22,23.1,7.5,36.8,29.4,59.9c22,23.1,36.4,9.3,58.4,32.3c22,23.1,7.5,36.8,29.4,59.9c22,23.1,36.4,9.3,58.4,32.3
				c22,23.1,7.5,36.8,29.4,59.9c22,23.1,36.4,9.3,58.4,32.3c22,23.1,7.5,36.8,29.4,59.9c22,23.1,36.4,9.3,58.4,32.3
				c22,23.1,7.5,36.8,29.4,59.9c22,23.1,36.4,9.3,58.4,32.3c22,23,7.5,36.8,29.4,59.9c22,23,36.4,9.3,58.4,32.3
				c22,23.1,7.5,36.8,29.4,59.9c22,23.1,36.4,9.3,58.4,32.3c22,23.1,7.5,36.8,29.4,59.9c22,23.1,36.4,9.3,58.4,32.3
				c22,23.1,7.5,36.8,29.4,59.9c22,23.1,36.4,9.3,58.4,32.3c22,23.1,7.5,36.8,29.4,59.9c22,23.1,36.4,9.3,58.4,32.3
				c22,23.1,7.5,36.8,29.4,59.9c22,23.1,36.4,9.3,58.4,32.3c22,23.1,7.5,36.8,29.4,59.9c22,23.1,36.4,9.3,58.4,32.3
				c22,23.1,7.5,36.8,29.4,59.9c22,23.1,36.4,9.3,58.4,32.3c22,23.1,7.5,36.8,29.4,59.9c22,23.1,36.4,9.3,58.4,32.3
				c22,23.1,7.5,36.9,29.4,59.9"/>
		</g>
		<g>
			<path style="fill:none;stroke:#F7931E;stroke-width:10;stroke-linecap:round;stroke-miterlimit:10;" d="M1163.4-602.9
				c22,23.1,7.5,36.8,29.4,59.9c22,23.1,36.4,9.3,58.4,32.3c22,23.1,7.5,36.8,29.4,59.9c22,23.1,36.4,9.3,58.4,32.3
				c22,23.1,7.5,36.8,29.4,59.9c22,23.1,36.4,9.3,58.4,32.3c22,23.1,7.5,36.8,29.4,59.9c22,23.1,36.4,9.3,58.4,32.3
				c22,23.1,7.5,36.8,29.4,59.9c22,23.1,36.4,9.3,58.4,32.3c22,23.1,7.5,36.8,29.4,59.9c22,23.1,36.4,9.3,58.4,32.3
				c22,23.1,7.5,36.8,29.4,59.9c22,23.1,36.4,9.3,58.4,32.3c22,23.1,7.5,36.8,29.4,59.9c22,23.1,36.4,9.3,58.4,32.3
				c22,23.1,7.5,36.8,29.4,59.9c22,23.1,36.4,9.3,58.4,32.3c22,23.1,7.5,36.8,29.4,59.9c22,23.1,36.4,9.3,58.4,32.3
				c22,23.1,7.5,36.8,29.4,59.9c22,23.1,36.4,9.3,58.4,32.3c22,23,7.5,36.8,29.4,59.9c22,23,36.4,9.3,58.4,32.3
				c22,23.1,7.5,36.8,29.4,59.9c22,23.1,36.4,9.3,58.4,32.3c22,23.1,7.5,36.8,29.4,59.9c22,23.1,36.4,9.3,58.4,32.3
				c22,23.1,7.5,36.8,29.4,59.9c22,23.1,36.4,9.3,58.4,32.3c22,23.1,7.5,36.8,29.4,59.9c22,23.1,36.4,9.3,58.4,32.3
				c22,23.1,7.5,36.8,29.4,59.9c22,23.1,36.4,9.3,58.4,32.3c22,23.1,7.5,36.8,29.4,59.9c22,23.1,36.4,9.3,58.4,32.3
				c22,23.1,7.5,36.8,29.4,59.9c22,23.1,36.4,9.3,58.4,32.3c22,23.1,7.5,36.8,29.4,59.9c22,23.1,36.4,9.3,58.4,32.3
				c22,23.1,7.5,36.8,29.4,59.9"/>
		</g>
		<g>
			<path style="fill:none;stroke:#F7931E;stroke-width:10;stroke-linecap:round;stroke-miterlimit:10;" d="M1113.7-578.2
				c22,23.1,7.5,36.8,29.4,59.9c22,23.1,36.4,9.3,58.4,32.3c22,23.1,7.5,36.8,29.4,59.9c22,23.1,36.4,9.3,58.4,32.3
				c22,23.1,7.5,36.8,29.4,59.9c22,23.1,36.4,9.3,58.4,32.3c22,23.1,7.5,36.8,29.4,59.9c22,23.1,36.4,9.3,58.4,32.3
				c22,23.1,7.5,36.8,29.4,59.9c22,23.1,36.4,9.3,58.4,32.3c22,23.1,7.5,36.8,29.4,59.9c22,23.1,36.4,9.3,58.4,32.3
				c22,23.1,7.5,36.8,29.4,59.9c22,23.1,36.4,9.3,58.4,32.3c22,23.1,7.5,36.8,29.4,59.9c22,23.1,36.4,9.3,58.4,32.3
				c22,23.1,7.5,36.8,29.4,59.9c22,23.1,36.4,9.3,58.4,32.3c22,23.1,7.5,36.8,29.4,59.9c22,23.1,36.4,9.3,58.4,32.3
				c22,23.1,7.5,36.8,29.4,59.9c22,23.1,36.4,9.3,58.4,32.3c22,23,7.5,36.8,29.4,59.9c22,23,36.4,9.3,58.4,32.3
				c22,23.1,7.5,36.8,29.4,59.9c22,23.1,36.4,9.3,58.4,32.3c22,23.1,7.5,36.8,29.4,59.9c22,23.1,36.4,9.3,58.4,32.3
				c22,23.1,7.5,36.8,29.4,59.9c22,23.1,36.4,9.3,58.4,32.3c22,23.1,7.5,36.8,29.4,59.9c22,23.1,36.4,9.3,58.4,32.3
				c22,23.1,7.5,36.8,29.4,59.9c22,23.1,36.4,9.3,58.4,32.3c22,23.1,7.5,36.8,29.4,59.9c22,23.1,36.4,9.3,58.4,32.3
				c22,23.1,7.5,36.8,29.4,59.9c22,23.1,36.4,9.3,58.4,32.3c22,23.1,7.5,36.8,29.4,59.9c22,23.1,36.4,9.3,58.4,32.3
				c22,23.1,7.5,36.8,29.4,59.9"/>
		</g>
		<g>
			<path style="fill:none;stroke:#F7931E;stroke-width:10;stroke-linecap:round;stroke-miterlimit:10;" d="M1064-553.5
				c22,23.1,7.5,36.8,29.4,59.9c22,23.1,36.4,9.3,58.4,32.3c22,23.1,7.5,36.8,29.4,59.9c22,23.1,36.4,9.3,58.4,32.3
				c22,23.1,7.5,36.8,29.4,59.9c22,23.1,36.4,9.3,58.4,32.3c22,23.1,7.5,36.8,29.4,59.9c22,23.1,36.4,9.3,58.4,32.3
				c22,23.1,7.5,36.8,29.4,59.9c22,23.1,36.4,9.3,58.4,32.3c22,23.1,7.5,36.8,29.4,59.9c22,23.1,36.4,9.3,58.4,32.3
				c22,23.1,7.5,36.8,29.4,59.9c22,23.1,36.4,9.3,58.4,32.3c22,23.1,7.5,36.8,29.4,59.9c22,23.1,36.4,9.3,58.4,32.3
				c22,23.1,7.5,36.8,29.4,59.9c22,23.1,36.4,9.3,58.4,32.3c22,23.1,7.5,36.8,29.4,59.9c22,23.1,36.4,9.3,58.4,32.3
				c22,23.1,7.5,36.8,29.4,59.9c22,23.1,36.4,9.3,58.4,32.3c22,23,7.5,36.8,29.4,59.9c22,23,36.4,9.3,58.4,32.3
				c22,23.1,7.5,36.8,29.4,59.9c22,23.1,36.4,9.3,58.4,32.3c22,23.1,7.5,36.8,29.4,59.9c22,23.1,36.4,9.3,58.4,32.3
				c22,23.1,7.5,36.8,29.4,59.9c22,23.1,36.4,9.3,58.4,32.3c22,23.1,7.5,36.8,29.4,59.9c22,23.1,36.4,9.3,58.4,32.3
				c22,23.1,7.5,36.8,29.4,59.9c22,23.1,36.4,9.3,58.4,32.3c22,23.1,7.5,36.8,29.4,59.9c22,23.1,36.4,9.3,58.4,32.3
				c22,23.1,7.5,36.8,29.4,59.9c22,23.1,36.4,9.3,58.4,32.3c22,23.1,7.5,36.8,29.4,59.9c22,23.1,36.4,9.3,58.4,32.3
				c22,23.1,7.5,36.8,29.4,59.9"/>
		</g>
		<g>
			<path style="fill:none;stroke:#F7931E;stroke-width:10;stroke-linecap:round;stroke-miterlimit:10;" d="M1014.4-528.7
				c22,23.1,7.5,36.8,29.4,59.9c22,23.1,36.4,9.3,58.4,32.3c22,23.1,7.5,36.8,29.4,59.9c22,23.1,36.4,9.3,58.4,32.3
				c22,23.1,7.5,36.8,29.4,59.9c22,23.1,36.4,9.3,58.4,32.3c22,23.1,7.5,36.8,29.4,59.9c22,23.1,36.4,9.3,58.4,32.3
				c22,23.1,7.5,36.8,29.4,59.9c22,23.1,36.4,9.3,58.4,32.3c22,23.1,7.5,36.8,29.4,59.9c22,23.1,36.4,9.3,58.4,32.3
				c22,23.1,7.5,36.8,29.4,59.9c22,23.1,36.4,9.3,58.4,32.3c22,23.1,7.5,36.8,29.4,59.9c22,23.1,36.4,9.3,58.4,32.3
				c22,23.1,7.5,36.8,29.4,59.9c22,23.1,36.4,9.3,58.4,32.3c22,23.1,7.5,36.8,29.4,59.9c22,23.1,36.4,9.3,58.4,32.3
				c22,23.1,7.5,36.8,29.4,59.9c22,23.1,36.4,9.3,58.4,32.3c22,23,7.5,36.8,29.4,59.9c22,23,36.4,9.3,58.4,32.3
				c22,23.1,7.5,36.8,29.4,59.9c22,23.1,36.4,9.3,58.4,32.3c22,23.1,7.5,36.8,29.4,59.9c22,23.1,36.4,9.3,58.4,32.3
				c22,23.1,7.5,36.8,29.4,59.9c22,23.1,36.4,9.3,58.4,32.3c22,23.1,7.5,36.8,29.4,59.9c22,23.1,36.4,9.3,58.4,32.3
				c22,23.1,7.5,36.8,29.4,59.9c22,23.1,36.4,9.3,58.4,32.3c22,23.1,7.5,36.8,29.4,59.9c22,23.1,36.4,9.3,58.4,32.3
				c22,23.1,7.5,36.8,29.4,59.9c22,23.1,36.4,9.3,58.4,32.3c22,23.1,7.5,36.8,29.4,59.9c22,23.1,36.4,9.3,58.4,32.3
				c22,23.1,7.5,36.8,29.4,59.9"/>
		</g>
		<g>
			<path style="fill:none;stroke:#F7931E;stroke-width:10;stroke-linecap:round;stroke-miterlimit:10;" d="M964.7-504
				c22,23.1,7.5,36.8,29.4,59.9c22,23.1,36.4,9.3,58.4,32.3c22,23.1,7.5,36.8,29.4,59.9c22,23.1,36.4,9.3,58.4,32.3
				c22,23.1,7.5,36.8,29.4,59.9c22,23.1,36.4,9.3,58.4,32.3c22,23.1,7.5,36.8,29.4,59.9c22,23.1,36.4,9.3,58.4,32.3
				c22,23.1,7.5,36.8,29.4,59.9c22,23.1,36.4,9.3,58.4,32.3c22,23.1,7.5,36.8,29.4,59.9c22,23.1,36.4,9.3,58.4,32.3
				c22,23.1,7.5,36.8,29.4,59.9c22,23.1,36.4,9.3,58.4,32.3c22,23.1,7.5,36.8,29.4,59.9c22,23.1,36.4,9.3,58.4,32.3
				c22,23.1,7.5,36.8,29.4,59.9c22,23.1,36.4,9.3,58.4,32.3c22,23.1,7.5,36.8,29.4,59.9c22,23.1,36.4,9.3,58.4,32.3
				c22,23.1,7.5,36.8,29.4,59.9c22,23.1,36.4,9.3,58.4,32.3c22,23,7.5,36.8,29.4,59.9c22,23,36.4,9.3,58.4,32.3
				c22,23.1,7.5,36.8,29.4,59.9c22,23.1,36.4,9.3,58.4,32.3c22,23.1,7.5,36.8,29.4,59.9c22,23.1,36.4,9.3,58.4,32.3
				c22,23.1,7.5,36.8,29.4,59.9c22,23.1,36.4,9.3,58.4,32.3c22,23.1,7.5,36.8,29.4,59.9c22,23.1,36.4,9.3,58.4,32.3
				c22,23.1,7.5,36.8,29.4,59.9c22,23.1,36.4,9.3,58.4,32.3c22,23.1,7.5,36.8,29.4,59.9c22,23.1,36.4,9.3,58.4,32.3
				c22,23.1,7.5,36.8,29.4,59.9c22,23.1,36.4,9.3,58.4,32.3c22,23.1,7.5,36.8,29.4,59.9c22,23.1,36.4,9.3,58.4,32.3
				c22,23.1,7.5,36.9,29.4,59.9"/>
		</g>
		<g>
			<path style="fill:none;stroke:#F7931E;stroke-width:10;stroke-linecap:round;stroke-miterlimit:10;" d="M915-479.3
				c22,23.1,7.5,36.8,29.4,59.9c22,23.1,36.4,9.3,58.4,32.3c22,23.1,7.5,36.8,29.4,59.9c22,23.1,36.4,9.3,58.4,32.3
				c22,23.1,7.5,36.8,29.4,59.9c22,23.1,36.4,9.3,58.4,32.3c22,23.1,7.5,36.8,29.4,59.9c22,23.1,36.4,9.3,58.4,32.3
				c22,23.1,7.5,36.8,29.4,59.9c22,23.1,36.4,9.3,58.4,32.3c22,23.1,7.5,36.8,29.4,59.9c22,23.1,36.4,9.3,58.4,32.3
				c22,23.1,7.5,36.8,29.4,59.9c22,23.1,36.4,9.3,58.4,32.3c22,23.1,7.5,36.8,29.4,59.9c22,23.1,36.4,9.3,58.4,32.3
				c22,23.1,7.5,36.8,29.4,59.9c22,23.1,36.4,9.3,58.4,32.3c22,23.1,7.5,36.8,29.4,59.9c22,23.1,36.4,9.3,58.4,32.3
				c22,23.1,7.5,36.8,29.4,59.9c22,23.1,36.4,9.3,58.4,32.3c22,23,7.5,36.8,29.4,59.9c22,23,36.4,9.3,58.4,32.3
				c22,23.1,7.5,36.8,29.4,59.9c22,23.1,36.4,9.3,58.4,32.3c22,23.1,7.5,36.8,29.4,59.9c22,23.1,36.4,9.3,58.4,32.3
				c22,23.1,7.5,36.8,29.4,59.9c22,23.1,36.4,9.3,58.4,32.3c22,23.1,7.5,36.8,29.4,59.9c22,23.1,36.4,9.3,58.4,32.3
				c22,23.1,7.5,36.8,29.4,59.9c22,23.1,36.4,9.3,58.4,32.3c22,23.1,7.5,36.8,29.4,59.9c22,23.1,36.4,9.3,58.4,32.3
				c22,23.1,7.5,36.8,29.4,59.9c22,23.1,36.4,9.3,58.4,32.3c22,23.1,7.5,36.8,29.4,59.9c22,23.1,36.4,9.3,58.4,32.3
				c22,23.1,7.5,36.8,29.4,59.9"/>
		</g>
		<g>
			<path style="fill:none;stroke:#F7931E;stroke-width:10;stroke-linecap:round;stroke-miterlimit:10;" d="M865.4-454.5
				c22,23.1,7.5,36.8,29.4,59.9c22,23.1,36.4,9.3,58.4,32.3c22,23.1,7.5,36.8,29.4,59.9c22,23.1,36.4,9.3,58.4,32.3
				c22,23.1,7.5,36.8,29.4,59.9c22,23.1,36.4,9.3,58.4,32.3c22,23.1,7.5,36.8,29.4,59.9c22,23.1,36.4,9.3,58.4,32.3
				c22,23.1,7.5,36.8,29.4,59.9c22,23.1,36.4,9.3,58.4,32.3c22,23.1,7.5,36.8,29.4,59.9c22,23.1,36.4,9.3,58.4,32.3
				c22,23.1,7.5,36.8,29.4,59.9c22,23.1,36.4,9.3,58.4,32.3c22,23.1,7.5,36.8,29.4,59.9c22,23.1,36.4,9.3,58.4,32.3
				c22,23.1,7.5,36.8,29.4,59.9c22,23.1,36.4,9.3,58.4,32.3c22,23.1,7.5,36.8,29.4,59.9c22,23.1,36.4,9.3,58.4,32.3
				c22,23.1,7.5,36.8,29.4,59.9c22,23.1,36.4,9.3,58.4,32.3c22,23,7.5,36.8,29.4,59.9c22,23,36.4,9.3,58.4,32.3
				c22,23.1,7.5,36.8,29.4,59.9c22,23.1,36.4,9.3,58.4,32.3c22,23.1,7.5,36.8,29.4,59.9c22,23.1,36.4,9.3,58.4,32.3
				c22,23.1,7.5,36.8,29.4,59.9c22,23.1,36.4,9.3,58.4,32.3c22,23.1,7.5,36.8,29.4,59.9c22,23.1,36.4,9.3,58.4,32.3
				c22,23.1,7.5,36.8,29.4,59.9c22,23.1,36.4,9.3,58.4,32.3c22,23.1,7.5,36.8,29.4,59.9c22,23.1,36.4,9.3,58.4,32.3
				c22,23.1,7.5,36.8,29.4,59.9c22,23.1,36.4,9.3,58.4,32.3c22,23.1,7.5,36.8,29.4,59.9c22,23.1,36.4,9.3,58.4,32.3
				c22,23.1,7.5,36.8,29.4,59.9"/>
		</g>
		<g>
			<path style="fill:none;stroke:#F7931E;stroke-width:10;stroke-linecap:round;stroke-miterlimit:10;" d="M815.7-429.8
				c22,23.1,7.5,36.8,29.4,59.9c22,23.1,36.4,9.3,58.4,32.3c22,23.1,7.5,36.8,29.4,59.9c22,23.1,36.4,9.3,58.4,32.3
				c22,23.1,7.5,36.8,29.4,59.9c22,23.1,36.4,9.3,58.4,32.3c22,23.1,7.5,36.8,29.4,59.9c22,23.1,36.4,9.3,58.4,32.3
				c22,23.1,7.5,36.8,29.4,59.9c22,23.1,36.4,9.3,58.4,32.3c22,23.1,7.5,36.8,29.4,59.9c22,23.1,36.4,9.3,58.4,32.3
				c22,23.1,7.5,36.8,29.4,59.9c22,23.1,36.4,9.3,58.4,32.3c22,23.1,7.5,36.8,29.4,59.9c22,23.1,36.4,9.3,58.4,32.3
				c22,23.1,7.5,36.8,29.4,59.9c22,23.1,36.4,9.3,58.4,32.3c22,23.1,7.5,36.8,29.4,59.9c22,23.1,36.4,9.3,58.4,32.3
				c22,23.1,7.5,36.8,29.4,59.9c22,23.1,36.4,9.3,58.4,32.3c22,23,7.5,36.8,29.4,59.9c22,23,36.4,9.3,58.4,32.3
				c22,23.1,7.5,36.8,29.4,59.9c22,23.1,36.4,9.3,58.4,32.3c22,23.1,7.5,36.8,29.4,59.9c22,23.1,36.4,9.3,58.4,32.3
				c22,23.1,7.5,36.8,29.4,59.9c22,23.1,36.4,9.3,58.4,32.3c22,23.1,7.5,36.8,29.4,59.9c22,23.1,36.4,9.3,58.4,32.3
				c22,23.1,7.5,36.8,29.4,59.9c22,23.1,36.4,9.3,58.4,32.3c22,23.1,7.5,36.8,29.4,59.9c22,23.1,36.4,9.3,58.4,32.3
				c22,23.1,7.5,36.8,29.4,59.9c22,23.1,36.4,9.3,58.4,32.3c22,23.1,7.5,36.8,29.4,59.9c22,23.1,36.4,9.3,58.4,32.3
				c22,23.1,7.5,36.8,29.4,59.9"/>
		</g>
		<g>
			<path style="fill:none;stroke:#F7931E;stroke-width:10;stroke-linecap:round;stroke-miterlimit:10;" d="M766-405.1
				c22,23.1,7.5,36.8,29.4,59.9c22,23.1,36.4,9.3,58.4,32.3c22,23.1,7.5,36.8,29.4,59.9c22,23.1,36.4,9.3,58.4,32.3
				c22,23.1,7.5,36.8,29.4,59.9c22,23.1,36.4,9.3,58.4,32.3c22,23.1,7.5,36.8,29.4,59.9c22,23.1,36.4,9.3,58.4,32.3
				c22,23.1,7.5,36.8,29.4,59.9c22,23.1,36.4,9.3,58.4,32.3c22,23.1,7.5,36.8,29.4,59.9c22,23.1,36.4,9.3,58.4,32.3
				c22,23.1,7.5,36.8,29.4,59.9c22,23.1,36.4,9.3,58.4,32.3c22,23.1,7.5,36.8,29.4,59.9c22,23.1,36.4,9.3,58.4,32.3
				c22,23.1,7.5,36.8,29.4,59.9c22,23.1,36.4,9.3,58.4,32.3c22,23.1,7.5,36.8,29.4,59.9c22,23.1,36.4,9.3,58.4,32.3
				c22,23.1,7.5,36.8,29.4,59.9c22,23.1,36.4,9.3,58.4,32.3c22,23,7.5,36.8,29.4,59.9c22,23,36.4,9.3,58.4,32.3
				c22,23.1,7.5,36.8,29.4,59.9c22,23.1,36.4,9.3,58.4,32.3c22,23.1,7.5,36.8,29.4,59.9c22,23.1,36.4,9.3,58.4,32.3
				c22,23.1,7.5,36.8,29.4,59.9c22,23.1,36.4,9.3,58.4,32.3c22,23.1,7.5,36.8,29.4,59.9c22,23.1,36.4,9.3,58.4,32.3
				c22,23.1,7.5,36.8,29.4,59.9c22,23.1,36.4,9.3,58.4,32.3c22,23.1,7.5,36.8,29.4,59.9c22,23.1,36.4,9.3,58.4,32.3
				c22,23.1,7.5,36.8,29.4,59.9c22,23.1,36.4,9.3,58.4,32.3c22,23.1,7.5,36.8,29.4,59.9c22,23.1,36.4,9.3,58.4,32.3
				c22,23.1,7.5,36.8,29.4,59.9"/>
		</g>
		<g>
			<path style="fill:none;stroke:#F7931E;stroke-width:10;stroke-linecap:round;stroke-miterlimit:10;" d="M716.3-380.4
				c22,23.1,7.5,36.8,29.4,59.9c22,23.1,36.4,9.3,58.4,32.3c22,23.1,7.5,36.8,29.4,59.9c22,23.1,36.4,9.3,58.4,32.3
				c22,23.1,7.5,36.8,29.4,59.9c22,23.1,36.4,9.3,58.4,32.3c22,23.1,7.5,36.8,29.4,59.9c22,23.1,36.4,9.3,58.4,32.3
				c22,23.1,7.5,36.8,29.4,59.9c22,23.1,36.4,9.3,58.4,32.3c22,23.1,7.5,36.8,29.4,59.9c22,23.1,36.4,9.3,58.4,32.3
				c22,23.1,7.5,36.8,29.4,59.9c22,23.1,36.4,9.3,58.4,32.3c22,23.1,7.5,36.8,29.4,59.9c22,23.1,36.4,9.3,58.4,32.3
				c22,23.1,7.5,36.8,29.4,59.9c22,23.1,36.4,9.3,58.4,32.3c22,23.1,7.5,36.8,29.4,59.9c22,23.1,36.4,9.3,58.4,32.3
				c22,23.1,7.5,36.8,29.4,59.9c22,23.1,36.4,9.3,58.4,32.3c22,23,7.5,36.8,29.4,59.9c22,23,36.4,9.3,58.4,32.3
				c22,23.1,7.5,36.8,29.4,59.9c22,23.1,36.4,9.3,58.4,32.3c22,23.1,7.5,36.8,29.4,59.9c22,23.1,36.4,9.3,58.4,32.3
				c22,23.1,7.5,36.8,29.4,59.9c22,23.1,36.4,9.3,58.4,32.3c22,23.1,7.5,36.8,29.4,59.9c22,23.1,36.4,9.3,58.4,32.3
				c22,23.1,7.5,36.8,29.4,59.9c22,23.1,36.4,9.3,58.4,32.3c22,23.1,7.5,36.8,29.4,59.9c22,23.1,36.4,9.3,58.4,32.3
				c22,23.1,7.5,36.8,29.4,59.9c22,23.1,36.4,9.3,58.4,32.3c22,23.1,7.5,36.8,29.4,59.9c22,23.1,36.4,9.3,58.4,32.3
				c22,23.1,7.5,36.9,29.4,59.9"/>
		</g>
		<g>
			<path style="fill:none;stroke:#F7931E;stroke-width:10;stroke-linecap:round;stroke-miterlimit:10;" d="M666.7-355.6
				c22,23.1,7.5,36.8,29.4,59.9c22,23.1,36.4,9.3,58.4,32.3c22,23.1,7.5,36.8,29.4,59.9c22,23.1,36.4,9.3,58.4,32.3
				c22,23.1,7.5,36.8,29.4,59.9c22,23.1,36.4,9.3,58.4,32.3c22,23.1,7.5,36.8,29.4,59.9c22,23.1,36.4,9.3,58.4,32.3
				c22,23.1,7.5,36.8,29.4,59.9c22,23.1,36.4,9.3,58.4,32.3c22,23.1,7.5,36.8,29.4,59.9c22,23.1,36.4,9.3,58.4,32.3
				c22,23.1,7.5,36.8,29.4,59.9c22,23.1,36.4,9.3,58.4,32.3c22,23.1,7.5,36.8,29.4,59.9c22,23.1,36.4,9.3,58.4,32.3
				c22,23.1,7.5,36.8,29.4,59.9c22,23.1,36.4,9.3,58.4,32.3c22,23.1,7.5,36.8,29.4,59.9c22,23.1,36.4,9.3,58.4,32.3
				c22,23.1,7.5,36.8,29.4,59.9c22,23.1,36.4,9.3,58.4,32.3c22,23,7.5,36.8,29.4,59.9c22,23.1,36.4,9.3,58.4,32.3
				c22,23.1,7.5,36.8,29.4,59.9c22,23.1,36.4,9.3,58.4,32.3c22,23.1,7.5,36.8,29.4,59.9c22,23.1,36.4,9.3,58.4,32.3
				c22,23.1,7.5,36.8,29.4,59.9c22,23.1,36.4,9.3,58.4,32.3c22,23.1,7.5,36.8,29.4,59.9c22,23.1,36.4,9.3,58.4,32.3
				c22,23.1,7.5,36.8,29.4,59.9c22,23.1,36.4,9.3,58.4,32.3c22,23.1,7.5,36.8,29.4,59.9c22,23.1,36.4,9.3,58.4,32.3
				c22,23.1,7.5,36.8,29.4,59.9c22,23.1,36.4,9.3,58.4,32.3c22,23.1,7.5,36.8,29.4,59.9c22,23.1,36.4,9.3,58.4,32.3
				c22,23.1,7.5,36.8,29.4,59.9"/>
		</g>
		<g>
			<path style="fill:none;stroke:#F7931E;stroke-width:10;stroke-linecap:round;stroke-miterlimit:10;" d="M617-330.9
				c22,23.1,7.5,36.8,29.4,59.9c22,23.1,36.4,9.3,58.4,32.3c22,23.1,7.5,36.8,29.4,59.9c22,23.1,36.4,9.3,58.4,32.3
				c22,23.1,7.5,36.8,29.4,59.9c22,23.1,36.4,9.3,58.4,32.3c22,23.1,7.5,36.8,29.4,59.9c22,23.1,36.4,9.3,58.4,32.3
				c22,23.1,7.5,36.8,29.4,59.9c22,23.1,36.4,9.3,58.4,32.3c22,23.1,7.5,36.8,29.4,59.9c22,23.1,36.4,9.3,58.4,32.3
				c22,23.1,7.5,36.8,29.4,59.9c22,23.1,36.4,9.3,58.4,32.3c22,23.1,7.5,36.8,29.4,59.9c22,23.1,36.4,9.3,58.4,32.3
				c22,23.1,7.5,36.8,29.4,59.9c22,23.1,36.4,9.3,58.4,32.3c22,23.1,7.5,36.8,29.4,59.9c22,23.1,36.4,9.3,58.4,32.3
				c22,23.1,7.5,36.8,29.4,59.9c22,23.1,36.4,9.3,58.4,32.3c22,23,7.5,36.8,29.4,59.9c22,23,36.4,9.3,58.4,32.3
				c22,23.1,7.5,36.8,29.4,59.9c22,23.1,36.4,9.3,58.4,32.3c22,23.1,7.5,36.8,29.4,59.9c22,23.1,36.4,9.3,58.4,32.3
				c22,23.1,7.5,36.8,29.4,59.9c22,23.1,36.4,9.3,58.4,32.3c22,23.1,7.5,36.8,29.4,59.9c22,23.1,36.4,9.3,58.4,32.3
				c22,23.1,7.5,36.8,29.4,59.9c22,23.1,36.4,9.3,58.4,32.3c22,23.1,7.5,36.8,29.4,59.9c22,23.1,36.4,9.3,58.4,32.3
				c22,23.1,7.5,36.8,29.4,59.9c22,23.1,36.4,9.3,58.4,32.3c22,23.1,7.5,36.8,29.4,59.9c22,23.1,36.4,9.3,58.4,32.3
				c22,23.1,7.5,36.9,29.4,59.9"/>
		</g>
		<g>
			<path style="fill:none;stroke:#F7931E;stroke-width:10;stroke-linecap:round;stroke-miterlimit:10;" d="M567.3-306.2
				c22,23.1,7.5,36.8,29.4,59.9c22,23.1,36.4,9.3,58.4,32.3c22,23.1,7.5,36.8,29.4,59.9c22,23.1,36.4,9.3,58.4,32.3
				c22,23.1,7.5,36.8,29.4,59.9c22,23.1,36.4,9.3,58.4,32.3c22,23.1,7.5,36.8,29.4,59.9c22,23.1,36.4,9.3,58.4,32.3
				c22,23.1,7.5,36.8,29.4,59.9c22,23.1,36.4,9.3,58.4,32.3c22,23.1,7.5,36.8,29.4,59.9c22,23.1,36.4,9.3,58.4,32.3
				c22,23.1,7.5,36.8,29.4,59.9c22,23.1,36.4,9.3,58.4,32.3c22,23.1,7.5,36.8,29.4,59.9c22,23.1,36.4,9.3,58.4,32.3
				c22,23.1,7.5,36.8,29.4,59.9c22,23.1,36.4,9.3,58.4,32.3c22,23.1,7.5,36.8,29.4,59.9c22,23.1,36.4,9.3,58.4,32.3
				c22,23.1,7.5,36.8,29.4,59.9c22,23.1,36.4,9.3,58.4,32.3c22,23,7.5,36.8,29.4,59.9c22,23,36.4,9.3,58.4,32.3
				c22,23.1,7.5,36.8,29.4,59.9c22,23.1,36.4,9.3,58.4,32.3c22,23.1,7.5,36.8,29.4,59.9c22,23.1,36.4,9.3,58.4,32.3
				c22,23.1,7.5,36.8,29.4,59.9c22,23.1,36.4,9.3,58.4,32.3c22,23.1,7.5,36.8,29.4,59.9c22,23.1,36.4,9.3,58.4,32.3
				c22,23.1,7.5,36.8,29.4,59.9c22,23.1,36.4,9.3,58.4,32.3c22,23.1,7.5,36.8,29.4,59.9c22,23.1,36.4,9.3,58.4,32.3
				c22,23.1,7.5,36.8,29.4,59.9c22,23.1,36.4,9.3,58.4,32.3c22,23.1,7.5,36.8,29.4,59.9c22,23.1,36.4,9.3,58.4,32.3
				c22,23.1,7.5,36.8,29.4,59.9"/>
		</g>
		<g>
			<path style="fill:none;stroke:#F7931E;stroke-width:10;stroke-linecap:round;stroke-miterlimit:10;" d="M517.7-281.5
				c22,23.1,7.5,36.8,29.4,59.9c22,23.1,36.4,9.3,58.4,32.3c22,23.1,7.5,36.8,29.4,59.9c22,23.1,36.4,9.3,58.4,32.3
				c22,23.1,7.5,36.8,29.4,59.9c22,23.1,36.4,9.3,58.4,32.3c22,23.1,7.5,36.8,29.4,59.9c22,23.1,36.4,9.3,58.4,32.3
				c22,23.1,7.5,36.8,29.4,59.9c22,23.1,36.4,9.3,58.4,32.3c22,23.1,7.5,36.8,29.4,59.9c22,23.1,36.4,9.3,58.4,32.3
				c22,23.1,7.5,36.8,29.4,59.9c22,23.1,36.4,9.3,58.4,32.3c22,23.1,7.5,36.8,29.4,59.9c22,23.1,36.4,9.3,58.4,32.3
				c22,23.1,7.5,36.8,29.4,59.9c22,23.1,36.4,9.3,58.4,32.3c22,23.1,7.5,36.8,29.4,59.9c22,23.1,36.4,9.3,58.4,32.3
				c22,23.1,7.5,36.8,29.4,59.9c22,23.1,36.4,9.3,58.4,32.3c22,23,7.5,36.8,29.4,59.9c22,23,36.4,9.3,58.4,32.3
				c22,23.1,7.5,36.8,29.4,59.9c22,23.1,36.4,9.3,58.4,32.3c22,23.1,7.5,36.8,29.4,59.9c22,23.1,36.4,9.3,58.4,32.3
				c22,23.1,7.5,36.8,29.4,59.9c22,23.1,36.4,9.3,58.4,32.3c22,23.1,7.5,36.8,29.4,59.9c22,23.1,36.4,9.3,58.4,32.3
				c22,23.1,7.5,36.8,29.4,59.9c22,23.1,36.4,9.3,58.4,32.3c22,23.1,7.5,36.8,29.4,59.9c22,23.1,36.4,9.3,58.4,32.3
				c22,23.1,7.5,36.8,29.4,59.9c22,23.1,36.4,9.3,58.4,32.3c22,23.1,7.5,36.8,29.4,59.9c22,23.1,36.4,9.3,58.4,32.3
				c22,23.1,7.5,36.8,29.4,59.9"/>
		</g>
		<g>
			<path style="fill:none;stroke:#F7931E;stroke-width:10;stroke-linecap:round;stroke-miterlimit:10;" d="M468-256.7
				c22,23.1,7.5,36.8,29.4,59.9c22,23.1,36.4,9.3,58.4,32.3c22,23.1,7.5,36.8,29.4,59.9c22,23.1,36.4,9.3,58.4,32.3
				c22,23.1,7.5,36.8,29.4,59.9c22,23.1,36.4,9.3,58.4,32.3c22,23.1,7.5,36.8,29.4,59.9c22,23.1,36.4,9.3,58.4,32.3
				c22,23.1,7.5,36.8,29.4,59.9c22,23.1,36.4,9.3,58.4,32.3c22,23.1,7.5,36.8,29.4,59.9c22,23.1,36.4,9.3,58.4,32.3
				c22,23.1,7.5,36.8,29.4,59.9c22,23.1,36.4,9.3,58.4,32.3c22,23.1,7.5,36.8,29.4,59.9c22,23.1,36.4,9.3,58.4,32.3
				c22,23.1,7.5,36.8,29.4,59.9c22,23.1,36.4,9.3,58.4,32.3c22,23.1,7.5,36.8,29.4,59.9c22,23.1,36.4,9.3,58.4,32.3
				c22,23.1,7.5,36.8,29.4,59.9c22,23.1,36.4,9.3,58.4,32.3c22,23,7.5,36.8,29.4,59.9c22,23,36.4,9.3,58.4,32.3
				c22,23.1,7.5,36.8,29.4,59.9c22,23.1,36.4,9.3,58.4,32.3c22,23.1,7.5,36.8,29.4,59.9c22,23.1,36.4,9.3,58.4,32.3
				c22,23.1,7.5,36.8,29.4,59.9c22,23.1,36.4,9.3,58.4,32.3c22,23.1,7.5,36.8,29.4,59.9c22,23.1,36.4,9.3,58.4,32.3
				c22,23.1,7.5,36.8,29.4,59.9c22,23.1,36.4,9.3,58.4,32.3c22,23.1,7.5,36.8,29.4,59.9c22,23.1,36.4,9.3,58.4,32.3
				c22,23.1,7.5,36.8,29.4,59.9c22,23.1,36.4,9.3,58.4,32.3c22,23.1,7.5,36.8,29.4,59.9c22,23.1,36.4,9.3,58.4,32.3
				c22,23.1,7.5,36.8,29.4,59.9"/>
		</g>
		<g>
			<path style="fill:none;stroke:#F7931E;stroke-width:10;stroke-linecap:round;stroke-miterlimit:10;" d="M418.3-232
				c22,23.1,7.5,36.8,29.4,59.9c22,23.1,36.4,9.3,58.4,32.3c22,23.1,7.5,36.8,29.4,59.9c22,23.1,36.4,9.3,58.4,32.3
				c22,23.1,7.5,36.8,29.4,59.9c22,23.1,36.4,9.3,58.4,32.3c22,23.1,7.5,36.8,29.4,59.9c22,23.1,36.4,9.3,58.4,32.3
				c22,23.1,7.5,36.8,29.4,59.9c22,23.1,36.4,9.3,58.4,32.3c22,23.1,7.5,36.8,29.4,59.9c22,23.1,36.4,9.3,58.4,32.3
				c22,23.1,7.5,36.8,29.4,59.9c22,23.1,36.4,9.3,58.4,32.3c22,23.1,7.5,36.8,29.4,59.9c22,23.1,36.4,9.3,58.4,32.3
				c22,23.1,7.5,36.8,29.4,59.9c22,23.1,36.4,9.3,58.4,32.3c22,23.1,7.5,36.8,29.4,59.9c22,23.1,36.4,9.3,58.4,32.3
				c22,23.1,7.5,36.8,29.4,59.9c22,23.1,36.4,9.3,58.4,32.3c22,23,7.5,36.8,29.4,59.9c22,23,36.4,9.3,58.4,32.3
				c22,23.1,7.5,36.8,29.4,59.9c22,23.1,36.4,9.3,58.4,32.3c22,23.1,7.5,36.8,29.4,59.9c22,23.1,36.4,9.3,58.4,32.3
				c22,23.1,7.5,36.8,29.4,59.9c22,23.1,36.4,9.3,58.4,32.3c22,23.1,7.5,36.8,29.4,59.9c22,23.1,36.4,9.3,58.4,32.3
				c22,23.1,7.5,36.8,29.4,59.9c22,23.1,36.4,9.3,58.4,32.3c22,23.1,7.5,36.8,29.4,59.9c22,23.1,36.4,9.3,58.4,32.3
				c22,23.1,7.5,36.8,29.4,59.9c22,23.1,36.4,9.3,58.4,32.3c22,23.1,7.5,36.8,29.4,59.9c22,23.1,36.4,9.3,58.4,32.3
				c22,23.1,7.5,36.8,29.4,59.9"/>
		</g>
		<g>
			<path style="fill:none;stroke:#F7931E;stroke-width:10;stroke-linecap:round;stroke-miterlimit:10;" d="M368.7-207.3
				c22,23.1,7.5,36.8,29.4,59.9c22,23.1,36.4,9.3,58.4,32.3c22,23.1,7.5,36.8,29.4,59.9c22,23.1,36.4,9.3,58.4,32.3
				c22,23.1,7.5,36.8,29.4,59.9c22,23.1,36.4,9.3,58.4,32.3c22,23.1,7.5,36.8,29.4,59.9c22,23.1,36.4,9.3,58.4,32.3
				c22,23.1,7.5,36.8,29.4,59.9c22,23.1,36.4,9.3,58.4,32.3c22,23.1,7.5,36.8,29.4,59.9c22,23.1,36.4,9.3,58.4,32.3
				s7.5,36.8,29.4,59.9c22,23.1,36.4,9.3,58.4,32.3c22,23.1,7.5,36.8,29.4,59.9c22,23.1,36.4,9.3,58.4,32.3
				c22,23.1,7.5,36.8,29.4,59.9c22,23.1,36.4,9.3,58.4,32.3c22,23.1,7.5,36.8,29.4,59.9c22,23.1,36.4,9.3,58.4,32.3
				c22,23.1,7.5,36.8,29.4,59.9c22,23.1,36.4,9.3,58.4,32.3c22,23,7.5,36.8,29.4,59.9c22,23,36.4,9.3,58.4,32.3
				c22,23.1,7.5,36.8,29.4,59.9c22,23.1,36.4,9.3,58.4,32.3c22,23.1,7.5,36.8,29.4,59.9c22,23.1,36.4,9.3,58.4,32.3
				c22,23.1,7.5,36.8,29.4,59.9c22,23.1,36.4,9.3,58.4,32.3c22,23.1,7.5,36.8,29.4,59.9c22,23.1,36.4,9.3,58.4,32.3
				c22,23.1,7.5,36.8,29.4,59.9c22,23.1,36.4,9.3,58.4,32.3c22,23.1,7.5,36.8,29.4,59.9c22,23.1,36.4,9.3,58.4,32.3
				c22,23.1,7.5,36.8,29.4,59.9c22,23.1,36.4,9.3,58.4,32.3c22,23.1,7.5,36.8,29.4,59.9c22,23.1,36.4,9.3,58.4,32.3
				c22,23.1,7.5,36.9,29.4,59.9"/>
		</g>
		<g>
			<path style="fill:none;stroke:#F7931E;stroke-width:10;stroke-linecap:round;stroke-miterlimit:10;" d="M319-182.6
				c22,23.1,7.5,36.8,29.4,59.9c22,23.1,36.4,9.3,58.4,32.3c22,23.1,7.5,36.8,29.4,59.9c22,23.1,36.4,9.3,58.4,32.3
				c22,23.1,7.5,36.8,29.4,59.9c22,23.1,36.4,9.3,58.4,32.3c22,23.1,7.5,36.8,29.4,59.9c22,23.1,36.4,9.3,58.4,32.3
				c22,23.1,7.5,36.8,29.4,59.9c22,23.1,36.4,9.3,58.4,32.3c22,23.1,7.5,36.8,29.4,59.9c22,23.1,36.4,9.3,58.4,32.3
				c22,23.1,7.5,36.8,29.4,59.9c22,23.1,36.4,9.3,58.4,32.3c22,23.1,7.5,36.8,29.4,59.9c22,23.1,36.4,9.3,58.4,32.3
				c22,23.1,7.5,36.8,29.4,59.9c22,23.1,36.4,9.3,58.4,32.3c22,23.1,7.5,36.8,29.4,59.9c22,23.1,36.4,9.3,58.4,32.3
				c22,23.1,7.5,36.8,29.4,59.9c22,23.1,36.4,9.3,58.4,32.3c22,23,7.5,36.8,29.4,59.9c22,23,36.4,9.3,58.4,32.3
				c22,23.1,7.5,36.8,29.4,59.9c22,23.1,36.4,9.3,58.4,32.3c22,23.1,7.5,36.8,29.4,59.9c22,23.1,36.4,9.3,58.4,32.3
				c22,23.1,7.5,36.8,29.4,59.9c22,23.1,36.4,9.3,58.4,32.3c22,23.1,7.5,36.8,29.4,59.9c22,23.1,36.4,9.3,58.4,32.3
				c22,23.1,7.5,36.8,29.4,59.9c22,23.1,36.4,9.3,58.4,32.3c22,23.1,7.5,36.8,29.4,59.9c22,23.1,36.4,9.3,58.4,32.3
				c22,23.1,7.5,36.8,29.4,59.9c22,23.1,36.4,9.3,58.4,32.3c22,23.1,7.5,36.8,29.4,59.9c22,23.1,36.4,9.3,58.4,32.3
				c22,23.1,7.5,36.8,29.4,59.9"/>
		</g>
		<g>
			<path style="fill:none;stroke:#F7931E;stroke-width:10;stroke-linecap:round;stroke-miterlimit:10;" d="M269.3-157.8
				c22,23.1,7.5,36.8,29.4,59.9c22,23.1,36.4,9.3,58.4,32.3c22,23.1,7.5,36.8,29.4,59.9c22,23.1,36.4,9.3,58.4,32.3
				c22,23.1,7.5,36.8,29.4,59.9c22,23.1,36.4,9.3,58.4,32.3c22,23.1,7.5,36.8,29.4,59.9c22,23.1,36.4,9.3,58.4,32.3
				c22,23.1,7.5,36.8,29.4,59.9c22,23.1,36.4,9.3,58.4,32.3c22,23.1,7.5,36.8,29.4,59.9c22,23.1,36.4,9.3,58.4,32.3
				c22,23.1,7.5,36.8,29.4,59.9c22,23.1,36.4,9.3,58.4,32.3c22,23.1,7.5,36.8,29.4,59.9c22,23.1,36.4,9.3,58.4,32.3
				c22,23.1,7.5,36.8,29.4,59.9c22,23.1,36.4,9.3,58.4,32.3c22,23.1,7.5,36.8,29.4,59.9c22,23.1,36.4,9.3,58.4,32.3
				c22,23.1,7.5,36.8,29.4,59.9c22,23.1,36.4,9.3,58.4,32.3c22,23,7.5,36.8,29.4,59.9c22,23,36.4,9.3,58.4,32.3
				c22,23.1,7.5,36.8,29.4,59.9c22,23.1,36.4,9.3,58.4,32.3c22,23.1,7.5,36.8,29.4,59.9c22,23.1,36.4,9.3,58.4,32.3
				c22,23.1,7.5,36.8,29.4,59.9c22,23.1,36.4,9.3,58.4,32.3c22,23.1,7.5,36.8,29.4,59.9c22,23.1,36.4,9.3,58.4,32.3
				c22,23.1,7.5,36.8,29.4,59.9c22,23.1,36.4,9.3,58.4,32.3c22,23.1,7.5,36.8,29.4,59.9c22,23.1,36.4,9.3,58.4,32.3
				c22,23.1,7.5,36.8,29.4,59.9c22,23.1,36.4,9.3,58.4,32.3c22,23.1,7.5,36.8,29.4,59.9c22,23.1,36.4,9.3,58.4,32.3
				c22,23.1,7.5,36.8,29.4,59.9"/>
		</g>
		<g>
			<path style="fill:none;stroke:#F7931E;stroke-width:10;stroke-linecap:round;stroke-miterlimit:10;" d="M219.6-133.1
				c22,23.1,7.5,36.8,29.4,59.9c22,23.1,36.4,9.3,58.4,32.3c22,23.1,7.5,36.8,29.4,59.9c22,23.1,36.4,9.3,58.4,32.3
				c22,23.1,7.5,36.8,29.4,59.9c22,23.1,36.4,9.3,58.4,32.3c22,23.1,7.5,36.8,29.4,59.9c22,23.1,36.4,9.3,58.4,32.3
				c22,23.1,7.5,36.8,29.4,59.9c22,23.1,36.4,9.3,58.4,32.3c22,23.1,7.5,36.8,29.4,59.9c22,23.1,36.4,9.3,58.4,32.3
				c22,23.1,7.5,36.8,29.4,59.9c22,23.1,36.4,9.3,58.4,32.3c22,23.1,7.5,36.8,29.4,59.9c22,23.1,36.4,9.3,58.4,32.3
				c22,23.1,7.5,36.8,29.4,59.9c22,23.1,36.4,9.3,58.4,32.3c22,23.1,7.5,36.8,29.4,59.9c22,23.1,36.4,9.3,58.4,32.3
				c22,23.1,7.5,36.8,29.4,59.9c22,23.1,36.4,9.3,58.4,32.3c22,23,7.5,36.8,29.4,59.9c22,23,36.4,9.3,58.4,32.3
				c22,23.1,7.5,36.8,29.4,59.9c22,23.1,36.4,9.3,58.4,32.3c22,23.1,7.5,36.8,29.4,59.9c22,23.1,36.4,9.3,58.4,32.3
				c22,23.1,7.5,36.8,29.4,59.9c22,23.1,36.4,9.3,58.4,32.3c22,23.1,7.5,36.8,29.4,59.9c22,23.1,36.4,9.3,58.4,32.3
				c22,23.1,7.5,36.8,29.4,59.9c22,23.1,36.4,9.3,58.4,32.3c22,23.1,7.5,36.8,29.4,59.9c22,23.1,36.4,9.3,58.4,32.3
				c22,23.1,7.5,36.8,29.4,59.9c22,23.1,36.4,9.3,58.4,32.3c22,23.1,7.5,36.8,29.4,59.9c22,23.1,36.4,9.3,58.4,32.3
				s7.5,36.8,29.4,59.9"/>
		</g>
		<g>
			<path style="fill:none;stroke:#F7931E;stroke-width:10;stroke-linecap:round;stroke-miterlimit:10;" d="M170-108.4
				c22,23.1,7.5,36.8,29.4,59.9c22,23.1,36.4,9.3,58.4,32.3c22,23.1,7.5,36.8,29.4,59.9c22,23.1,36.4,9.3,58.4,32.3
				c22,23.1,7.5,36.8,29.4,59.9c22,23.1,36.4,9.3,58.4,32.3c22,23.1,7.5,36.8,29.4,59.9c22,23.1,36.4,9.3,58.4,32.3
				c22,23.1,7.5,36.8,29.4,59.9c22,23.1,36.4,9.3,58.4,32.3c22,23.1,7.5,36.8,29.4,59.9c22,23.1,36.4,9.3,58.4,32.3
				c22,23.1,7.5,36.8,29.4,59.9c22,23.1,36.4,9.3,58.4,32.3c22,23.1,7.5,36.8,29.4,59.9c22,23.1,36.4,9.3,58.4,32.3
				c22,23.1,7.5,36.8,29.4,59.9c22,23.1,36.4,9.3,58.4,32.3c22,23.1,7.5,36.8,29.4,59.9c22,23.1,36.4,9.3,58.4,32.3
				c22,23.1,7.5,36.8,29.4,59.9c22,23.1,36.4,9.3,58.4,32.3c22,23,7.5,36.8,29.4,59.9c22,23,36.4,9.3,58.4,32.3
				c22,23.1,7.5,36.8,29.4,59.9c22,23.1,36.4,9.3,58.4,32.3c22,23.1,7.5,36.8,29.4,59.9c22,23.1,36.4,9.3,58.4,32.3
				c22,23.1,7.5,36.8,29.4,59.9c22,23.1,36.4,9.3,58.4,32.3c22,23.1,7.5,36.8,29.4,59.9c22,23.1,36.4,9.3,58.4,32.3
				c22,23.1,7.5,36.8,29.4,59.9c22,23.1,36.4,9.3,58.4,32.3c22,23.1,7.5,36.8,29.4,59.9c22,23.1,36.4,9.3,58.4,32.3
				c22,23.1,7.5,36.8,29.4,59.9c22,23.1,36.4,9.3,58.4,32.3c22,23.1,7.5,36.8,29.4,59.9c22,23.1,36.4,9.3,58.4,32.3
				c22,23.1,7.5,36.8,29.4,59.9"/>
		</g>
		<g>
			<path style="fill:none;stroke:#F7931E;stroke-width:10;stroke-linecap:round;stroke-miterlimit:10;" d="M120.3-83.7
				c22,23.1,7.5,36.8,29.4,59.9c22,23.1,36.4,9.3,58.4,32.3c22,23.1,7.5,36.8,29.4,59.9c22,23.1,36.4,9.3,58.4,32.3
				c22,23.1,7.5,36.8,29.4,59.9c22,23.1,36.4,9.3,58.4,32.3c22,23.1,7.5,36.8,29.4,59.9c22,23.1,36.4,9.3,58.4,32.3
				c22,23.1,7.5,36.8,29.4,59.9c22,23.1,36.4,9.3,58.4,32.3c22,23.1,7.5,36.8,29.4,59.9c22,23.1,36.4,9.3,58.4,32.3
				s7.5,36.8,29.4,59.9c22,23.1,36.4,9.3,58.4,32.3c22,23.1,7.5,36.8,29.4,59.9c22,23.1,36.4,9.3,58.4,32.3
				c22,23.1,7.5,36.8,29.4,59.9c22,23.1,36.4,9.3,58.4,32.3c22,23.1,7.5,36.8,29.4,59.9c22,23.1,36.4,9.3,58.4,32.3
				c22,23.1,7.5,36.8,29.4,59.9c22,23.1,36.4,9.3,58.4,32.3c22,23,7.5,36.8,29.4,59.9c22,23.1,36.4,9.3,58.4,32.3
				c22,23.1,7.5,36.8,29.4,59.9c22,23.1,36.4,9.3,58.4,32.3c22,23.1,7.5,36.8,29.4,59.9c22,23.1,36.4,9.3,58.4,32.3
				c22,23.1,7.5,36.8,29.4,59.9c22,23.1,36.4,9.3,58.4,32.3c22,23.1,7.5,36.8,29.4,59.9c22,23.1,36.4,9.3,58.4,32.3
				c22,23.1,7.5,36.8,29.4,59.9c22,23.1,36.4,9.3,58.4,32.3c22,23.1,7.5,36.8,29.4,59.9c22,23.1,36.4,9.3,58.4,32.3
				c22,23.1,7.5,36.8,29.4,59.9c22,23.1,36.4,9.3,58.4,32.3c22,23.1,7.5,36.8,29.4,59.9c22,23.1,36.4,9.3,58.4,32.3
				c22,23.1,7.5,36.9,29.4,59.9"/>
		</g>
		<g>
			<path style="fill:none;stroke:#F7931E;stroke-width:10;stroke-linecap:round;stroke-miterlimit:10;" d="M70.6-58.9
				c22,23.1,7.5,36.8,29.4,59.9c22,23.1,36.4,9.3,58.4,32.3c22,23.1,7.5,36.8,29.4,59.9c22,23.1,36.4,9.3,58.4,32.3
				c22,23.1,7.5,36.8,29.4,59.9c22,23.1,36.4,9.3,58.4,32.3c22,23.1,7.5,36.8,29.4,59.9c22,23.1,36.4,9.3,58.4,32.3
				c22,23.1,7.5,36.8,29.4,59.9c22,23.1,36.4,9.3,58.4,32.3c22,23.1,7.5,36.8,29.4,59.9c22,23.1,36.4,9.3,58.4,32.3
				c22,23.1,7.5,36.8,29.4,59.9c22,23.1,36.4,9.3,58.4,32.3c22,23.1,7.5,36.8,29.4,59.9c22,23.1,36.4,9.3,58.4,32.3
				c22,23.1,7.5,36.8,29.4,59.9c22,23.1,36.4,9.3,58.4,32.3c22,23.1,7.5,36.8,29.4,59.9c22,23.1,36.4,9.3,58.4,32.3
				c22,23.1,7.5,36.8,29.4,59.9c22,23.1,36.4,9.3,58.4,32.3c22,23,7.5,36.8,29.4,59.9c22,23,36.4,9.3,58.4,32.3
				c22,23.1,7.5,36.8,29.4,59.9c22,23.1,36.4,9.3,58.4,32.3c22,23.1,7.5,36.8,29.4,59.9c22,23.1,36.4,9.3,58.4,32.3
				c22,23.1,7.5,36.8,29.4,59.9c22,23.1,36.4,9.3,58.4,32.3c22,23.1,7.5,36.8,29.4,59.9c22,23.1,36.4,9.3,58.4,32.3
				c22,23.1,7.5,36.8,29.4,59.9c22,23.1,36.4,9.3,58.4,32.3c22,23.1,7.5,36.8,29.4,59.9c22,23.1,36.4,9.3,58.4,32.3
				c22,23.1,7.5,36.8,29.4,59.9c22,23.1,36.4,9.3,58.4,32.3c22,23.1,7.5,36.8,29.4,59.9c22,23.1,36.4,9.3,58.4,32.3
				c22,23.1,7.5,36.8,29.4,59.9"/>
		</g>
		<g>
			<path style="fill:none;stroke:#F7931E;stroke-width:10;stroke-linecap:round;stroke-miterlimit:10;" d="M21-34.2
				c22,23.1,7.5,36.8,29.4,59.9c22,23.1,36.4,9.3,58.4,32.3c22,23.1,7.5,36.8,29.4,59.9c22,23.1,36.4,9.3,58.4,32.3
				c22,23.1,7.5,36.8,29.4,59.9c22,23.1,36.4,9.3,58.4,32.3c22,23.1,7.5,36.8,29.4,59.9c22,23.1,36.4,9.3,58.4,32.3
				c22,23.1,7.5,36.8,29.4,59.9c22,23.1,36.4,9.3,58.4,32.3c22,23.1,7.5,36.8,29.4,59.9c22,23.1,36.4,9.3,58.4,32.3
				c22,23.1,7.5,36.8,29.4,59.9c22,23.1,36.4,9.3,58.4,32.3c22,23.1,7.5,36.8,29.4,59.9c22,23.1,36.4,9.3,58.4,32.3
				c22,23.1,7.5,36.8,29.4,59.9c22,23.1,36.4,9.3,58.4,32.3c22,23.1,7.5,36.8,29.4,59.9c22,23.1,36.4,9.3,58.4,32.3
				c22,23.1,7.5,36.8,29.4,59.9c22,23.1,36.4,9.3,58.4,32.3c22,23,7.5,36.8,29.4,59.9c22,23.1,36.4,9.3,58.4,32.3
				c22,23.1,7.5,36.8,29.4,59.9c22,23.1,36.4,9.3,58.4,32.3c22,23.1,7.5,36.8,29.4,59.9c22,23.1,36.4,9.3,58.4,32.3
				c22,23.1,7.5,36.8,29.4,59.9c22,23.1,36.4,9.3,58.4,32.3c22,23.1,7.5,36.8,29.4,59.9c22,23.1,36.4,9.3,58.4,32.3
				c22,23.1,7.5,36.8,29.4,59.9c22,23.1,36.4,9.3,58.4,32.3c22,23.1,7.5,36.8,29.4,59.9c22,23.1,36.4,9.3,58.4,32.3
				c22,23.1,7.5,36.8,29.4,59.9c22,23.1,36.4,9.3,58.4,32.3c22,23.1,7.5,36.8,29.4,59.9c22,23.1,36.4,9.3,58.4,32.3
				c22,23.1,7.5,36.8,29.4,59.9"/>
		</g>
		<g>
			<path style="fill:none;stroke:#F7931E;stroke-width:10;stroke-linecap:round;stroke-miterlimit:10;" d="M-28.7-9.5
				c22,23.1,7.5,36.8,29.4,59.9c22,23.1,36.4,9.3,58.4,32.3c22,23.1,7.5,36.8,29.4,59.9c22,23.1,36.4,9.3,58.4,32.3
				c22,23.1,7.5,36.8,29.4,59.9c22,23.1,36.4,9.3,58.4,32.3c22,23.1,7.5,36.8,29.4,59.9c22,23.1,36.4,9.3,58.4,32.3
				c22,23.1,7.5,36.8,29.4,59.9c22,23.1,36.4,9.3,58.4,32.3c22,23.1,7.5,36.8,29.4,59.9c22,23.1,36.4,9.3,58.4,32.3
				c22,23.1,7.5,36.8,29.4,59.9c22,23.1,36.4,9.3,58.4,32.3c22,23.1,7.5,36.8,29.4,59.9c22,23.1,36.4,9.3,58.4,32.3
				c22,23.1,7.5,36.8,29.4,59.9c22,23.1,36.4,9.3,58.4,32.3c22,23.1,7.5,36.8,29.4,59.9c22,23.1,36.4,9.3,58.4,32.3
				c22,23.1,7.5,36.8,29.4,59.9c22,23.1,36.4,9.3,58.4,32.3c22,23,7.5,36.8,29.4,59.9c22,23.1,36.4,9.3,58.4,32.3
				c22,23.1,7.5,36.8,29.4,59.9c22,23.1,36.4,9.3,58.4,32.3c22,23.1,7.5,36.8,29.4,59.9c22,23.1,36.4,9.3,58.4,32.3
				c22,23.1,7.5,36.8,29.4,59.9c22,23.1,36.4,9.3,58.4,32.3c22,23.1,7.5,36.8,29.4,59.9c22,23.1,36.4,9.3,58.4,32.3
				c22,23.1,7.5,36.8,29.4,59.9c22,23.1,36.4,9.3,58.4,32.3c22,23.1,7.5,36.8,29.4,59.9c22,23.1,36.4,9.3,58.4,32.3
				c22,23.1,7.5,36.8,29.4,59.9c22,23.1,36.4,9.3,58.4,32.3c22,23.1,7.5,36.8,29.4,59.9c22,23.1,36.4,9.3,58.4,32.3
				s7.5,36.8,29.4,59.9"/>
		</g>
		<g>
			<path style="fill:none;stroke:#F7931E;stroke-width:10;stroke-linecap:round;stroke-miterlimit:10;" d="M-78.4,15.2
				c22,23.1,7.5,36.8,29.4,59.9c22,23.1,36.4,9.3,58.4,32.3c22,23.1,7.5,36.8,29.4,59.9c22,23.1,36.4,9.3,58.4,32.3
				c22,23.1,7.5,36.8,29.4,59.9c22,23.1,36.4,9.3,58.4,32.3c22,23.1,7.5,36.8,29.4,59.9c22,23.1,36.4,9.3,58.4,32.3
				c22,23.1,7.5,36.8,29.4,59.9c22,23.1,36.4,9.3,58.4,32.3c22,23.1,7.5,36.8,29.4,59.9c22,23.1,36.4,9.3,58.4,32.3
				c22,23.1,7.5,36.8,29.4,59.9c22,23.1,36.4,9.3,58.4,32.3c22,23.1,7.5,36.8,29.4,59.9c22,23.1,36.4,9.3,58.4,32.3
				c22,23.1,7.5,36.8,29.4,59.9c22,23.1,36.4,9.3,58.4,32.3c22,23.1,7.5,36.8,29.4,59.9c22,23.1,36.4,9.3,58.4,32.3
				c22,23.1,7.5,36.8,29.4,59.9c22,23.1,36.4,9.3,58.4,32.3c22,23,7.5,36.8,29.4,59.9c22,23,36.4,9.3,58.4,32.3
				c22,23.1,7.5,36.8,29.4,59.9c22,23.1,36.4,9.3,58.4,32.3c22,23.1,7.5,36.8,29.4,59.9c22,23.1,36.4,9.3,58.4,32.3
				c22,23.1,7.5,36.8,29.4,59.9c22,23.1,36.4,9.3,58.4,32.3c22,23.1,7.5,36.8,29.4,59.9c22,23.1,36.4,9.3,58.4,32.3
				c22,23.1,7.5,36.8,29.4,59.9c22,23.1,36.4,9.3,58.4,32.3c22,23.1,7.5,36.8,29.4,59.9c22,23.1,36.4,9.3,58.4,32.3
				c22,23.1,7.5,36.8,29.4,59.9c22,23.1,36.4,9.3,58.4,32.3c22,23.1,7.5,36.8,29.4,59.9c22,23.1,36.4,9.3,58.4,32.3
				c22,23.1,7.5,36.8,29.4,59.9"/>
		</g>
		<g>
			<path style="fill:none;stroke:#F7931E;stroke-width:10;stroke-linecap:round;stroke-miterlimit:10;" d="M-128,40
				c22,23.1,7.5,36.8,29.4,59.9c22,23.1,36.4,9.3,58.4,32.3c22,23.1,7.5,36.8,29.4,59.9c22,23.1,36.4,9.3,58.4,32.3
				c22,23.1,7.5,36.8,29.4,59.9c22,23.1,36.4,9.3,58.4,32.3c22,23.1,7.5,36.8,29.4,59.9c22,23.1,36.4,9.3,58.4,32.3
				c22,23.1,7.5,36.8,29.4,59.9c22,23.1,36.4,9.3,58.4,32.3c22,23.1,7.5,36.8,29.4,59.9c22,23.1,36.4,9.3,58.4,32.3
				c22,23.1,7.5,36.8,29.4,59.9c22,23.1,36.4,9.3,58.4,32.3c22,23.1,7.5,36.8,29.4,59.9c22,23.1,36.4,9.3,58.4,32.3
				c22,23.1,7.5,36.8,29.4,59.9c22,23.1,36.4,9.3,58.4,32.3c22,23.1,7.5,36.8,29.4,59.9c22,23.1,36.4,9.3,58.4,32.3
				c22,23.1,7.5,36.8,29.4,59.9c22,23.1,36.4,9.3,58.4,32.3c22,23,7.5,36.8,29.4,59.9c22,23.1,36.4,9.3,58.4,32.3
				c22,23.1,7.5,36.8,29.4,59.9c22,23.1,36.4,9.3,58.4,32.3c22,23.1,7.5,36.8,29.4,59.9c22,23.1,36.4,9.3,58.4,32.3
				c22,23.1,7.5,36.8,29.4,59.9c22,23.1,36.4,9.3,58.4,32.3c22,23.1,7.5,36.8,29.4,59.9c22,23.1,36.4,9.3,58.4,32.3
				c22,23.1,7.5,36.8,29.4,59.9c22,23.1,36.4,9.3,58.4,32.3c22,23.1,7.5,36.8,29.4,59.9c22,23.1,36.4,9.3,58.4,32.3
				c22,23.1,7.5,36.8,29.4,59.9c22,23.1,36.4,9.3,58.4,32.3c22,23.1,7.5,36.8,29.4,59.9c22,23.1,36.4,9.3,58.4,32.3
				c22,23.1,7.5,36.9,29.4,59.9"/>
		</g>
		<g>
			<path style="fill:none;stroke:#F7931E;stroke-width:10;stroke-linecap:round;stroke-miterlimit:10;" d="M-177.7,64.7
				c22,23.1,7.5,36.8,29.4,59.9c22,23.1,36.4,9.3,58.4,32.3c22,23.1,7.5,36.8,29.4,59.9c22,23.1,36.4,9.3,58.4,32.3
				c22,23.1,7.5,36.8,29.4,59.9c22,23.1,36.4,9.3,58.4,32.3c22,23.1,7.5,36.8,29.4,59.9c22,23.1,36.4,9.3,58.4,32.3
				c22,23.1,7.5,36.8,29.4,59.9c22,23.1,36.4,9.3,58.4,32.3c22,23.1,7.5,36.8,29.4,59.9c22,23.1,36.4,9.3,58.4,32.3
				c22,23.1,7.5,36.8,29.4,59.9c22,23.1,36.4,9.3,58.4,32.3c22,23.1,7.5,36.8,29.4,59.9c22,23.1,36.4,9.3,58.4,32.3
				c22,23.1,7.5,36.8,29.4,59.9c22,23.1,36.4,9.3,58.4,32.3c22,23.1,7.5,36.8,29.4,59.9c22,23.1,36.4,9.3,58.4,32.3
				c22,23.1,7.5,36.8,29.4,59.9c22,23.1,36.4,9.3,58.4,32.3c22,23,7.5,36.8,29.4,59.9c22,23,36.4,9.3,58.4,32.3
				c22,23.1,7.5,36.8,29.4,59.9c22,23.1,36.4,9.3,58.4,32.3c22,23.1,7.5,36.8,29.4,59.9c22,23.1,36.4,9.3,58.4,32.3
				c22,23.1,7.5,36.8,29.4,59.9c22,23.1,36.4,9.3,58.4,32.3c22,23.1,7.5,36.8,29.4,59.9c22,23.1,36.4,9.3,58.4,32.3
				c22,23.1,7.5,36.8,29.4,59.9c22,23.1,36.4,9.3,58.4,32.3c22,23.1,7.5,36.8,29.4,59.9c22,23.1,36.4,9.3,58.4,32.3
				c22,23.1,7.5,36.8,29.4,59.9c22,23.1,36.4,9.3,58.4,32.3c22,23.1,7.5,36.8,29.4,59.9c22,23.1,36.4,9.3,58.4,32.3
				c22,23.1,7.5,36.8,29.4,59.9"/>
		</g>
		<g>
			<path style="fill:none;stroke:#F7931E;stroke-width:10;stroke-linecap:round;stroke-miterlimit:10;" d="M-227.4,89.4
				c22,23.1,7.5,36.8,29.4,59.9c22,23.1,36.4,9.3,58.4,32.3c22,23.1,7.5,36.8,29.4,59.9c22,23.1,36.4,9.3,58.4,32.3
				c22,23.1,7.5,36.8,29.4,59.9c22,23.1,36.4,9.3,58.4,32.3c22,23.1,7.5,36.8,29.4,59.9c22,23.1,36.4,9.3,58.4,32.3
				c22,23.1,7.5,36.8,29.4,59.9c22,23.1,36.4,9.3,58.4,32.3c22,23.1,7.5,36.8,29.4,59.9c22,23.1,36.4,9.3,58.4,32.3
				c22,23.1,7.5,36.8,29.4,59.9c22,23.1,36.4,9.3,58.4,32.3c22,23.1,7.5,36.8,29.4,59.9c22,23.1,36.4,9.3,58.4,32.3
				c22,23.1,7.5,36.8,29.4,59.9c22,23.1,36.4,9.3,58.4,32.3c22,23.1,7.5,36.8,29.4,59.9c22,23.1,36.4,9.3,58.4,32.3
				c22,23.1,7.5,36.8,29.4,59.9c22,23.1,36.4,9.3,58.4,32.3c22,23,7.5,36.8,29.4,59.9c22,23.1,36.4,9.3,58.4,32.3
				c22,23.1,7.5,36.8,29.4,59.9c22,23.1,36.4,9.3,58.4,32.3c22,23.1,7.5,36.8,29.4,59.9c22,23.1,36.4,9.3,58.4,32.3
				c22,23.1,7.5,36.8,29.4,59.9c22,23.1,36.4,9.3,58.4,32.3c22,23.1,7.5,36.8,29.4,59.9c22,23.1,36.4,9.3,58.4,32.3
				c22,23.1,7.5,36.8,29.4,59.9c22,23.1,36.4,9.3,58.4,32.3c22,23.1,7.5,36.8,29.4,59.9c22,23.1,36.4,9.3,58.4,32.3
				c22,23.1,7.5,36.8,29.4,59.9c22,23.1,36.4,9.3,58.4,32.3c22,23.1,7.5,36.8,29.4,59.9c22,23.1,36.4,9.3,58.4,32.3
				c22,23.1,7.5,36.9,29.4,59.9"/>
		</g>
		<g>
			<path style="fill:none;stroke:#F7931E;stroke-width:10;stroke-linecap:round;stroke-miterlimit:10;" d="M-277,114.1
				c22,23.1,7.5,36.8,29.4,59.9c22,23.1,36.4,9.3,58.4,32.3c22,23.1,7.5,36.8,29.4,59.9c22,23.1,36.4,9.3,58.4,32.3
				c22,23.1,7.5,36.8,29.4,59.9c22,23.1,36.4,9.3,58.4,32.3c22,23.1,7.5,36.8,29.4,59.9c22,23.1,36.4,9.3,58.4,32.3
				c22,23.1,7.5,36.8,29.4,59.9c22,23.1,36.4,9.3,58.4,32.3c22,23.1,7.5,36.8,29.4,59.9c22,23.1,36.4,9.3,58.4,32.3
				c22,23.1,7.5,36.8,29.4,59.9c22,23.1,36.4,9.3,58.4,32.3c22,23.1,7.5,36.8,29.4,59.9c22,23.1,36.4,9.3,58.4,32.3
				c22,23.1,7.5,36.8,29.4,59.9c22,23.1,36.4,9.3,58.4,32.3c22,23.1,7.5,36.8,29.4,59.9c22,23.1,36.4,9.3,58.4,32.3
				c22,23.1,7.5,36.8,29.4,59.9c22,23.1,36.4,9.3,58.4,32.3c22,23,7.5,36.8,29.4,59.9c22,23,36.4,9.3,58.4,32.3
				c22,23.1,7.5,36.8,29.4,59.9c22,23.1,36.4,9.3,58.4,32.3c22,23.1,7.5,36.8,29.4,59.9c22,23.1,36.4,9.3,58.4,32.3
				c22,23.1,7.5,36.8,29.4,59.9c22,23.1,36.4,9.3,58.4,32.3c22,23.1,7.5,36.8,29.4,59.9c22,23.1,36.4,9.3,58.4,32.3
				c22,23.1,7.5,36.8,29.4,59.9c22,23.1,36.4,9.3,58.4,32.3c22,23.1,7.5,36.8,29.4,59.9c22,23.1,36.4,9.3,58.4,32.3
				c22,23.1,7.5,36.8,29.4,59.9c22,23.1,36.4,9.3,58.4,32.3c22,23.1,7.5,36.8,29.4,59.9c22,23.1,36.4,9.3,58.4,32.3
				s7.5,36.8,29.4,59.9"/>
		</g>
		<g>
			<path style="fill:none;stroke:#F7931E;stroke-width:10;stroke-linecap:round;stroke-miterlimit:10;" d="M-326.7,138.9
				c22,23.1,7.5,36.8,29.4,59.9c22,23.1,36.4,9.3,58.4,32.3c22,23.1,7.5,36.8,29.4,59.9c22,23.1,36.4,9.3,58.4,32.3
				c22,23.1,7.5,36.8,29.4,59.9c22,23.1,36.4,9.3,58.4,32.3c22,23.1,7.5,36.8,29.4,59.9c22,23.1,36.4,9.3,58.4,32.3
				c22,23.1,7.5,36.8,29.4,59.9c22,23.1,36.4,9.3,58.4,32.3c22,23.1,7.5,36.8,29.4,59.9c22,23.1,36.4,9.3,58.4,32.3
				c22,23.1,7.5,36.8,29.4,59.9c22,23.1,36.4,9.3,58.4,32.3c22,23.1,7.5,36.8,29.4,59.9c22,23.1,36.4,9.3,58.4,32.3
				c22,23.1,7.5,36.8,29.4,59.9c22,23.1,36.4,9.3,58.4,32.3c22,23.1,7.5,36.8,29.4,59.9c22,23.1,36.4,9.3,58.4,32.3
				c22,23.1,7.5,36.8,29.4,59.9c22,23.1,36.4,9.3,58.4,32.3c22,23,7.5,36.8,29.4,59.9c22,23,36.4,9.3,58.4,32.3
				c22,23.1,7.5,36.8,29.4,59.9c22,23.1,36.4,9.3,58.4,32.3c22,23.1,7.5,36.8,29.4,59.9c22,23.1,36.4,9.3,58.4,32.3
				c22,23.1,7.5,36.8,29.4,59.9c22,23.1,36.4,9.3,58.4,32.3c22,23.1,7.5,36.8,29.4,59.9c22,23.1,36.4,9.3,58.4,32.3
				c22,23.1,7.5,36.8,29.4,59.9c22,23.1,36.4,9.3,58.4,32.3c22,23.1,7.5,36.8,29.4,59.9c22,23.1,36.4,9.3,58.4,32.3
				c22,23.1,7.5,36.8,29.4,59.9c22,23.1,36.4,9.3,58.4,32.3c22,23.1,7.5,36.8,29.4,59.9c22,23.1,36.4,9.3,58.4,32.3
				c22,23.1,7.5,36.8,29.4,59.9"/>
		</g>
		<g>
			<path style="fill:none;stroke:#F7931E;stroke-width:10;stroke-linecap:round;stroke-miterlimit:10;" d="M-376.4,163.6
				c22,23.1,7.5,36.8,29.4,59.9c22,23.1,36.4,9.3,58.4,32.3c22,23.1,7.5,36.8,29.4,59.9c22,23.1,36.4,9.3,58.4,32.3
				c22,23.1,7.5,36.8,29.4,59.9c22,23.1,36.4,9.3,58.4,32.3c22,23.1,7.5,36.8,29.4,59.9c22,23.1,36.4,9.3,58.4,32.3
				c22,23.1,7.5,36.8,29.4,59.9c22,23.1,36.4,9.3,58.4,32.3c22,23.1,7.5,36.8,29.4,59.9c22,23.1,36.4,9.3,58.4,32.3
				c22,23.1,7.5,36.8,29.4,59.9c22,23.1,36.4,9.3,58.4,32.3c22,23.1,7.5,36.8,29.4,59.9c22,23.1,36.4,9.3,58.4,32.3
				c22,23.1,7.5,36.8,29.4,59.9c22,23.1,36.4,9.3,58.4,32.3c22,23.1,7.5,36.8,29.4,59.9c22,23.1,36.4,9.3,58.4,32.3
				c22,23.1,7.5,36.8,29.4,59.9c22,23.1,36.4,9.3,58.4,32.3c22,23,7.5,36.8,29.4,59.9c22,23.1,36.4,9.3,58.4,32.3
				c22,23.1,7.5,36.8,29.4,59.9c22,23.1,36.4,9.3,58.4,32.3c22,23.1,7.5,36.8,29.4,59.9c22,23.1,36.4,9.3,58.4,32.3
				c22,23.1,7.5,36.8,29.4,59.9c22,23.1,36.4,9.3,58.4,32.3c22,23.1,7.5,36.8,29.4,59.9c22,23.1,36.4,9.3,58.4,32.3
				c22,23.1,7.5,36.8,29.4,59.9c22,23.1,36.4,9.3,58.4,32.3c22,23.1,7.5,36.8,29.4,59.9c22,23.1,36.4,9.3,58.4,32.3
				c22,23.1,7.5,36.8,29.4,59.9c22,23.1,36.4,9.3,58.4,32.3c22,23.1,7.5,36.8,29.4,59.9c22,23.1,36.4,9.3,58.4,32.3
				c22,23.1,7.5,36.9,29.4,59.9"/>
		</g>
		<g>
			<path style="fill:none;stroke:#F7931E;stroke-width:10;stroke-linecap:round;stroke-miterlimit:10;" d="M-426.1,188.3
				c22,23.1,7.5,36.8,29.4,59.9c22,23.1,36.4,9.3,58.4,32.3c22,23.1,7.5,36.8,29.4,59.9c22,23.1,36.4,9.3,58.4,32.3
				c22,23.1,7.5,36.8,29.4,59.9c22,23.1,36.4,9.3,58.4,32.3c22,23.1,7.5,36.8,29.4,59.9c22,23.1,36.4,9.3,58.4,32.3
				c22,23.1,7.5,36.8,29.4,59.9c22,23.1,36.4,9.3,58.4,32.3c22,23.1,7.5,36.8,29.4,59.9c22,23.1,36.4,9.3,58.4,32.3
				c22,23.1,7.5,36.8,29.4,59.9c22,23.1,36.4,9.3,58.4,32.3c22,23.1,7.5,36.8,29.4,59.9c22,23.1,36.4,9.3,58.4,32.3
				c22,23.1,7.5,36.8,29.4,59.9c22,23.1,36.4,9.3,58.4,32.3c22,23.1,7.5,36.8,29.4,59.9c22,23.1,36.4,9.3,58.4,32.3
				c22,23.1,7.5,36.8,29.4,59.9c22,23.1,36.4,9.3,58.4,32.3c22,23,7.5,36.8,29.4,59.9c22,23,36.4,9.3,58.4,32.3
				c22,23.1,7.5,36.8,29.4,59.9c22,23.1,36.4,9.3,58.4,32.3c22,23.1,7.5,36.8,29.4,59.9c22,23.1,36.4,9.3,58.4,32.3
				c22,23.1,7.5,36.8,29.4,59.9c22,23.1,36.4,9.3,58.4,32.3c22,23.1,7.5,36.8,29.4,59.9c22,23.1,36.4,9.3,58.4,32.3
				c22,23.1,7.5,36.8,29.4,59.9c22,23.1,36.4,9.3,58.4,32.3c22,23.1,7.5,36.8,29.4,59.9c22,23.1,36.4,9.3,58.4,32.3
				c22,23.1,7.5,36.8,29.4,59.9c22,23.1,36.4,9.3,58.4,32.3c22,23.1,7.5,36.8,29.4,59.9c22,23.1,36.4,9.3,58.4,32.3
				c22,23.1,7.5,36.8,29.4,59.9"/>
		</g>
		<g>
			<path style="fill:none;stroke:#F7931E;stroke-width:10;stroke-linecap:round;stroke-miterlimit:10;" d="M-475.7,213.1
				c22,23.1,7.5,36.8,29.4,59.9c22,23.1,36.4,9.3,58.4,32.3c22,23.1,7.5,36.8,29.4,59.9c22,23.1,36.4,9.3,58.4,32.3
				c22,23.1,7.5,36.8,29.4,59.9c22,23.1,36.4,9.3,58.4,32.3c22,23.1,7.5,36.8,29.4,59.9c22,23.1,36.4,9.3,58.4,32.3
				c22,23.1,7.5,36.8,29.4,59.9c22,23.1,36.4,9.3,58.4,32.3c22,23.1,7.5,36.8,29.4,59.9c22,23.1,36.4,9.3,58.4,32.3
				c22,23.1,7.5,36.8,29.4,59.9c22,23.1,36.4,9.3,58.4,32.3c22,23.1,7.5,36.8,29.4,59.9c22,23.1,36.4,9.3,58.4,32.3
				c22,23.1,7.5,36.8,29.4,59.9c22,23.1,36.4,9.3,58.4,32.3c22,23.1,7.5,36.8,29.4,59.9c22,23.1,36.4,9.3,58.4,32.3
				c22,23.1,7.5,36.8,29.4,59.9c22,23.1,36.4,9.3,58.4,32.3c22,23,7.5,36.8,29.4,59.9c22,23.1,36.4,9.3,58.4,32.3
				c22,23.1,7.5,36.8,29.4,59.9c22,23.1,36.4,9.3,58.4,32.3c22,23.1,7.5,36.8,29.4,59.9c22,23.1,36.4,9.3,58.4,32.3
				c22,23.1,7.5,36.8,29.4,59.9c22,23.1,36.4,9.3,58.4,32.3c22,23.1,7.5,36.8,29.4,59.9c22,23.1,36.4,9.3,58.4,32.3
				c22,23.1,7.5,36.8,29.4,59.9c22,23.1,36.4,9.3,58.4,32.3c22,23.1,7.5,36.8,29.4,59.9c22,23.1,36.4,9.3,58.4,32.3
				c22,23.1,7.5,36.8,29.4,59.9c22,23.1,36.4,9.3,58.4,32.3c22,23.1,7.5,36.8,29.4,59.9c22,23.1,36.4,9.3,58.4,32.3
				s7.5,36.8,29.4,59.9"/>
		</g>
		<g>
			<path style="fill:none;stroke:#F7931E;stroke-width:10;stroke-linecap:round;stroke-miterlimit:10;" d="M-525.4,237.8
				c22,23.1,7.5,36.8,29.4,59.9c22,23.1,36.4,9.3,58.4,32.3c22,23.1,7.5,36.8,29.4,59.9c22,23.1,36.4,9.3,58.4,32.3
				c22,23.1,7.5,36.8,29.4,59.9c22,23.1,36.4,9.3,58.4,32.3c22,23.1,7.5,36.8,29.4,59.9c22,23.1,36.4,9.3,58.4,32.3
				c22,23.1,7.5,36.8,29.4,59.9c22,23.1,36.4,9.3,58.4,32.3c22,23.1,7.5,36.8,29.4,59.9c22,23.1,36.4,9.3,58.4,32.3
				c22,23.1,7.5,36.8,29.4,59.9c22,23.1,36.4,9.3,58.4,32.3c22,23.1,7.5,36.8,29.4,59.9c22,23.1,36.4,9.3,58.4,32.3
				c22,23.1,7.5,36.8,29.4,59.9c22,23.1,36.4,9.3,58.4,32.3c22,23.1,7.5,36.8,29.4,59.9c22,23.1,36.4,9.3,58.4,32.3
				c22,23.1,7.5,36.8,29.4,59.9c22,23.1,36.4,9.3,58.4,32.3c22,23,7.5,36.8,29.4,59.9c22,23,36.4,9.3,58.4,32.3
				c22,23.1,7.5,36.8,29.4,59.9c22,23.1,36.4,9.3,58.4,32.3c22,23.1,7.5,36.8,29.4,59.9c22,23.1,36.4,9.3,58.4,32.3
				c22,23.1,7.5,36.8,29.4,59.9c22,23.1,36.4,9.3,58.4,32.3c22,23.1,7.5,36.8,29.4,59.9c22,23.1,36.4,9.3,58.4,32.3
				c22,23.1,7.5,36.8,29.4,59.9c22,23.1,36.4,9.3,58.4,32.3c22,23.1,7.5,36.8,29.4,59.9c22,23.1,36.4,9.3,58.4,32.3
				c22,23.1,7.5,36.8,29.4,59.9c22,23.1,36.4,9.3,58.4,32.3c22,23.1,7.5,36.8,29.4,59.9c22,23.1,36.4,9.3,58.4,32.3
				s7.5,36.9,29.4,59.9"/>
		</g>
		<g>
			<path style="fill:none;stroke:#F7931E;stroke-width:10;stroke-linecap:round;stroke-miterlimit:10;" d="M-575.1,262.5
				c22,23.1,7.5,36.8,29.4,59.9c22,23.1,36.4,9.3,58.4,32.3c22,23.1,7.5,36.8,29.4,59.9c22,23.1,36.4,9.3,58.4,32.3
				c22,23.1,7.5,36.8,29.4,59.9c22,23.1,36.4,9.3,58.4,32.3c22,23.1,7.5,36.8,29.4,59.9c22,23.1,36.4,9.3,58.4,32.3
				c22,23.1,7.5,36.8,29.4,59.9c22,23.1,36.4,9.3,58.4,32.3c22,23.1,7.5,36.8,29.4,59.9c22,23.1,36.4,9.3,58.4,32.3
				c22,23.1,7.5,36.8,29.4,59.9c22,23.1,36.4,9.3,58.4,32.3c22,23.1,7.5,36.8,29.4,59.9c22,23.1,36.4,9.3,58.4,32.3
				c22,23.1,7.5,36.8,29.4,59.9c22,23.1,36.4,9.3,58.4,32.3c22,23.1,7.5,36.8,29.4,59.9c22,23.1,36.4,9.3,58.4,32.3
				c22,23.1,7.5,36.8,29.4,59.9c22,23.1,36.4,9.3,58.4,32.3c22,23,7.5,36.8,29.4,59.9c22,23.1,36.4,9.3,58.4,32.3
				c22,23.1,7.5,36.8,29.4,59.9c22,23.1,36.4,9.3,58.4,32.3c22,23.1,7.5,36.8,29.4,59.9c22,23.1,36.4,9.3,58.4,32.3
				c22,23.1,7.5,36.8,29.4,59.9c22,23.1,36.4,9.3,58.4,32.3c22,23.1,7.5,36.8,29.4,59.9c22,23.1,36.4,9.3,58.4,32.3
				c22,23.1,7.5,36.8,29.4,59.9c22,23.1,36.4,9.3,58.4,32.3c22,23.1,7.5,36.8,29.4,59.9c22,23.1,36.4,9.3,58.4,32.3
				c22,23.1,7.5,36.8,29.4,59.9c22,23.1,36.4,9.3,58.4,32.3c22,23.1,7.5,36.8,29.4,59.9c22,23.1,36.4,9.3,58.4,32.3
				c22,23.1,7.5,36.9,29.4,59.9"/>
		</g>
		<g>
			<path style="fill:none;stroke:#F7931E;stroke-width:10;stroke-linecap:round;stroke-miterlimit:10;" d="M-624.7,287.2
				c22,23.1,7.5,36.8,29.4,59.9c22,23.1,36.4,9.3,58.4,32.3c22,23.1,7.5,36.8,29.4,59.9c22,23.1,36.4,9.3,58.4,32.3
				c22,23.1,7.5,36.8,29.4,59.9c22,23.1,36.4,9.3,58.4,32.3c22,23.1,7.5,36.8,29.4,59.9c22,23.1,36.4,9.3,58.4,32.3
				c22,23.1,7.5,36.8,29.4,59.9c22,23.1,36.4,9.3,58.4,32.3c22,23.1,7.5,36.8,29.4,59.9c22,23.1,36.4,9.3,58.4,32.3
				c22,23.1,7.5,36.8,29.4,59.9c22,23.1,36.4,9.3,58.4,32.3c22,23.1,7.5,36.8,29.4,59.9c22,23.1,36.4,9.3,58.4,32.3
				c22,23.1,7.5,36.8,29.4,59.9c22,23.1,36.4,9.3,58.4,32.3c22,23.1,7.5,36.8,29.4,59.9c22,23.1,36.4,9.3,58.4,32.3
				c22,23.1,7.5,36.8,29.4,59.9c22,23.1,36.4,9.3,58.4,32.3c22,23,7.5,36.8,29.4,59.9c22,23.1,36.4,9.3,58.4,32.3
				c22,23.1,7.5,36.8,29.4,59.9c22,23.1,36.4,9.3,58.4,32.3c22,23.1,7.5,36.8,29.4,59.9c22,23.1,36.4,9.3,58.4,32.3
				c22,23.1,7.5,36.8,29.4,59.9c22,23.1,36.4,9.3,58.4,32.3c22,23.1,7.5,36.8,29.4,59.9c22,23.1,36.4,9.3,58.4,32.3
				c22,23.1,7.5,36.8,29.4,59.9c22,23.1,36.4,9.3,58.4,32.3c22,23.1,7.5,36.8,29.4,59.9c22,23.1,36.4,9.3,58.4,32.3
				c22,23.1,7.5,36.8,29.4,59.9c22,23.1,36.4,9.3,58.4,32.3c22,23.1,7.5,36.8,29.4,59.9c22,23.1,36.4,9.3,58.4,32.3
				c22,23.1,7.5,36.8,29.4,59.9"/>
		</g>
		<g>
			<path style="fill:none;stroke:#F7931E;stroke-width:10;stroke-linecap:round;stroke-miterlimit:10;" d="M-674.4,312
				c22,23.1,7.5,36.8,29.4,59.9c22,23.1,36.4,9.3,58.4,32.3c22,23.1,7.5,36.8,29.4,59.9c22,23.1,36.4,9.3,58.4,32.3
				c22,23.1,7.5,36.8,29.4,59.9c22,23.1,36.4,9.3,58.4,32.3c22,23.1,7.5,36.8,29.4,59.9c22,23.1,36.4,9.3,58.4,32.3
				c22,23.1,7.5,36.8,29.4,59.9c22,23.1,36.4,9.3,58.4,32.3c22,23.1,7.5,36.8,29.4,59.9c22,23.1,36.4,9.3,58.4,32.3
				c22,23.1,7.5,36.8,29.4,59.9c22,23.1,36.4,9.3,58.4,32.3c22,23.1,7.5,36.8,29.4,59.9c22,23.1,36.4,9.3,58.4,32.3
				c22,23.1,7.5,36.8,29.4,59.9c22,23.1,36.4,9.3,58.4,32.3c22,23.1,7.5,36.8,29.4,59.9c22,23.1,36.4,9.3,58.4,32.3
				c22,23.1,7.5,36.8,29.4,59.9c22,23.1,36.4,9.3,58.4,32.3c22,23,7.5,36.8,29.4,59.9c22,23,36.4,9.3,58.4,32.3
				c22,23.1,7.5,36.8,29.4,59.9c22,23.1,36.4,9.3,58.4,32.3c22,23.1,7.5,36.8,29.4,59.9c22,23.1,36.4,9.3,58.4,32.3
				c22,23.1,7.5,36.8,29.4,59.9c22,23.1,36.4,9.3,58.4,32.3c22,23.1,7.5,36.8,29.4,59.9c22,23.1,36.4,9.3,58.4,32.3
				c22,23.1,7.5,36.8,29.4,59.9c22,23.1,36.4,9.3,58.4,32.3c22,23.1,7.5,36.8,29.4,59.9c22,23.1,36.4,9.3,58.4,32.3
				c22,23.1,7.5,36.8,29.4,59.9c22,23.1,36.4,9.3,58.4,32.3c22,23.1,7.5,36.8,29.4,59.9c22,23.1,36.4,9.3,58.4,32.3
				c22,23.1,7.5,36.9,29.4,59.9"/>
		</g>
		<g>
			<path style="fill:none;stroke:#F7931E;stroke-width:10;stroke-linecap:round;stroke-miterlimit:10;" d="M-724.1,336.7
				c22,23.1,7.5,36.8,29.4,59.9c22,23.1,36.4,9.3,58.4,32.3c22,23.1,7.5,36.8,29.4,59.9c22,23.1,36.4,9.3,58.4,32.3
				c22,23.1,7.5,36.8,29.4,59.9c22,23.1,36.4,9.3,58.4,32.3c22,23.1,7.5,36.8,29.4,59.9c22,23.1,36.4,9.3,58.4,32.3
				c22,23.1,7.5,36.8,29.4,59.9c22,23.1,36.4,9.3,58.4,32.3c22,23.1,7.5,36.8,29.4,59.9c22,23.1,36.4,9.3,58.4,32.3
				c22,23.1,7.5,36.8,29.4,59.9c22,23.1,36.4,9.3,58.4,32.3c22,23.1,7.5,36.8,29.4,59.9c22,23.1,36.4,9.3,58.4,32.3
				c22,23.1,7.5,36.8,29.4,59.9c22,23.1,36.4,9.3,58.4,32.3c22,23.1,7.5,36.8,29.4,59.9c22,23.1,36.4,9.3,58.4,32.3
				c22,23.1,7.5,36.8,29.4,59.9c22,23.1,36.4,9.3,58.4,32.3c22,23,7.5,36.8,29.4,59.9c22,23.1,36.4,9.3,58.4,32.3
				c22,23.1,7.5,36.8,29.4,59.9c22,23.1,36.4,9.3,58.4,32.3c22,23.1,7.5,36.8,29.4,59.9c22,23.1,36.4,9.3,58.4,32.3
				c22,23.1,7.5,36.8,29.4,59.9c22,23.1,36.4,9.3,58.4,32.3c22,23.1,7.5,36.8,29.4,59.9c22,23.1,36.4,9.3,58.4,32.3
				c22,23.1,7.5,36.8,29.4,59.9c22,23.1,36.4,9.3,58.4,32.3c22,23.1,7.5,36.8,29.4,59.9c22,23.1,36.4,9.3,58.4,32.3
				c22,23.1,7.5,36.8,29.4,59.9c22,23.1,36.4,9.3,58.4,32.3c22,23.1,7.5,36.8,29.4,59.9c22,23.1,36.4,9.3,58.4,32.3
				c22,23.1,7.5,36.9,29.4,59.9"/>
		</g>
		<g>
			<path style="fill:none;stroke:#F7931E;stroke-width:10;stroke-linecap:round;stroke-miterlimit:10;" d="M-773.7,361.4
				c22,23.1,7.5,36.8,29.4,59.9c22,23.1,36.4,9.3,58.4,32.3c22,23.1,7.5,36.8,29.4,59.9c22,23.1,36.4,9.3,58.4,32.3
				c22,23.1,7.5,36.8,29.4,59.9c22,23.1,36.4,9.3,58.4,32.3c22,23.1,7.5,36.8,29.4,59.9c22,23.1,36.4,9.3,58.4,32.3
				c22,23.1,7.5,36.8,29.4,59.9c22,23.1,36.4,9.3,58.4,32.3c22,23.1,7.5,36.8,29.4,59.9c22,23.1,36.4,9.3,58.4,32.3
				c22,23.1,7.5,36.8,29.4,59.9c22,23.1,36.4,9.3,58.4,32.3c22,23.1,7.5,36.8,29.4,59.9c22,23.1,36.4,9.3,58.4,32.3
				c22,23.1,7.5,36.8,29.4,59.9c22,23.1,36.4,9.3,58.4,32.3c22,23.1,7.5,36.8,29.4,59.9c22,23.1,36.4,9.3,58.4,32.3
				c22,23.1,7.5,36.8,29.4,59.9c22,23.1,36.4,9.3,58.4,32.3c22,23,7.5,36.8,29.4,59.9c22,23,36.4,9.3,58.4,32.3
				c22,23.1,7.5,36.8,29.4,59.9c22,23.1,36.4,9.3,58.4,32.3c22,23.1,7.5,36.8,29.4,59.9c22,23.1,36.4,9.3,58.4,32.3
				c22,23.1,7.5,36.8,29.4,59.9c22,23.1,36.4,9.3,58.4,32.3c22,23.1,7.5,36.8,29.4,59.9c22,23.1,36.4,9.3,58.4,32.3
				c22,23.1,7.5,36.8,29.4,59.9c22,23.1,36.4,9.3,58.4,32.3c22,23.1,7.5,36.8,29.4,59.9c22,23.1,36.4,9.3,58.4,32.3
				c22,23.1,7.5,36.8,29.4,59.9c22,23.1,36.4,9.3,58.4,32.3c22,23.1,7.5,36.8,29.4,59.9c22,23.1,36.4,9.3,58.4,32.3
				c22,23.1,7.5,36.9,29.4,59.9"/>
		</g>
		<g>
			<path style="fill:none;stroke:#F7931E;stroke-width:10;stroke-linecap:round;stroke-miterlimit:10;" d="M-823.4,386.1
				c22,23.1,7.5,36.8,29.4,59.9c22,23.1,36.4,9.3,58.4,32.3c22,23.1,7.5,36.8,29.4,59.9c22,23.1,36.4,9.3,58.4,32.3
				c22,23.1,7.5,36.8,29.4,59.9c22,23.1,36.4,9.3,58.4,32.3c22,23.1,7.5,36.8,29.4,59.9c22,23.1,36.4,9.3,58.4,32.3
				c22,23.1,7.5,36.8,29.4,59.9c22,23.1,36.4,9.3,58.4,32.3c22,23.1,7.5,36.8,29.4,59.9c22,23.1,36.4,9.3,58.4,32.3
				c22,23.1,7.5,36.8,29.4,59.9c22,23.1,36.4,9.3,58.4,32.3c22,23.1,7.5,36.8,29.4,59.9c22,23.1,36.4,9.3,58.4,32.3
				c22,23.1,7.5,36.8,29.4,59.9c22,23.1,36.4,9.3,58.4,32.3c22,23.1,7.5,36.8,29.4,59.9c22,23.1,36.4,9.3,58.4,32.3
				c22,23.1,7.5,36.8,29.4,59.9c22,23.1,36.4,9.3,58.4,32.3c22,23,7.5,36.8,29.4,59.9c22,23.1,36.4,9.3,58.4,32.3
				c22,23.1,7.5,36.8,29.4,59.9c22,23.1,36.4,9.3,58.4,32.3c22,23.1,7.5,36.8,29.4,59.9c22,23.1,36.4,9.3,58.4,32.3
				c22,23.1,7.5,36.8,29.4,59.9c22,23.1,36.4,9.3,58.4,32.3c22,23.1,7.5,36.8,29.4,59.9c22,23.1,36.4,9.3,58.4,32.3
				c22,23.1,7.5,36.8,29.4,59.9c22,23.1,36.4,9.3,58.4,32.3c22,23.1,7.5,36.8,29.4,59.9c22,23.1,36.4,9.3,58.4,32.3
				c22,23.1,7.5,36.8,29.4,59.9c22,23.1,36.4,9.3,58.4,32.3c22,23.1,7.5,36.8,29.4,59.9c22,23.1,36.4,9.3,58.4,32.3
				c22,23.1,7.5,36.8,29.4,59.9"/>
		</g>
		<g>
			<path style="fill:none;stroke:#F7931E;stroke-width:10;stroke-linecap:round;stroke-miterlimit:10;" d="M-873.1,410.9
				c22,23.1,7.5,36.8,29.4,59.9c22,23.1,36.4,9.3,58.4,32.3c22,23.1,7.5,36.8,29.4,59.9c22,23.1,36.4,9.3,58.4,32.3
				c22,23.1,7.5,36.8,29.4,59.9c22,23.1,36.4,9.3,58.4,32.3c22,23.1,7.5,36.8,29.4,59.9c22,23.1,36.4,9.3,58.4,32.3
				c22,23.1,7.5,36.8,29.4,59.9c22,23.1,36.4,9.3,58.4,32.3c22,23.1,7.5,36.8,29.4,59.9c22,23.1,36.4,9.3,58.4,32.3
				c22,23.1,7.5,36.8,29.4,59.9c22,23.1,36.4,9.3,58.4,32.3c22,23.1,7.5,36.8,29.4,59.9c22,23.1,36.4,9.3,58.4,32.3
				c22,23.1,7.5,36.8,29.4,59.9c22,23.1,36.4,9.3,58.4,32.3c22,23.1,7.5,36.8,29.4,59.9c22,23.1,36.4,9.3,58.4,32.3
				c22,23.1,7.5,36.8,29.4,59.9c22,23.1,36.4,9.3,58.4,32.3c22,23,7.5,36.8,29.4,59.9c22,23.1,36.4,9.3,58.4,32.3
				c22,23.1,7.5,36.8,29.4,59.9c22,23.1,36.4,9.3,58.4,32.3c22,23.1,7.5,36.8,29.4,59.9c22,23.1,36.4,9.3,58.4,32.3
				c22,23.1,7.5,36.8,29.4,59.9c22,23.1,36.4,9.3,58.4,32.3c22,23.1,7.5,36.8,29.4,59.9c22,23.1,36.4,9.3,58.4,32.3
				c22,23.1,7.5,36.8,29.4,59.9c22,23.1,36.4,9.3,58.4,32.3c22,23.1,7.5,36.8,29.4,59.9c22,23.1,36.4,9.3,58.4,32.3
				c22,23.1,7.5,36.8,29.4,59.9c22,23.1,36.4,9.3,58.4,32.3c22,23.1,7.5,36.8,29.4,59.9c22,23.1,36.4,9.3,58.4,32.3
				c22,23.1,7.5,36.9,29.4,59.9"/>
		</g>
		<g>
			<path style="fill:none;stroke:#F7931E;stroke-width:10;stroke-linecap:round;stroke-miterlimit:10;" d="M-922.8,435.6
				c22,23.1,7.5,36.8,29.4,59.9c22,23.1,36.4,9.3,58.4,32.3c22,23.1,7.5,36.8,29.4,59.9c22,23.1,36.4,9.3,58.4,32.3
				c22,23.1,7.5,36.8,29.4,59.9c22,23.1,36.4,9.3,58.4,32.3c22,23.1,7.5,36.8,29.4,59.9c22,23.1,36.4,9.3,58.4,32.3
				c22,23.1,7.5,36.8,29.4,59.9c22,23.1,36.4,9.3,58.4,32.3c22,23.1,7.5,36.8,29.4,59.9c22,23.1,36.4,9.3,58.4,32.3
				c22,23.1,7.5,36.8,29.4,59.9c22,23.1,36.4,9.3,58.4,32.3c22,23.1,7.5,36.8,29.4,59.9c22,23.1,36.4,9.3,58.4,32.3
				c22,23.1,7.5,36.8,29.4,59.9c22,23.1,36.4,9.3,58.4,32.3c22,23.1,7.5,36.8,29.4,59.9c22,23.1,36.4,9.3,58.4,32.3
				c22,23.1,7.5,36.8,29.4,59.9c22,23.1,36.4,9.3,58.4,32.3c22,23,7.5,36.8,29.4,59.9c22,23,36.4,9.3,58.4,32.3
				c22,23.1,7.5,36.8,29.4,59.9c22,23.1,36.4,9.3,58.4,32.3c22,23.1,7.5,36.8,29.4,59.9c22,23.1,36.4,9.3,58.4,32.3
				c22,23.1,7.5,36.8,29.4,59.9c22,23.1,36.4,9.3,58.4,32.3c22,23.1,7.5,36.8,29.4,59.9c22,23.1,36.4,9.3,58.4,32.3
				c22,23.1,7.5,36.8,29.4,59.9c22,23.1,36.4,9.3,58.4,32.3c22,23.1,7.5,36.8,29.4,59.9c22,23.1,36.4,9.3,58.4,32.3
				c22,23.1,7.5,36.8,29.4,59.9c22,23.1,36.4,9.3,58.4,32.3c22,23.1,7.5,36.8,29.4,59.9c22,23.1,36.4,9.3,58.4,32.3
				c22,23.1,7.5,36.9,29.4,59.9"/>
		</g>
		<g>
			<path style="fill:none;stroke:#F7931E;stroke-width:10;stroke-linecap:round;stroke-miterlimit:10;" d="M-972.4,460.3
				c22,23.1,7.5,36.8,29.4,59.9c22,23.1,36.4,9.3,58.4,32.3c22,23.1,7.5,36.8,29.4,59.9c22,23.1,36.4,9.3,58.4,32.3
				c22,23.1,7.5,36.8,29.4,59.9c22,23.1,36.4,9.3,58.4,32.3c22,23.1,7.5,36.8,29.4,59.9c22,23.1,36.4,9.3,58.4,32.3
				c22,23.1,7.5,36.8,29.4,59.9c22,23.1,36.4,9.3,58.4,32.3c22,23.1,7.5,36.8,29.4,59.9c22,23.1,36.4,9.3,58.4,32.3
				c22,23.1,7.5,36.8,29.4,59.9c22,23.1,36.4,9.3,58.4,32.3c22,23.1,7.5,36.8,29.4,59.9c22,23.1,36.4,9.3,58.4,32.3
				c22,23.1,7.5,36.8,29.4,59.9c22,23.1,36.4,9.3,58.4,32.3c22,23.1,7.5,36.8,29.4,59.9c22,23.1,36.4,9.3,58.4,32.3
				c22,23.1,7.5,36.8,29.4,59.9c22,23.1,36.4,9.3,58.4,32.3c22,23,7.5,36.8,29.4,59.9c22,23.1,36.4,9.3,58.4,32.3
				c22,23.1,7.5,36.8,29.4,59.9c22,23.1,36.4,9.3,58.4,32.3c22,23.1,7.5,36.8,29.4,59.9c22,23.1,36.4,9.3,58.4,32.3
				c22,23.1,7.5,36.8,29.4,59.9c22,23.1,36.4,9.3,58.4,32.3c22,23.1,7.5,36.8,29.4,59.9c22,23.1,36.4,9.3,58.4,32.3
				c22,23.1,7.5,36.8,29.4,59.9c22,23.1,36.4,9.3,58.4,32.3c22,23.1,7.5,36.8,29.4,59.9c22,23.1,36.4,9.3,58.4,32.3
				c22,23.1,7.5,36.8,29.4,59.9c22,23.1,36.4,9.3,58.4,32.3c22,23.1,7.5,36.8,29.4,59.9c22,23.1,36.4,9.3,58.4,32.3
				s7.5,36.8,29.4,59.9"/>
		</g>
		<g>
			<path style="fill:none;stroke:#F7931E;stroke-width:10;stroke-linecap:round;stroke-miterlimit:10;" d="M-1022.1,485
				c22,23.1,7.5,36.8,29.4,59.9c22,23.1,36.4,9.3,58.4,32.3c22,23.1,7.5,36.8,29.4,59.9c22,23.1,36.4,9.3,58.4,32.3
				c22,23.1,7.5,36.8,29.4,59.9c22,23.1,36.4,9.3,58.4,32.3c22,23.1,7.5,36.8,29.4,59.9c22,23.1,36.4,9.3,58.4,32.3
				c22,23.1,7.5,36.8,29.4,59.9c22,23.1,36.4,9.3,58.4,32.3c22,23.1,7.5,36.8,29.4,59.9c22,23.1,36.4,9.3,58.4,32.3
				c22,23.1,7.5,36.8,29.4,59.9c22,23.1,36.4,9.3,58.4,32.3c22,23.1,7.5,36.8,29.4,59.9c22,23.1,36.4,9.3,58.4,32.3
				c22,23.1,7.5,36.8,29.4,59.9c22,23.1,36.4,9.3,58.4,32.3c22,23.1,7.5,36.8,29.4,59.9c22,23.1,36.4,9.3,58.4,32.3
				c22,23.1,7.5,36.8,29.4,59.9c22,23.1,36.4,9.3,58.4,32.3c22,23,7.5,36.8,29.4,59.9c22,23,36.4,9.3,58.4,32.3
				c22,23.1,7.5,36.8,29.4,59.9c22,23.1,36.4,9.3,58.4,32.3c22,23.1,7.5,36.8,29.4,59.9c22,23.1,36.4,9.3,58.4,32.3
				c22,23.1,7.5,36.8,29.4,59.9c22,23.1,36.4,9.3,58.4,32.3c22,23.1,7.5,36.8,29.4,59.9c22,23.1,36.4,9.3,58.4,32.3
				c22,23.1,7.5,36.8,29.4,59.9c22,23.1,36.4,9.3,58.4,32.3c22,23.1,7.5,36.8,29.4,59.9c22,23.1,36.4,9.3,58.4,32.3
				c22,23.1,7.5,36.8,29.4,59.9c22,23.1,36.4,9.3,58.4,32.3c22,23.1,7.5,36.8,29.4,59.9c22,23.1,36.4,9.3,58.4,32.3
				c22,23.1,7.5,36.9,29.4,59.9"/>
		</g>
		<g>
			<path style="fill:none;stroke:#F7931E;stroke-width:10;stroke-linecap:round;stroke-miterlimit:10;" d="M-1071.8,509.8
				c22,23.1,7.5,36.8,29.4,59.9c22,23.1,36.4,9.3,58.4,32.3c22,23.1,7.5,36.8,29.4,59.9c22,23.1,36.4,9.3,58.4,32.3
				c22,23.1,7.5,36.8,29.4,59.9c22,23.1,36.4,9.3,58.4,32.3c22,23.1,7.5,36.8,29.4,59.9c22,23.1,36.4,9.3,58.4,32.3
				c22,23.1,7.5,36.8,29.4,59.9c22,23.1,36.4,9.3,58.4,32.3c22,23.1,7.5,36.8,29.4,59.9c22,23.1,36.4,9.3,58.4,32.3
				c22,23.1,7.5,36.8,29.4,59.9c22,23.1,36.4,9.3,58.4,32.3c22,23.1,7.5,36.8,29.4,59.9c22,23.1,36.4,9.3,58.4,32.3
				c22,23.1,7.5,36.8,29.4,59.9c22,23.1,36.4,9.3,58.4,32.3c22,23.1,7.5,36.8,29.4,59.9c22,23.1,36.4,9.3,58.4,32.3
				c22,23.1,7.5,36.8,29.4,59.9c22,23.1,36.4,9.3,58.4,32.3c22,23,7.5,36.8,29.4,59.9c22,23.1,36.4,9.3,58.4,32.3
				c22,23.1,7.5,36.8,29.4,59.9c22,23.1,36.4,9.3,58.4,32.3c22,23.1,7.5,36.8,29.4,59.9c22,23.1,36.4,9.3,58.4,32.3
				c22,23.1,7.5,36.8,29.4,59.9c22,23.1,36.4,9.3,58.4,32.3c22,23.1,7.5,36.8,29.4,59.9c22,23.1,36.4,9.3,58.4,32.3
				c22,23.1,7.5,36.8,29.4,59.9c22,23.1,36.4,9.3,58.4,32.3c22,23.1,7.5,36.8,29.4,59.9c22,23.1,36.4,9.3,58.4,32.3
				c22,23.1,7.5,36.8,29.4,59.9c22,23.1,36.4,9.3,58.4,32.3c22,23.1,7.5,36.8,29.4,59.9c22,23.1,36.4,9.3,58.4,32.3
				s7.5,36.9,29.4,59.9"/>
		</g>
		<g>
			<path style="fill:none;stroke:#F7931E;stroke-width:10;stroke-linecap:round;stroke-miterlimit:10;" d="M-1121.4,534.5
				c22,23.1,7.5,36.8,29.4,59.9c22,23.1,36.4,9.3,58.4,32.3c22,23.1,7.5,36.8,29.4,59.9c22,23.1,36.4,9.3,58.4,32.3
				c22,23.1,7.5,36.8,29.4,59.9c22,23.1,36.4,9.3,58.4,32.3c22,23.1,7.5,36.8,29.4,59.9c22,23.1,36.4,9.3,58.4,32.3
				c22,23.1,7.5,36.8,29.4,59.9c22,23.1,36.4,9.3,58.4,32.3c22,23.1,7.5,36.8,29.4,59.9c22,23.1,36.4,9.3,58.4,32.3
				s7.5,36.8,29.4,59.9c22,23.1,36.4,9.3,58.4,32.3c22,23.1,7.5,36.8,29.4,59.9c22,23.1,36.4,9.3,58.4,32.3
				c22,23.1,7.5,36.8,29.4,59.9c22,23.1,36.4,9.3,58.4,32.3c22,23.1,7.5,36.8,29.4,59.9c22,23.1,36.4,9.3,58.4,32.3
				c22,23.1,7.5,36.8,29.4,59.9c22,23.1,36.4,9.3,58.4,32.3c22,23,7.5,36.8,29.4,59.9c22,23.1,36.4,9.3,58.4,32.3
				c22,23.1,7.5,36.8,29.4,59.9c22,23.1,36.4,9.3,58.4,32.3c22,23.1,7.5,36.8,29.4,59.9c22,23.1,36.4,9.3,58.4,32.3
				c22,23.1,7.5,36.8,29.4,59.9c22,23.1,36.4,9.3,58.4,32.3c22,23.1,7.5,36.8,29.4,59.9c22,23.1,36.4,9.3,58.4,32.3
				c22,23.1,7.5,36.8,29.4,59.9c22,23.1,36.4,9.3,58.4,32.3c22,23.1,7.5,36.8,29.4,59.9c22,23.1,36.4,9.3,58.4,32.3
				c22,23.1,7.5,36.8,29.4,59.9c22,23.1,36.4,9.3,58.4,32.3c22,23.1,7.5,36.8,29.4,59.9c22,23.1,36.4,9.3,58.4,32.3
				c22,23.1,7.5,36.8,29.4,59.9"/>
		</g>
		<g>
			<path style="fill:none;stroke:#F7931E;stroke-width:10;stroke-linecap:round;stroke-miterlimit:10;" d="M-1171.1,559.2
				c22,23.1,7.5,36.8,29.4,59.9c22,23.1,36.4,9.3,58.4,32.3c22,23.1,7.5,36.8,29.4,59.9c22,23.1,36.4,9.3,58.4,32.3
				c22,23.1,7.5,36.8,29.4,59.9c22,23.1,36.4,9.3,58.4,32.3c22,23.1,7.5,36.8,29.4,59.9c22,23.1,36.4,9.3,58.4,32.3
				c22,23.1,7.5,36.8,29.4,59.9c22,23.1,36.4,9.3,58.4,32.3c22,23.1,7.5,36.8,29.4,59.9c22,23.1,36.4,9.3,58.4,32.3
				c22,23.1,7.5,36.8,29.4,59.9c22,23.1,36.4,9.3,58.4,32.3c22,23.1,7.5,36.8,29.4,59.9c22,23.1,36.4,9.3,58.4,32.3
				c22,23.1,7.5,36.8,29.4,59.9c22,23.1,36.4,9.3,58.4,32.3c22,23.1,7.5,36.8,29.4,59.9c22,23.1,36.4,9.3,58.4,32.3
				c22,23.1,7.5,36.8,29.4,59.9c22,23.1,36.4,9.3,58.4,32.3c22,23,7.5,36.8,29.4,59.9c22,23,36.4,9.3,58.4,32.3
				c22,23.1,7.5,36.8,29.4,59.9c22,23.1,36.4,9.3,58.4,32.3c22,23.1,7.5,36.8,29.4,59.9c22,23.1,36.4,9.3,58.4,32.3
				c22,23.1,7.5,36.8,29.4,59.9c22,23.1,36.4,9.3,58.4,32.3c22,23.1,7.5,36.8,29.4,59.9c22,23.1,36.4,9.3,58.4,32.3
				c22,23.1,7.5,36.8,29.4,59.9c22,23.1,36.4,9.3,58.4,32.3c22,23.1,7.5,36.8,29.4,59.9c22,23.1,36.4,9.3,58.4,32.3
				c22,23.1,7.5,36.8,29.4,59.9c22,23.1,36.4,9.3,58.4,32.3c22,23.1,7.5,36.8,29.4,59.9c22,23.1,36.4,9.3,58.4,32.3
				c22,23.1,7.5,36.8,29.4,59.9"/>
		</g>
		<g>
			<path style="fill:none;stroke:#F7931E;stroke-width:10;stroke-linecap:round;stroke-miterlimit:10;" d="M-1220.8,583.9
				c22,23.1,7.5,36.8,29.4,59.9c22,23.1,36.4,9.3,58.4,32.3c22,23.1,7.5,36.8,29.4,59.9c22,23.1,36.4,9.3,58.4,32.3
				c22,23.1,7.5,36.8,29.4,59.9c22,23.1,36.4,9.3,58.4,32.3c22,23.1,7.5,36.8,29.4,59.9c22,23.1,36.4,9.3,58.4,32.3
				c22,23.1,7.5,36.8,29.4,59.9c22,23.1,36.4,9.3,58.4,32.3c22,23.1,7.5,36.8,29.4,59.9c22,23.1,36.4,9.3,58.4,32.3
				s7.5,36.8,29.4,59.9c22,23.1,36.4,9.3,58.4,32.3c22,23.1,7.5,36.8,29.4,59.9c22,23.1,36.4,9.3,58.4,32.3
				c22,23.1,7.5,36.8,29.4,59.9c22,23.1,36.4,9.3,58.4,32.3c22,23.1,7.5,36.8,29.4,59.9c22,23.1,36.4,9.3,58.4,32.3
				c22,23.1,7.5,36.8,29.4,59.9c22,23.1,36.4,9.3,58.4,32.3c22,23,7.5,36.8,29.4,59.9c22,23.1,36.4,9.3,58.4,32.3
				c22,23.1,7.5,36.8,29.4,59.9c22,23.1,36.4,9.3,58.4,32.3c22,23.1,7.5,36.8,29.4,59.9c22,23.1,36.4,9.3,58.4,32.3
				c22,23.1,7.5,36.8,29.4,59.9c22,23.1,36.4,9.3,58.4,32.3c22,23.1,7.5,36.8,29.4,59.9c22,23.1,36.4,9.3,58.4,32.3
				c22,23.1,7.5,36.8,29.4,59.9c22,23.1,36.4,9.3,58.4,32.3c22,23.1,7.5,36.8,29.4,59.9c22,23.1,36.4,9.3,58.4,32.3
				c22,23.1,7.5,36.8,29.4,59.9c22,23.1,36.4,9.3,58.4,32.3c22,23.1,7.5,36.8,29.4,59.9c22,23.1,36.4,9.3,58.4,32.3
				s7.5,36.9,29.4,59.9"/>
		</g>
		<g>
			<path style="fill:none;stroke:#F7931E;stroke-width:10;stroke-linecap:round;stroke-miterlimit:10;" d="M-1270.4,608.7
				c22,23.1,7.5,36.8,29.4,59.9c22,23.1,36.4,9.3,58.4,32.3c22,23.1,7.5,36.8,29.4,59.9c22,23.1,36.4,9.3,58.4,32.3
				c22,23.1,7.5,36.8,29.4,59.9c22,23.1,36.4,9.3,58.4,32.3c22,23.1,7.5,36.8,29.4,59.9c22,23.1,36.4,9.3,58.4,32.3
				c22,23.1,7.5,36.8,29.4,59.9c22,23.1,36.4,9.3,58.4,32.3c22,23.1,7.5,36.8,29.4,59.9c22,23.1,36.4,9.3,58.4,32.3
				c22,23.1,7.5,36.8,29.4,59.9c22,23.1,36.4,9.3,58.4,32.3c22,23.1,7.5,36.8,29.4,59.9c22,23.1,36.4,9.3,58.4,32.3
				c22,23.1,7.5,36.8,29.4,59.9c22,23.1,36.4,9.3,58.4,32.3c22,23.1,7.5,36.8,29.4,59.9c22,23.1,36.4,9.3,58.4,32.3
				c22,23.1,7.5,36.8,29.4,59.9c22,23.1,36.4,9.3,58.4,32.3c22,23,7.5,36.8,29.4,59.9c22,23,36.4,9.3,58.4,32.3
				c22,23.1,7.5,36.8,29.4,59.9c22,23.1,36.4,9.3,58.4,32.3c22,23.1,7.5,36.8,29.4,59.9c22,23.1,36.4,9.3,58.4,32.3
				c22,23.1,7.5,36.8,29.4,59.9c22,23.1,36.4,9.3,58.4,32.3c22,23.1,7.5,36.8,29.4,59.9c22,23.1,36.4,9.3,58.4,32.3
				c22,23.1,7.5,36.8,29.4,59.9c22,23.1,36.4,9.3,58.4,32.3c22,23.1,7.5,36.8,29.4,59.9c22,23.1,36.4,9.3,58.4,32.3
				c22,23.1,7.5,36.8,29.4,59.9c22,23.1,36.4,9.3,58.4,32.3c22,23.1,7.5,36.8,29.4,59.9c22,23.1,36.4,9.3,58.4,32.3
				c22,23.1,7.5,36.9,29.4,59.9"/>
		</g>
		<g>
			<path style="fill:none;stroke:#F7931E;stroke-width:10;stroke-linecap:round;stroke-miterlimit:10;" d="M-1320.1,633.4
				c22,23.1,7.5,36.8,29.4,59.9c22,23.1,36.4,9.3,58.4,32.3c22,23.1,7.5,36.8,29.4,59.9c22,23.1,36.4,9.3,58.4,32.3
				c22,23.1,7.5,36.8,29.4,59.9c22,23.1,36.4,9.3,58.4,32.3c22,23.1,7.5,36.8,29.4,59.9c22,23.1,36.4,9.3,58.4,32.3
				c22,23.1,7.5,36.8,29.4,59.9c22,23.1,36.4,9.3,58.4,32.3c22,23.1,7.5,36.8,29.4,59.9c22,23.1,36.4,9.3,58.4,32.3
				c22,23.1,7.5,36.8,29.4,59.9c22,23.1,36.4,9.3,58.4,32.3c22,23.1,7.5,36.8,29.4,59.9c22,23.1,36.4,9.3,58.4,32.3
				c22,23.1,7.5,36.8,29.4,59.9c22,23.1,36.4,9.3,58.4,32.3c22,23.1,7.5,36.8,29.4,59.9c22,23.1,36.4,9.3,58.4,32.3
				c22,23.1,7.5,36.8,29.4,59.9c22,23.1,36.4,9.3,58.4,32.3c22,23,7.5,36.8,29.4,59.9c22,23.1,36.4,9.3,58.4,32.3
				c22,23.1,7.5,36.8,29.4,59.9c22,23.1,36.4,9.3,58.4,32.3c22,23.1,7.5,36.8,29.4,59.9c22,23.1,36.4,9.3,58.4,32.3
				c22,23.1,7.5,36.8,29.4,59.9c22,23.1,36.4,9.3,58.4,32.3c22,23.1,7.5,36.8,29.4,59.9c22,23.1,36.4,9.3,58.4,32.3
				c22,23.1,7.5,36.8,29.4,59.9c22,23.1,36.4,9.3,58.4,32.3c22,23.1,7.5,36.8,29.4,59.9c22,23.1,36.4,9.3,58.4,32.3
				c22,23.1,7.5,36.8,29.4,59.9c22,23.1,36.4,9.3,58.4,32.3c22,23.1,7.5,36.8,29.4,59.9c22,23.1,36.4,9.3,58.4,32.3
				s7.5,36.8,29.4,59.9"/>
		</g>
		<g>
			<path style="fill:none;stroke:#F7931E;stroke-width:10;stroke-linecap:round;stroke-miterlimit:10;" d="M-1369.8,658.1
				c22,23.1,7.5,36.8,29.4,59.9c22,23.1,36.4,9.3,58.4,32.3c22,23.1,7.5,36.8,29.4,59.9c22,23.1,36.4,9.3,58.4,32.3
				c22,23.1,7.5,36.8,29.4,59.9c22,23.1,36.4,9.3,58.4,32.3c22,23.1,7.5,36.8,29.4,59.9c22,23.1,36.4,9.3,58.4,32.3
				c22,23.1,7.5,36.8,29.4,59.9c22,23.1,36.4,9.3,58.4,32.3c22,23.1,7.5,36.8,29.4,59.9c22,23.1,36.4,9.3,58.4,32.3
				c22,23.1,7.5,36.8,29.4,59.9c22,23.1,36.4,9.3,58.4,32.3c22,23.1,7.5,36.8,29.4,59.9c22,23.1,36.4,9.3,58.4,32.3
				c22,23.1,7.5,36.8,29.4,59.9c22,23.1,36.4,9.3,58.4,32.3c22,23.1,7.5,36.8,29.4,59.9c22,23.1,36.4,9.3,58.4,32.3
				c22,23.1,7.5,36.8,29.4,59.9c22,23.1,36.4,9.3,58.4,32.3c22,23,7.5,36.8,29.4,59.9c22,23,36.4,9.3,58.4,32.3
				c22,23.1,7.5,36.8,29.4,59.9c22,23.1,36.4,9.3,58.4,32.3c22,23.1,7.5,36.8,29.4,59.9c22,23.1,36.4,9.3,58.4,32.3
				c22,23.1,7.5,36.8,29.4,59.9c22,23.1,36.4,9.3,58.4,32.3c22,23.1,7.5,36.8,29.4,59.9c22,23.1,36.4,9.3,58.4,32.3
				c22,23.1,7.5,36.8,29.4,59.9c22,23.1,36.4,9.3,58.4,32.3c22,23.1,7.5,36.8,29.4,59.9c22,23.1,36.4,9.3,58.4,32.3
				c22,23.1,7.5,36.8,29.4,59.9c22,23.1,36.4,9.3,58.4,32.3c22,23.1,7.5,36.8,29.4,59.9c22,23.1,36.4,9.3,58.4,32.3
				c22,23.1,7.5,36.9,29.4,59.9"/>
		</g>
		<g>
			<path style="fill:none;stroke:#F7931E;stroke-width:10;stroke-linecap:round;stroke-miterlimit:10;" d="M-1419.4,682.8
				c22,23.1,7.5,36.8,29.4,59.9c22,23.1,36.4,9.3,58.4,32.3c22,23.1,7.5,36.8,29.4,59.9c22,23.1,36.4,9.3,58.4,32.3
				c22,23.1,7.5,36.8,29.4,59.9c22,23.1,36.4,9.3,58.4,32.3c22,23.1,7.5,36.8,29.4,59.9c22,23.1,36.4,9.3,58.4,32.3
				c22,23.1,7.5,36.8,29.4,59.9c22,23.1,36.4,9.3,58.4,32.3c22,23.1,7.5,36.8,29.4,59.9c22,23.1,36.4,9.3,58.4,32.3
				c22,23.1,7.5,36.8,29.4,59.9c22,23.1,36.4,9.3,58.4,32.3c22,23.1,7.5,36.8,29.4,59.9c22,23.1,36.4,9.3,58.4,32.3
				c22,23.1,7.5,36.8,29.4,59.9c22,23.1,36.4,9.3,58.4,32.3c22,23.1,7.5,36.8,29.4,59.9c22,23.1,36.4,9.3,58.4,32.3
				c22,23.1,7.5,36.8,29.4,59.9c22,23.1,36.4,9.3,58.4,32.3c22,23,7.5,36.8,29.4,59.9c22,23,36.4,9.3,58.4,32.3
				c22,23.1,7.5,36.8,29.4,59.9c22,23.1,36.4,9.3,58.4,32.3c22,23.1,7.5,36.8,29.4,59.9c22,23.1,36.4,9.3,58.4,32.3
				c22,23.1,7.5,36.8,29.4,59.9c22,23.1,36.4,9.3,58.4,32.3c22,23.1,7.5,36.8,29.4,59.9c22,23.1,36.4,9.3,58.4,32.3
				c22,23.1,7.5,36.8,29.4,59.9c22,23.1,36.4,9.3,58.4,32.3c22,23.1,7.5,36.8,29.4,59.9c22,23.1,36.4,9.3,58.4,32.3
				c22,23.1,7.5,36.8,29.4,59.9c22,23.1,36.4,9.3,58.4,32.3c22,23.1,7.5,36.8,29.4,59.9c22,23.1,36.4,9.3,58.4,32.3
				c22,23.1,7.5,36.9,29.4,59.9"/>
		</g>
		<g>
			<path style="fill:none;stroke:#F7931E;stroke-width:10;stroke-linecap:round;stroke-miterlimit:10;" d="M-1469.1,707.6
				c22,23.1,7.5,36.8,29.4,59.9c22,23.1,36.4,9.3,58.4,32.3c22,23.1,7.5,36.8,29.4,59.9c22,23.1,36.4,9.3,58.4,32.3
				c22,23.1,7.5,36.8,29.4,59.9c22,23.1,36.4,9.3,58.4,32.3c22,23.1,7.5,36.8,29.4,59.9c22,23.1,36.4,9.3,58.4,32.3
				c22,23.1,7.5,36.8,29.4,59.9c22,23.1,36.4,9.3,58.4,32.3c22,23.1,7.5,36.8,29.4,59.9c22,23.1,36.4,9.3,58.4,32.3
				s7.5,36.8,29.4,59.9c22,23.1,36.4,9.3,58.4,32.3c22,23.1,7.5,36.8,29.4,59.9c22,23.1,36.4,9.3,58.4,32.3
				c22,23.1,7.5,36.8,29.4,59.9c22,23.1,36.4,9.3,58.4,32.3c22,23.1,7.5,36.8,29.4,59.9c22,23.1,36.4,9.3,58.4,32.3
				c22,23.1,7.5,36.8,29.4,59.9c22,23.1,36.4,9.3,58.4,32.3c22,23,7.5,36.8,29.4,59.9c22,23.1,36.4,9.3,58.4,32.3
				c22,23.1,7.5,36.8,29.4,59.9c22,23.1,36.4,9.3,58.4,32.3c22,23.1,7.5,36.8,29.4,59.9c22,23.1,36.4,9.3,58.4,32.3
				c22,23.1,7.5,36.8,29.4,59.9c22,23.1,36.4,9.3,58.4,32.3c22,23.1,7.5,36.8,29.4,59.9c22,23.1,36.4,9.3,58.4,32.3
				c22,23.1,7.5,36.8,29.4,59.9c22,23.1,36.4,9.3,58.4,32.3c22,23.1,7.5,36.8,29.4,59.9c22,23.1,36.4,9.3,58.4,32.3
				c22,23.1,7.5,36.8,29.4,59.9c22,23.1,36.4,9.3,58.4,32.3c22,23.1,7.5,36.8,29.4,59.9c22,23.1,36.4,9.3,58.4,32.3
				c22,23.1,7.5,36.8,29.4,59.9"/>
		</g>
	</g>
</g>
<g id="Layer_4">
</g>
</svg>
