<?xml version="1.0" encoding="utf-8"?>
<!-- Generator: Adobe Illustrator 24.1.3, SVG Export Plug-In . SVG Version: 6.00 Build 0)  -->
<svg version="1.1" xmlns="http://www.w3.org/2000/svg" xmlns:xlink="http://www.w3.org/1999/xlink" x="0px" y="0px"
	 viewBox="0 0 802 745" style="enable-background:new 0 0 802 745;" xml:space="preserve">
<g id="Layer_1">
</g>
<g id="Layer_2">
</g>
<g id="Layer_3">
	<g>
		<g>
			<g>
				<path style="fill:#F7931E;" d="M784.6,562.1c-2.2-6.3-5.6-14.4-12.5-21.3c-9.2-9.2-20.4-12.5-32.3-16
					c-12.5-3.7-25.4-7.4-36.3-18.3c-10.9-10.9-14.7-23.8-18.3-36.3c-3.5-11.9-6.8-23.1-16-32.3c-9.2-9.2-20.4-12.5-32.3-16
					c-12.5-3.7-25.4-7.4-36.3-18.3c-10.9-10.9-14.7-23.8-18.3-36.3c-3.5-11.9-6.8-23.1-16-32.3c-9.2-9.2-20.4-12.5-32.3-16
					c-12.5-3.7-25.4-7.4-36.3-18.3c-10.9-10.9-14.7-23.8-18.3-36.3c-3.5-11.9-6.8-23.1-16-32.3c-9.2-9.2-20.4-12.5-32.3-16
					c-12.5-3.7-25.4-7.4-36.3-18.3c-10.9-10.9-14.7-23.8-18.3-36.3c-3.5-11.9-6.8-23.1-16-32.3c-9.2-9.2-20.4-12.5-32.3-16
					c-12.5-3.7-25.4-7.4-36.3-18.3c-10.9-10.9-14.7-23.8-18.3-36.3c-3.5-11.9-6.8-23.1-16-32.3c-6.9-6.9-15-10.3-21.3-12.5l3.1-8.8
					c7.2,2.5,16.6,6.5,24.8,14.7c10.9,10.9,14.7,23.8,18.3,36.3c3.5,11.9,6.8,23.1,16,32.3c9.2,9.2,20.4,12.5,32.3,16
					c12.5,3.7,25.4,7.4,36.3,18.3c10.9,10.9,14.7,23.8,18.3,36.3c3.5,11.9,6.8,23.1,16,32.3c9.2,9.2,20.4,12.5,32.3,16
					c12.5,3.7,25.4,7.4,36.3,18.3c10.9,10.9,14.7,23.8,18.3,36.3c3.5,11.9,6.8,23.1,16,32.3c9.2,9.2,20.4,12.5,32.3,16
					c12.5,3.7,25.4,7.4,36.3,18.3c10.9,10.9,14.7,23.8,18.3,36.3c3.5,11.9,6.8,23.1,16,32.3c9.2,9.2,20.4,12.5,32.3,16
					c12.5,3.7,25.4,7.4,36.3,18.3c10.9,10.9,14.7,23.8,18.3,36.3c3.5,11.9,6.8,23.1,16,32.3c9.2,9.2,20.4,12.5,32.3,16
					c12.5,3.7,25.4,7.4,36.3,18.3c8.3,8.3,12.2,17.6,14.7,24.8L784.6,562.1z"/>
			</g>
			<path style="fill:#F7931E;" d="M746.6,591.7c-2.2-6.3-5.6-14.4-12.5-21.3c-9.2-9.2-20.4-12.5-32.3-16
				c-12.5-3.7-25.4-7.4-36.3-18.3c-10.9-10.9-14.7-23.8-18.3-36.3c-3.5-11.9-6.8-23.1-16-32.3c-9.2-9.2-20.4-12.5-32.3-16
				c-12.5-3.7-25.4-7.4-36.3-18.3c-10.9-10.9-14.7-23.8-18.3-36.3c-3.5-11.9-6.8-23.1-16-32.3c-9.2-9.2-20.4-12.5-32.3-16
				c-12.5-3.7-25.4-7.4-36.3-18.3c-10.9-10.9-14.7-23.8-18.3-36.3c-3.5-11.9-6.8-23.1-16-32.3c-9.2-9.2-20.4-12.5-32.3-16
				c-12.5-3.7-25.4-7.4-36.3-18.3c-10.9-10.9-14.7-23.8-18.3-36.3c-3.5-11.9-6.8-23.1-16-32.3c-9.2-9.2-20.4-12.5-32.3-16
				c-12.5-3.7-25.4-7.4-36.3-18.3c-10.9-10.9-14.7-23.8-18.3-36.3c-3.5-11.9-6.8-23.1-16-32.3c-6.9-6.9-15-10.3-21.3-12.5l3.1-8.8
				c7.2,2.5,16.6,6.5,24.8,14.7c10.9,10.9,14.7,23.8,18.3,36.3c3.5,11.9,6.8,23.1,16,32.3c9.2,9.2,20.4,12.5,32.3,16
				c12.5,3.7,25.4,7.4,36.3,18.3c10.9,10.9,14.7,23.8,18.3,36.3c3.5,11.9,6.8,23.1,16,32.3c9.2,9.2,20.4,12.5,32.3,16
				c12.5,3.7,25.4,7.4,36.3,18.3c10.9,10.9,14.7,23.8,18.3,36.3c3.5,11.9,6.8,23.1,16,32.3c9.2,9.2,20.4,12.5,32.3,16
				c12.5,3.7,25.4,7.4,36.3,18.3c10.9,10.9,14.7,23.8,18.3,36.3c3.5,11.9,6.8,23.1,16,32.3c9.2,9.2,20.4,12.5,32.3,16
				c12.5,3.7,25.4,7.4,36.3,18.3c10.9,10.9,14.7,23.8,18.3,36.3c3.5,11.9,6.8,23.1,16,32.3c9.2,9.2,20.4,12.5,32.3,16
				c12.5,3.7,25.4,7.4,36.3,18.3c8.3,8.3,12.2,17.6,14.7,24.8L746.6,591.7z"/>
			<path style="fill:#F7931E;" d="M708.6,621.3c-2.2-6.3-5.6-14.4-12.5-21.3c-9.2-9.2-20.4-12.5-32.3-16
				c-12.5-3.7-25.4-7.4-36.3-18.3c-10.9-10.9-14.7-23.8-18.3-36.3c-3.5-11.9-6.8-23.1-16-32.3c-9.2-9.2-20.4-12.5-32.3-16
				c-12.5-3.7-25.4-7.4-36.3-18.3c-10.9-10.9-14.7-23.8-18.3-36.3c-3.5-11.9-6.8-23.1-16-32.3c-9.2-9.2-20.4-12.5-32.3-16
				c-12.5-3.7-25.4-7.4-36.3-18.3c-10.9-10.9-14.7-23.8-18.3-36.3c-3.5-11.9-6.8-23.1-16-32.3c-9.2-9.2-20.4-12.5-32.3-16
				c-12.5-3.7-25.4-7.4-36.3-18.3c-10.9-10.9-14.7-23.8-18.3-36.3c-3.5-11.9-6.8-23.1-16-32.3c-9.2-9.2-20.4-12.5-32.3-16
				c-12.5-3.7-25.4-7.4-36.3-18.3c-10.9-10.9-14.7-23.8-18.3-36.3c-3.5-11.9-6.8-23.1-16-32.3c-6.9-6.9-15-10.3-21.3-12.5l3.1-8.8
				c7.2,2.5,16.6,6.5,24.8,14.7c10.9,10.9,14.7,23.8,18.3,36.3c3.5,11.9,6.8,23.1,16,32.3c9.2,9.2,20.4,12.5,32.3,16
				c12.5,3.7,25.4,7.4,36.3,18.3c10.9,10.9,14.7,23.8,18.3,36.3c3.5,11.9,6.8,23.1,16,32.3c9.2,9.2,20.4,12.5,32.3,16
				c12.5,3.7,25.4,7.4,36.3,18.3c10.9,10.9,14.7,23.8,18.3,36.3c3.5,11.9,6.8,23.1,16,32.3c9.2,9.2,20.4,12.5,32.3,16
				c12.5,3.7,25.4,7.4,36.3,18.3c10.9,10.9,14.7,23.8,18.3,36.3c3.5,11.9,6.8,23.1,16,32.3c9.2,9.2,20.4,12.5,32.3,16
				c12.5,3.7,25.4,7.4,36.3,18.3c10.9,10.9,14.7,23.8,18.3,36.3c3.5,11.9,6.8,23.1,16,32.3c9.2,9.2,20.4,12.5,32.3,16
				c12.5,3.7,25.4,7.4,36.3,18.3c8.3,8.3,12.2,17.6,14.7,24.8L708.6,621.3z"/>
			<path style="fill:#F7931E;" d="M670.6,650.8c-2.2-6.3-5.6-14.4-12.5-21.3c-9.2-9.2-20.4-12.5-32.3-16
				c-12.5-3.7-25.4-7.4-36.3-18.3c-10.9-10.9-14.7-23.8-18.3-36.3c-3.5-11.9-6.8-23.1-16-32.3c-9.2-9.2-20.4-12.5-32.3-16
				c-12.5-3.7-25.4-7.4-36.3-18.3c-10.9-10.9-14.7-23.8-18.3-36.3c-3.5-11.9-6.8-23.1-16-32.3c-9.2-9.2-20.4-12.5-32.3-16
				c-12.5-3.7-25.4-7.4-36.3-18.3c-10.9-10.9-14.7-23.8-18.3-36.3c-3.5-11.9-6.8-23.1-16-32.3c-9.2-9.2-20.4-12.5-32.3-16
				c-12.5-3.7-25.4-7.4-36.3-18.3c-10.9-10.9-14.7-23.8-18.3-36.3c-3.5-11.9-6.8-23.1-16-32.3c-9.2-9.2-20.4-12.5-32.3-16
				c-12.5-3.7-25.4-7.4-36.3-18.3c-10.9-10.9-14.7-23.8-18.3-36.3c-3.5-11.9-6.8-23.1-16-32.3c-6.9-6.9-15-10.3-21.3-12.5l3.1-8.8
				c7.2,2.5,16.6,6.5,24.8,14.7c10.9,10.9,14.7,23.8,18.3,36.3c3.5,11.9,6.8,23.1,16,32.3c9.2,9.2,20.4,12.5,32.3,16
				c12.5,3.7,25.4,7.4,36.3,18.3c10.9,10.9,14.7,23.8,18.3,36.3c3.5,11.9,6.8,23.1,16,32.3c9.2,9.2,20.4,12.5,32.3,16
				c12.5,3.7,25.4,7.4,36.3,18.3c10.9,10.9,14.7,23.8,18.3,36.3c3.5,11.9,6.8,23.1,16,32.3c9.2,9.2,20.4,12.5,32.3,16
				c12.5,3.7,25.4,7.4,36.3,18.3c10.9,10.9,14.7,23.8,18.3,36.3c3.5,11.9,6.8,23.1,16,32.3c9.2,9.2,20.4,12.5,32.3,16
				c12.5,3.7,25.4,7.4,36.3,18.3c10.9,10.9,14.7,23.8,18.3,36.3c3.5,11.9,6.8,23.1,16,32.3c9.2,9.2,20.4,12.5,32.3,16
				c12.5,3.7,25.4,7.4,36.3,18.3c8.3,8.3,12.2,17.6,14.7,24.8L670.6,650.8z"/>
			<path style="fill:#F7931E;" d="M632.6,680.4c-2.2-6.3-5.6-14.4-12.5-21.3c-9.2-9.2-20.4-12.5-32.3-16
				c-12.5-3.7-25.4-7.4-36.3-18.3c-10.9-10.9-14.7-23.8-18.3-36.3c-3.5-11.9-6.8-23.1-16-32.3c-9.2-9.2-20.4-12.5-32.3-16
				c-12.5-3.7-25.4-7.4-36.3-18.3c-10.9-10.9-14.7-23.8-18.3-36.3c-3.5-11.9-6.8-23.1-16-32.3c-9.2-9.2-20.4-12.5-32.3-16
				c-12.5-3.7-25.4-7.4-36.3-18.3c-10.9-10.9-14.7-23.8-18.3-36.3c-3.5-11.9-6.8-23.1-16-32.3c-9.2-9.2-20.4-12.5-32.3-16
				c-12.5-3.7-25.4-7.4-36.3-18.3c-10.9-10.9-14.7-23.8-18.3-36.3c-3.5-11.9-6.8-23.1-16-32.3c-9.2-9.2-20.4-12.5-32.3-16
				c-12.5-3.7-25.4-7.4-36.3-18.3c-10.9-10.9-14.7-23.8-18.3-36.3c-3.5-11.9-6.8-23.1-16-32.3c-6.9-6.9-15-10.3-21.3-12.5l3.1-8.8
				c7.2,2.5,16.6,6.5,24.8,14.7c10.9,10.9,14.7,23.8,18.3,36.3c3.5,11.9,6.8,23.1,16,32.3c9.2,9.2,20.4,12.5,32.3,16
				c12.5,3.7,25.4,7.4,36.3,18.3c10.9,10.9,14.7,23.8,18.3,36.3c3.5,11.9,6.8,23.1,16,32.3c9.2,9.2,20.4,12.5,32.3,16
				c12.5,3.7,25.4,7.4,36.3,18.3c10.9,10.9,14.7,23.8,18.3,36.3c3.5,11.9,6.8,23.1,16,32.3c9.2,9.2,20.4,12.5,32.3,16
				c12.5,3.7,25.4,7.4,36.3,18.3c10.9,10.9,14.7,23.8,18.3,36.3c3.5,11.9,6.8,23.1,16,32.3c9.2,9.2,20.4,12.5,32.3,16
				c12.5,3.7,25.4,7.4,36.3,18.3c10.9,10.9,14.7,23.8,18.3,36.3c3.5,11.9,6.8,23.1,16,32.3c9.2,9.2,20.4,12.5,32.3,16
				c12.5,3.7,25.4,7.4,36.3,18.3c8.3,8.3,12.2,17.6,14.7,24.8L632.6,680.4z"/>
			<path style="fill:#F7931E;" d="M594.6,710c-2.2-6.3-5.6-14.4-12.5-21.3c-9.2-9.2-20.4-12.5-32.3-16c-12.5-3.7-25.4-7.4-36.3-18.3
				c-10.9-10.9-14.7-23.8-18.3-36.3c-3.5-11.9-6.8-23.1-16-32.3c-9.2-9.2-20.4-12.5-32.3-16c-12.5-3.7-25.4-7.4-36.3-18.3
				c-10.9-10.9-14.7-23.8-18.3-36.3c-3.5-11.9-6.8-23.1-16-32.3c-9.2-9.2-20.4-12.5-32.3-16c-12.5-3.7-25.4-7.4-36.3-18.3
				c-10.9-10.9-14.7-23.8-18.3-36.3c-3.5-11.9-6.8-23.1-16-32.3c-9.2-9.2-20.4-12.5-32.3-16c-12.5-3.7-25.4-7.4-36.3-18.3
				c-10.9-10.9-14.7-23.8-18.3-36.3c-3.5-11.9-6.8-23.1-16-32.3c-9.2-9.2-20.4-12.5-32.3-16c-12.5-3.7-25.4-7.4-36.3-18.3
				c-10.9-10.9-14.7-23.8-18.3-36.3c-3.5-11.9-6.8-23.1-16-32.3c-6.9-6.9-15-10.3-21.3-12.5l3.1-8.8c7.2,2.5,16.6,6.5,24.8,14.7
				c10.9,10.9,14.7,23.8,18.3,36.3c3.5,11.9,6.8,23.1,16,32.3c9.2,9.2,20.4,12.5,32.3,16c12.5,3.7,25.4,7.4,36.3,18.3
				c10.9,10.9,14.7,23.8,18.3,36.3c3.5,11.9,6.8,23.1,16,32.3c9.2,9.2,20.4,12.5,32.3,16c12.5,3.7,25.4,7.4,36.3,18.3
				c10.9,10.9,14.7,23.8,18.3,36.3c3.5,11.9,6.8,23.1,16,32.3c9.2,9.2,20.4,12.5,32.3,16c12.5,3.7,25.4,7.4,36.3,18.3
				c10.9,10.9,14.7,23.8,18.3,36.3c3.5,11.9,6.8,23.1,16,32.3c9.2,9.2,20.4,12.5,32.3,16c12.5,3.7,25.4,7.4,36.3,18.3
				c10.9,10.9,14.7,23.8,18.3,36.3c3.5,11.9,6.8,23.1,16,32.3c9.2,9.2,20.4,12.5,32.3,16c12.5,3.7,25.4,7.4,36.3,18.3
				c8.3,8.3,12.2,17.6,14.7,24.8L594.6,710z"/>
			<g>
				<path style="fill:#F7931E;" d="M556.6,739.6c-2.2-6.3-5.6-14.4-12.5-21.3c-9.2-9.2-20.4-12.5-32.3-16
					c-12.5-3.7-25.4-7.4-36.3-18.3c-10.9-10.9-14.7-23.8-18.3-36.3c-3.5-11.9-6.8-23.1-16-32.3c-9.2-9.2-20.4-12.5-32.3-16
					c-12.5-3.7-25.4-7.4-36.3-18.3c-10.9-10.9-14.7-23.8-18.3-36.3c-3.5-11.9-6.8-23.1-16-32.3c-9.2-9.2-20.4-12.5-32.3-16
					c-12.5-3.7-25.4-7.4-36.3-18.3c-10.9-10.9-14.7-23.8-18.3-36.3c-3.5-11.9-6.8-23.1-16-32.3c-9.2-9.2-20.4-12.5-32.3-16
					c-12.5-3.7-25.4-7.4-36.3-18.3c-10.9-10.9-14.7-23.8-18.3-36.3c-3.5-11.9-6.8-23.1-16-32.3c-9.2-9.2-20.4-12.5-32.3-16
					c-12.5-3.7-25.4-7.4-36.3-18.3c-10.9-10.9-14.7-23.8-18.3-36.3c-3.5-11.9-6.8-23.1-16-32.3c-6.9-6.9-15-10.3-21.3-12.5l3.1-8.8
					c7.2,2.5,16.6,6.5,24.8,14.7c10.9,10.9,14.7,23.8,18.3,36.3c3.5,11.9,6.8,23.1,16,32.3c9.2,9.2,20.4,12.5,32.3,16
					c12.5,3.7,25.4,7.4,36.3,18.3c10.9,10.9,14.7,23.8,18.3,36.3c3.5,11.9,6.8,23.1,16,32.3c9.2,9.2,20.4,12.5,32.3,16
					c12.5,3.7,25.4,7.4,36.3,18.3c10.9,10.9,14.7,23.8,18.3,36.3c3.5,11.9,6.8,23.1,16,32.3c9.2,9.2,20.4,12.5,32.3,16
					c12.5,3.7,25.4,7.4,36.3,18.3c10.9,10.9,14.7,23.8,18.3,36.3c3.5,11.9,6.8,23.1,16,32.3c9.2,9.2,20.4,12.5,32.3,16
					c12.5,3.7,25.4,7.4,36.3,18.3c10.9,10.9,14.7,23.8,18.3,36.3c3.5,11.9,6.8,23.1,16,32.3c9.2,9.2,20.4,12.5,32.3,16
					c12.5,3.7,25.4,7.4,36.3,18.3c8.3,8.3,12.2,17.6,14.7,24.8L556.6,739.6z"/>
			</g>
		</g>
	</g>
</g>
</svg>
