<?xml version="1.0" encoding="utf-8"?>
<!-- Generator: Adobe Illustrator 24.1.3, SVG Export Plug-In . SVG Version: 6.00 Build 0)  -->
<svg version="1.1" xmlns="http://www.w3.org/2000/svg" xmlns:xlink="http://www.w3.org/1999/xlink" x="0px" y="0px"
	 viewBox="0 0 1920 350" style="enable-background:new 0 0 1920 350;" xml:space="preserve">
<g id="Layer_1">
</g>
<g id="Layer_2">
</g>
<g id="Layer_3">
	<g style="opacity:0.15;">
		<g>
			<g>
				<path style="fill:#F7931E;" d="M387.4,350h-10.9c-1.5-2.3-3.3-4.5-5.5-6.7c-9.2-9.2-20.4-12.5-32.3-16
					c-12.5-3.6-25.4-7.4-36.3-18.3s-14.7-23.8-18.3-36.3c-3.5-11.9-6.8-23.1-16-32.3c-9.2-9.2-20.4-12.5-32.3-16
					c-12.5-3.7-25.4-7.4-36.3-18.3S185,182.5,181.4,170c-3.5-11.9-6.8-23.1-16-32.3c-9.2-9.2-20.4-12.5-32.3-16
					c-12.5-3.7-25.4-7.4-36.3-18.3C86,92.5,82.2,79.6,78.5,67.2c-3.5-11.9-6.8-23.1-15.9-32.3c-9.2-9.2-20.4-12.5-32.3-16
					C20,15.9,9.5,12.8,0,5.8V0h8c7.6,4.9,16,7.4,24.9,10c12.5,3.7,25.4,7.4,36.3,18.3s14.7,23.8,18.3,36.3
					c3.5,11.9,6.8,23.1,16,32.3c9.2,9.2,20.4,12.5,32.3,16c12.5,3.7,25.4,7.4,36.3,18.3s14.7,23.8,18.3,36.3
					c3.5,11.9,6.8,23.1,16,32.3c9.2,9.2,20.4,12.5,32.3,16c12.5,3.7,25.4,7.4,36.3,18.3c10.9,10.9,14.7,23.8,18.3,36.3
					c3.5,11.9,6.8,23.1,16,32.3c9.2,9.2,20.4,12.5,32.3,16c12.5,3.7,25.4,7.4,36.3,18.3C381.9,341,385,345.6,387.4,350z"/>
			</g>
			<path style="fill:#F7931E;" d="M310.1,350H281c-5.8-2.7-11.4-6.3-16.5-11.4c-10.9-10.9-14.7-23.8-18.3-36.3
				c-3.5-11.9-6.8-23.1-16-32.3c-9.2-9.2-20.4-12.5-32.3-16c-12.5-3.7-25.4-7.4-36.3-18.3S147,212,143.4,199.5
				c-3.5-11.9-6.8-23.1-16-32.3c-9.2-9.2-20.4-12.5-32.3-16c-12.5-3.7-25.4-7.4-36.3-18.3C48,122.1,44.2,109.2,40.5,96.7
				c-3.5-11.9-6.8-23.1-16-32.3C17.4,57.3,9,53.7,0,50.8v-9.8c10.8,3.3,21.8,7.4,31.2,16.8c10.9,10.9,14.7,23.8,18.3,36.3
				c3.5,11.9,6.8,23.1,16,32.3c9.2,9.2,20.4,12.5,32.3,16c12.5,3.6,25.4,7.4,36.3,18.3s14.7,23.8,18.3,36.3
				c3.5,11.9,6.8,23.1,16,32.3c9.2,9.2,20.4,12.5,32.3,16c12.5,3.6,25.4,7.4,36.3,18.3s14.7,23.8,18.3,36.3
				c3.5,11.9,6.8,23.1,16,32.3c9.2,9.2,20.4,12.5,32.3,16C305.6,348.6,307.8,349.3,310.1,350z"/>
			<path style="fill:#F7931E;" d="M224.6,350h-10.3c-2.6-5.9-4.4-12-6.1-18.1c-3.5-11.9-6.8-23.1-16-32.3
				c-9.2-9.2-20.4-12.5-32.3-16c-12.5-3.7-25.4-7.4-36.3-18.3c-10.9-10.9-14.7-23.8-18.3-36.3c-3.5-11.9-6.8-23.1-16-32.3
				c-9.2-9.2-20.4-12.5-32.3-16c-12.5-3.7-25.4-7.4-36.3-18.3C10,151.7,6.2,138.8,2.5,126.3c-0.8-2.8-1.6-5.6-2.5-8.4V95.8
				c5.9,8.9,8.7,18.5,11.5,27.9c3.5,11.9,6.8,23.1,16,32.3c9.2,9.2,20.4,12.5,32.3,16c12.5,3.7,25.4,7.4,36.3,18.3
				c10.9,10.9,14.7,23.8,18.3,36.3c3.5,11.9,6.8,23.1,16,32.3c9.2,9.2,20.4,12.5,32.3,16c12.5,3.7,25.4,7.4,36.3,18.3
				s14.7,23.8,18.3,36.3C219.2,336.6,221.3,343.6,224.6,350z"/>
			<path style="fill:#F7931E;" d="M176.4,350h-9.9c-2.7-7.6-6.2-14.6-12.3-20.8c-9.2-9.2-20.4-12.5-32.3-16
				c-12.5-3.6-25.4-7.4-36.3-18.3c-10.9-10.9-14.7-23.8-18.3-36.3c-3.5-11.9-6.8-23.1-16-32.3c-9.2-9.2-20.4-12.5-32.3-16
				c-6.4-1.9-12.8-3.8-19.1-6.6v-10.4c6.7,3.7,14.1,5.9,21.7,8.1c12.5,3.7,25.4,7.4,36.3,18.3c10.9,10.9,14.7,23.8,18.3,36.3
				c3.5,11.9,6.8,23.1,16,32.3c9.2,9.2,20.4,12.5,32.3,16c12.5,3.7,25.4,7.4,36.3,18.3C169.1,330.9,173.3,340.4,176.4,350z"/>
			<path style="fill:#F7931E;" d="M120.4,350h-16.6c-6.2-3.1-13-5.1-19.9-7.2c-12.5-3.7-25.4-7.4-36.3-18.3
				c-10.9-10.9-14.6-23.8-18.3-36.3c-3.5-11.9-6.8-23.1-16-32.3c-4.1-4.1-8.6-7-13.4-9.3v-10.2c7,2.9,13.8,6.8,20,12.9
				c10.9,10.9,14.7,23.8,18.3,36.3c3.5,11.9,6.8,23.1,16,32.3c9.2,9.2,20.4,12.5,32.3,16C98.1,337.3,110.1,340.8,120.4,350z"/>
			<path style="fill:#F7931E;" d="M18.9,350h-13c-2.3-2.9-4.3-5.9-5.9-9v-26.8c0.1,0.3,0.2,0.7,0.3,1c3.5,11.9,6.8,23.1,16,32.3
				C17.1,348.4,18,349.2,18.9,350z"/>
		</g>
	</g>
	<g style="opacity:0.15;">
		<g>
			<g>
				<path style="fill:#F7931E;" d="M855.4,350h-10.9c-1.5-2.3-3.3-4.5-5.5-6.7c-9.2-9.2-20.4-12.5-32.3-16
					c-12.5-3.6-25.4-7.4-36.3-18.3s-14.7-23.8-18.3-36.3c-3.5-11.9-6.8-23.1-16-32.3c-9.2-9.2-20.4-12.5-32.3-16
					c-12.5-3.7-25.4-7.4-36.3-18.3S653,182.5,649.4,170c-3.5-11.9-6.8-23.1-16-32.3c-9.2-9.2-20.4-12.5-32.3-16
					c-12.5-3.7-25.4-7.4-36.3-18.3c-10.9-10.9-14.7-23.8-18.3-36.3c-3.5-11.9-6.8-23.1-16-32.3c-9.2-9.2-20.4-12.5-32.3-16
					c-12.5-3.6-25.4-7.4-36.3-18.3c-0.2-0.2-0.4-0.4-0.6-0.6H476c7.6,4.9,16,7.4,24.9,10c12.5,3.7,25.4,7.4,36.3,18.3
					s14.7,23.8,18.3,36.3c3.5,11.9,6.8,23.1,16,32.3c9.2,9.2,20.4,12.5,32.3,16c12.5,3.7,25.4,7.4,36.3,18.3s14.7,23.8,18.3,36.3
					c3.5,11.9,6.8,23.1,16,32.3c9.2,9.2,20.4,12.5,32.3,16c12.5,3.7,25.4,7.4,36.3,18.3c10.9,10.9,14.7,23.8,18.3,36.3
					c3.5,11.9,6.8,23.1,16,32.3c9.2,9.2,20.4,12.5,32.3,16c12.5,3.7,25.4,7.4,36.3,18.3C849.9,341,853,345.6,855.4,350z"/>
			</g>
			<path style="fill:#F7931E;" d="M778.1,350H749c-5.8-2.7-11.4-6.3-16.5-11.4c-10.9-10.9-14.7-23.8-18.3-36.3
				c-3.5-11.9-6.8-23.1-16-32.3c-9.2-9.2-20.4-12.5-32.3-16c-12.5-3.7-25.4-7.4-36.3-18.3S615,212,611.4,199.5
				c-3.5-11.9-6.8-23.1-16-32.3c-9.2-9.2-20.4-12.5-32.3-16c-12.5-3.7-25.4-7.4-36.3-18.3c-10.9-10.9-14.6-23.8-18.3-36.3
				c-3.5-11.9-6.8-23.1-16-32.3c-9.2-9.2-20.4-12.5-32.3-16c-12.5-3.7-25.4-7.4-36.3-18.3c-9.1-9.1-13.3-19.7-16.5-30.2h9.8
				c2.8,8.6,6.4,16.7,13.3,23.6c9.2,9.2,20.4,12.5,32.3,16c12.5,3.7,25.4,7.4,36.3,18.3c10.9,10.9,14.7,23.8,18.3,36.3
				c3.5,11.9,6.8,23.1,16,32.3c9.2,9.2,20.4,12.5,32.3,16c12.5,3.6,25.4,7.4,36.3,18.3s14.7,23.8,18.3,36.3
				c3.5,11.9,6.8,23.1,16,32.3c9.2,9.2,20.4,12.5,32.3,16c12.5,3.6,25.4,7.4,36.3,18.3s14.7,23.8,18.3,36.3
				c3.5,11.9,6.8,23.1,16,32.3c9.2,9.2,20.4,12.5,32.3,16C773.6,348.6,775.8,349.3,778.1,350z"/>
			<path style="fill:#F7931E;" d="M692.6,350h-10.3c-2.6-5.9-4.4-12-6.1-18.1c-3.5-11.9-6.8-23.1-16-32.3
				c-9.2-9.2-20.4-12.5-32.3-16c-12.5-3.7-25.4-7.4-36.3-18.3c-10.9-10.9-14.7-23.8-18.3-36.3c-3.5-11.9-6.8-23.1-16-32.3
				c-9.2-9.2-20.4-12.5-32.3-16c-12.5-3.7-25.4-7.4-36.3-18.3c-10.9-10.9-14.6-23.8-18.3-36.3c-3.5-11.9-6.8-23.1-16-32.3
				c-9.2-9.2-20.4-12.5-32.3-16c-12.5-3.7-25.4-7.4-36.3-18.3S371.4,36,367.7,23.5c-2.4-8.3-4.8-16.3-9.1-23.5h10.6
				c3.3,6.8,5.4,13.9,7.5,20.9c3.5,11.9,6.8,23.1,16,32.3c9.2,9.2,20.4,12.5,32.3,16c12.5,3.7,25.4,7.4,36.3,18.3
				s14.7,23.8,18.3,36.3c3.5,11.9,6.8,23.1,16,32.3c9.2,9.2,20.4,12.5,32.3,16c12.5,3.7,25.4,7.4,36.3,18.3
				c10.9,10.9,14.7,23.8,18.3,36.3c3.5,11.9,6.8,23.1,16,32.3c9.2,9.2,20.4,12.5,32.3,16c12.5,3.7,25.4,7.4,36.3,18.3
				s14.7,23.8,18.3,36.3C687.2,336.6,689.3,343.6,692.6,350z"/>
			<path style="fill:#F7931E;" d="M644.4,350h-9.9c-2.7-7.6-6.2-14.6-12.3-20.8c-9.2-9.2-20.4-12.5-32.3-16
				c-12.5-3.6-25.4-7.4-36.3-18.3c-10.9-10.9-14.7-23.8-18.3-36.3c-3.5-11.9-6.8-23.1-16-32.3c-9.2-9.2-20.4-12.5-32.3-16
				c-12.5-3.7-25.4-7.4-36.3-18.3c-10.9-10.9-14.6-23.8-18.3-36.3c-3.5-11.9-6.8-23.1-16-32.3c-9.2-9.2-20.4-12.5-32.3-16
				c-12.5-3.7-25.4-7.4-36.3-18.3c-10.9-10.9-14.7-23.8-18.3-36.3c-3.5-11.9-6.8-23.1-16-32.3c-9.2-9.2-20.4-12.5-32.3-16
				c-4.9-1.4-9.9-2.9-14.9-4.8H297c8.2,3,16.2,7.1,23.3,14.2C331.2,25.1,335,38,338.7,50.5c3.5,11.9,6.8,23.1,16,32.3
				c9.2,9.2,20.4,12.5,32.3,16c12.5,3.7,25.4,7.4,36.3,18.3c10.9,10.9,14.7,23.8,18.3,36.3c3.5,11.9,6.8,23.1,16,32.3
				c9.2,9.2,20.4,12.5,32.3,16c12.5,3.7,25.4,7.4,36.3,18.3c10.9,10.9,14.7,23.8,18.3,36.3c3.5,11.9,6.8,23.1,16,32.3
				c9.2,9.2,20.4,12.5,32.3,16c12.5,3.7,25.4,7.4,36.3,18.3C637.1,330.9,641.3,340.4,644.4,350z"/>
			<path style="fill:#F7931E;" d="M588.4,350h-16.6c-6.2-3.1-13-5.1-19.9-7.2c-12.5-3.7-25.4-7.4-36.3-18.3
				c-10.9-10.9-14.7-23.8-18.3-36.3c-3.5-11.9-6.8-23.1-16-32.3c-9.2-9.2-20.4-12.5-32.3-16c-12.5-3.7-25.4-7.4-36.3-18.3
				c-10.9-10.9-14.7-23.8-18.3-36.3c-3.5-11.9-6.8-23.1-16-32.3c-9.2-9.2-20.4-12.5-32.3-16c-12.5-3.6-25.4-7.4-36.3-18.3
				s-14.7-23.8-18.3-36.3c-3.5-11.9-6.8-23.1-16-32.3c-9.2-9.2-20.4-12.5-32.3-16c-12.5-3.6-25.4-7.4-36.3-18.3
				c-5-5-8.5-10.5-11.2-16.1h10.5c2,3.3,4.3,6.5,7.3,9.5c9.2,9.2,20.4,12.5,32.3,16c12.5,3.7,25.4,7.4,36.3,18.3
				C293.2,54.7,297,67.6,300.7,80c3.5,11.9,6.8,23.1,16,32.3c9.2,9.2,20.4,12.5,32.3,16c12.5,3.7,25.4,7.4,36.3,18.3
				s14.6,23.8,18.3,36.3c3.5,11.9,6.8,23.1,16,32.3c9.2,9.2,20.4,12.5,32.3,16c12.5,3.7,25.4,7.4,36.3,18.3s14.7,23.8,18.3,36.3
				c3.5,11.9,6.8,23.1,16,32.3c9.2,9.2,20.4,12.5,32.3,16C566.1,337.3,578.1,340.8,588.4,350z"/>
			<path style="fill:#F7931E;" d="M486.9,350h-13c-8.1-9.9-11.4-21.2-14.6-32.1c-3.5-11.9-6.8-23.1-16-32.3
				c-9.2-9.2-20.4-12.5-32.3-16c-12.5-3.7-25.4-7.4-36.3-18.3c-10.9-10.9-14.7-23.8-18.3-36.3c-3.5-11.9-6.8-23.1-16-32.3
				c-9.2-9.2-20.4-12.5-32.3-16c-12.5-3.7-25.4-7.4-36.3-18.3s-14.7-23.8-18.3-36.3c-3.5-11.9-6.8-23.1-16-32.3
				c-9.2-9.2-20.4-12.5-32.3-16c-12.5-3.7-25.4-7.4-36.3-18.3s-14.7-23.8-18.3-36.3C150,6.2,149.1,3.1,148,0h9.8
				c0.7,2.3,1.4,4.5,2,6.8c3.5,11.9,6.8,23.1,16,32.3c9.2,9.2,20.4,12.5,32.3,16c12.5,3.7,25.4,7.4,36.3,18.3
				c10.9,10.9,14.7,23.8,18.3,36.3c3.5,11.9,6.8,23.1,16,32.3c9.2,9.2,20.4,12.5,32.3,16c12.5,3.7,25.4,7.4,36.3,18.3
				c10.9,10.9,14.6,23.8,18.3,36.3c3.5,11.9,6.8,23.1,16,32.3c9.2,9.2,20.4,12.5,32.3,16c12.5,3.7,25.4,7.4,36.3,18.3
				s14.7,23.8,18.3,36.3c3.5,11.9,6.8,23.1,16,32.3C485.1,348.4,486,349.2,486.9,350z"/>
			<g>
				<path style="fill:#F7931E;" d="M431.8,350h-9.7c-0.3-0.9-0.5-1.7-0.8-2.6c-3.5-11.9-6.8-23.1-16-32.3
					c-9.2-9.2-20.4-12.5-32.3-16c-12.5-3.7-25.4-7.4-36.3-18.3c-10.9-10.9-14.7-23.8-18.3-36.3c-3.5-11.9-6.8-23.1-16-32.3
					c-9.2-9.2-20.4-12.5-32.3-16c-12.5-3.7-25.4-7.4-36.3-18.3s-14.7-23.8-18.3-36.3c-3.5-11.9-6.8-23.1-16-32.3
					c-9.2-9.2-20.4-12.5-32.3-16c-12.5-3.7-25.4-7.4-36.3-18.3c-10.9-10.9-14.7-23.8-18.3-36.3c-3.5-11.9-6.8-23.1-16-32.3
					C94.2,4,91.3,1.8,88.4,0h15.1c0,0,0.1,0.1,0.1,0.1c10.9,10.9,14.7,23.8,18.3,36.3c3.5,11.9,6.8,23.1,16,32.3
					c9.2,9.2,20.4,12.5,32.3,16c12.5,3.6,25.4,7.4,36.3,18.3c10.9,10.9,14.7,23.8,18.3,36.3c3.5,11.9,6.8,23.1,16,32.3
					c9.2,9.2,20.4,12.5,32.3,16c12.5,3.6,25.4,7.4,36.3,18.3c10.9,10.9,14.6,23.8,18.3,36.3c3.5,11.9,6.8,23.1,16,32.3
					c9.2,9.2,20.4,12.5,32.3,16c12.5,3.7,25.4,7.4,36.3,18.3s14.6,23.8,18.3,36.3C430.8,346.6,431.3,348.3,431.8,350z"/>
			</g>
		</g>
	</g>
	<g style="opacity:0.15;">
		<g>
			<g>
				<path style="fill:#F7931E;" d="M1323.4,350h-10.9c-1.5-2.3-3.3-4.5-5.5-6.7c-9.2-9.2-20.4-12.5-32.3-16
					c-12.5-3.6-25.4-7.4-36.3-18.3s-14.7-23.8-18.3-36.3c-3.5-11.9-6.8-23.1-16-32.3c-9.2-9.2-20.4-12.5-32.3-16
					c-12.5-3.7-25.4-7.4-36.3-18.3s-14.7-23.8-18.3-36.3c-3.5-11.9-6.8-23.1-16-32.3c-9.2-9.2-20.4-12.5-32.3-16
					c-12.5-3.7-25.4-7.4-36.3-18.3c-10.9-10.9-14.7-23.8-18.3-36.3c-3.5-11.9-6.8-23.1-16-32.3c-9.2-9.2-20.4-12.5-32.3-16
					c-12.5-3.6-25.4-7.4-36.3-18.3c-0.2-0.2-0.4-0.4-0.6-0.6H944c7.6,4.9,16,7.4,24.9,10c12.5,3.7,25.4,7.4,36.3,18.3
					s14.7,23.8,18.3,36.3c3.5,11.9,6.8,23.1,16,32.3c9.2,9.2,20.4,12.5,32.3,16c12.5,3.7,25.4,7.4,36.3,18.3s14.7,23.8,18.3,36.3
					c3.5,11.9,6.8,23.1,16,32.3c9.2,9.2,20.4,12.5,32.3,16c12.5,3.7,25.4,7.4,36.3,18.3c10.9,10.9,14.7,23.8,18.3,36.3
					c3.5,11.9,6.8,23.1,16,32.3c9.2,9.2,20.4,12.5,32.3,16c12.5,3.7,25.4,7.4,36.3,18.3C1317.9,341,1321,345.6,1323.4,350z"/>
			</g>
			<path style="fill:#F7931E;" d="M1246.1,350H1217c-5.8-2.7-11.4-6.3-16.5-11.4c-10.9-10.9-14.7-23.8-18.3-36.3
				c-3.5-11.9-6.8-23.1-16-32.3c-9.2-9.2-20.4-12.5-32.3-16c-12.5-3.7-25.4-7.4-36.3-18.3s-14.7-23.8-18.3-36.3
				c-3.5-11.9-6.8-23.1-16-32.3c-9.2-9.2-20.4-12.5-32.3-16c-12.5-3.7-25.4-7.4-36.3-18.3c-10.9-10.9-14.6-23.8-18.3-36.3
				c-3.5-11.9-6.8-23.1-16-32.3c-9.2-9.2-20.4-12.5-32.3-16c-12.5-3.7-25.4-7.4-36.3-18.3c-9.1-9.1-13.3-19.7-16.5-30.2h9.8
				c2.8,8.6,6.4,16.7,13.3,23.6c9.2,9.2,20.4,12.5,32.3,16c12.5,3.7,25.4,7.4,36.3,18.3c10.9,10.9,14.7,23.8,18.3,36.3
				c3.5,11.9,6.8,23.1,16,32.3c9.2,9.2,20.4,12.5,32.3,16c12.5,3.6,25.4,7.4,36.3,18.3s14.7,23.8,18.3,36.3
				c3.5,11.9,6.8,23.1,16,32.3c9.2,9.2,20.4,12.5,32.3,16c12.5,3.6,25.4,7.4,36.3,18.3s14.7,23.8,18.3,36.3
				c3.5,11.9,6.8,23.1,16,32.3c9.2,9.2,20.4,12.5,32.3,16C1241.6,348.6,1243.8,349.3,1246.1,350z"/>
			<path style="fill:#F7931E;" d="M1160.6,350h-10.3c-2.6-5.9-4.4-12-6.1-18.1c-3.5-11.9-6.8-23.1-16-32.3
				c-9.2-9.2-20.4-12.5-32.3-16c-12.5-3.7-25.4-7.4-36.3-18.3c-10.9-10.9-14.7-23.8-18.3-36.3c-3.5-11.9-6.8-23.1-16-32.3
				c-9.2-9.2-20.4-12.5-32.3-16c-12.5-3.7-25.4-7.4-36.3-18.3c-10.9-10.9-14.6-23.8-18.3-36.3c-3.5-11.9-6.8-23.1-16-32.3
				c-9.2-9.2-20.4-12.5-32.3-16c-12.5-3.7-25.4-7.4-36.3-18.3S839.4,36,835.7,23.5c-2.4-8.3-4.8-16.3-9.1-23.5h10.6
				c3.3,6.8,5.4,13.9,7.5,20.9c3.5,11.9,6.8,23.1,16,32.3c9.2,9.2,20.4,12.5,32.3,16c12.5,3.7,25.4,7.4,36.3,18.3
				s14.7,23.8,18.3,36.3c3.5,11.9,6.8,23.1,16,32.3c9.2,9.2,20.4,12.5,32.3,16c12.5,3.7,25.4,7.4,36.3,18.3
				c10.9,10.9,14.7,23.8,18.3,36.3c3.5,11.9,6.8,23.1,16,32.3c9.2,9.2,20.4,12.5,32.3,16c12.5,3.7,25.4,7.4,36.3,18.3
				s14.7,23.8,18.3,36.3C1155.2,336.6,1157.3,343.6,1160.6,350z"/>
			<path style="fill:#F7931E;" d="M1112.4,350h-9.9c-2.7-7.6-6.2-14.6-12.3-20.8c-9.2-9.2-20.4-12.5-32.3-16
				c-12.5-3.6-25.4-7.4-36.3-18.3c-10.9-10.9-14.7-23.8-18.3-36.3c-3.5-11.9-6.8-23.1-16-32.3c-9.2-9.2-20.4-12.5-32.3-16
				c-12.5-3.7-25.4-7.4-36.3-18.3c-10.9-10.9-14.6-23.8-18.3-36.3c-3.5-11.9-6.8-23.1-16-32.3c-9.2-9.2-20.4-12.5-32.3-16
				c-12.5-3.7-25.4-7.4-36.3-18.3c-10.9-10.9-14.7-23.8-18.3-36.3c-3.5-11.9-6.8-23.1-16-32.3c-9.2-9.2-20.4-12.5-32.3-16
				c-4.9-1.4-9.9-2.9-14.9-4.8H765c8.2,3,16.2,7.1,23.3,14.2C799.2,25.1,803,38,806.7,50.5c3.5,11.9,6.8,23.1,16,32.3
				c9.2,9.2,20.4,12.5,32.3,16c12.5,3.7,25.4,7.4,36.3,18.3c10.9,10.9,14.7,23.8,18.3,36.3c3.5,11.9,6.8,23.1,16,32.3
				c9.2,9.2,20.4,12.5,32.3,16c12.5,3.7,25.4,7.4,36.3,18.3c10.9,10.9,14.7,23.8,18.3,36.3c3.5,11.9,6.8,23.1,16,32.3
				c9.2,9.2,20.4,12.5,32.3,16c12.5,3.7,25.4,7.4,36.3,18.3C1105.1,330.9,1109.3,340.4,1112.4,350z"/>
			<path style="fill:#F7931E;" d="M1056.4,350h-16.6c-6.2-3.1-13-5.1-19.9-7.2c-12.5-3.7-25.4-7.4-36.3-18.3
				c-10.9-10.9-14.7-23.8-18.3-36.3c-3.5-11.9-6.8-23.1-16-32.3c-9.2-9.2-20.4-12.5-32.3-16c-12.5-3.7-25.4-7.4-36.3-18.3
				c-10.9-10.9-14.7-23.8-18.3-36.3c-3.5-11.9-6.8-23.1-16-32.3c-9.2-9.2-20.4-12.5-32.3-16c-12.5-3.6-25.4-7.4-36.3-18.3
				s-14.7-23.8-18.3-36.3c-3.5-11.9-6.8-23.1-16-32.3c-9.2-9.2-20.4-12.5-32.3-16c-12.5-3.6-25.4-7.4-36.3-18.3
				c-5-5-8.5-10.5-11.2-16.1h10.5c2,3.3,4.3,6.5,7.3,9.5c9.2,9.2,20.4,12.5,32.3,16c12.5,3.7,25.4,7.4,36.3,18.3
				C761.2,54.7,765,67.6,768.7,80c3.5,11.9,6.8,23.1,16,32.3c9.2,9.2,20.4,12.5,32.3,16c12.5,3.7,25.4,7.4,36.3,18.3
				s14.6,23.8,18.3,36.3c3.5,11.9,6.8,23.1,16,32.3c9.2,9.2,20.4,12.5,32.3,16c12.5,3.7,25.4,7.4,36.3,18.3s14.7,23.8,18.3,36.3
				c3.5,11.9,6.8,23.1,16,32.3c9.2,9.2,20.4,12.5,32.3,16C1034.1,337.3,1046.1,340.8,1056.4,350z"/>
			<path style="fill:#F7931E;" d="M954.9,350h-13c-8.1-9.9-11.4-21.2-14.6-32.1c-3.5-11.9-6.8-23.1-16-32.3
				c-9.2-9.2-20.4-12.5-32.3-16c-12.5-3.7-25.4-7.4-36.3-18.3c-10.9-10.9-14.7-23.8-18.3-36.3c-3.5-11.9-6.8-23.1-16-32.3
				c-9.2-9.2-20.4-12.5-32.3-16c-12.5-3.7-25.4-7.4-36.3-18.3s-14.7-23.8-18.3-36.3c-3.5-11.9-6.8-23.1-16-32.3
				c-9.2-9.2-20.4-12.5-32.3-16c-12.5-3.7-25.4-7.4-36.3-18.3s-14.7-23.8-18.3-36.3C618,6.2,617.1,3.1,616,0h9.8
				c0.7,2.3,1.4,4.5,2,6.8c3.5,11.9,6.8,23.1,16,32.3c9.2,9.2,20.4,12.5,32.3,16c12.5,3.7,25.4,7.4,36.3,18.3
				c10.9,10.9,14.7,23.8,18.3,36.3c3.5,11.9,6.8,23.1,16,32.3c9.2,9.2,20.4,12.5,32.3,16c12.5,3.7,25.4,7.4,36.3,18.3
				c10.9,10.9,14.6,23.8,18.3,36.3c3.5,11.9,6.8,23.1,16,32.3c9.2,9.2,20.4,12.5,32.3,16c12.5,3.7,25.4,7.4,36.3,18.3
				s14.7,23.8,18.3,36.3c3.5,11.9,6.8,23.1,16,32.3C953.1,348.4,954,349.2,954.9,350z"/>
			<g>
				<path style="fill:#F7931E;" d="M899.8,350h-9.7c-0.3-0.9-0.5-1.7-0.8-2.6c-3.5-11.9-6.8-23.1-16-32.3
					c-9.2-9.2-20.4-12.5-32.3-16c-12.5-3.7-25.4-7.4-36.3-18.3c-10.9-10.9-14.7-23.8-18.3-36.3c-3.5-11.9-6.8-23.1-16-32.3
					c-9.2-9.2-20.4-12.5-32.3-16c-12.5-3.7-25.4-7.4-36.3-18.3s-14.7-23.8-18.3-36.3c-3.5-11.9-6.8-23.1-16-32.3
					c-9.2-9.2-20.4-12.5-32.3-16c-12.5-3.7-25.4-7.4-36.3-18.3c-10.9-10.9-14.7-23.8-18.3-36.3c-3.5-11.9-6.8-23.1-16-32.3
					c-2.7-2.7-5.7-4.9-8.6-6.7h15.1c0,0,0.1,0.1,0.1,0.1c10.9,10.9,14.7,23.8,18.3,36.3c3.5,11.9,6.8,23.1,16,32.3
					c9.2,9.2,20.4,12.5,32.3,16c12.5,3.6,25.4,7.4,36.3,18.3c10.9,10.9,14.7,23.8,18.3,36.3c3.5,11.9,6.8,23.1,16,32.3
					c9.2,9.2,20.4,12.5,32.3,16c12.5,3.6,25.4,7.4,36.3,18.3c10.9,10.9,14.6,23.8,18.3,36.3c3.5,11.9,6.8,23.1,16,32.3
					c9.2,9.2,20.4,12.5,32.3,16c12.5,3.7,25.4,7.4,36.3,18.3s14.6,23.8,18.3,36.3C898.8,346.6,899.3,348.3,899.8,350z"/>
			</g>
		</g>
	</g>
	<g style="opacity:0.15;">
		<g>
			<g>
				<path style="fill:#F7931E;" d="M1791.4,350h-10.9c-1.5-2.3-3.3-4.5-5.5-6.7c-9.2-9.2-20.4-12.5-32.3-16
					c-12.5-3.6-25.4-7.4-36.3-18.3s-14.7-23.8-18.3-36.3c-3.5-11.9-6.8-23.1-16-32.3c-9.2-9.2-20.4-12.5-32.3-16
					c-12.5-3.7-25.4-7.4-36.3-18.3s-14.7-23.8-18.3-36.3c-3.5-11.9-6.8-23.1-16-32.3c-9.2-9.2-20.4-12.5-32.3-16
					c-12.5-3.7-25.4-7.4-36.3-18.3c-10.9-10.9-14.7-23.8-18.3-36.3c-3.5-11.9-6.8-23.1-16-32.3c-9.2-9.2-20.4-12.5-32.3-16
					c-12.5-3.6-25.4-7.4-36.3-18.3c-0.2-0.2-0.4-0.4-0.6-0.6h14.6c7.6,4.9,16,7.4,24.9,10c12.5,3.7,25.4,7.4,36.3,18.3
					s14.7,23.8,18.3,36.3c3.5,11.9,6.8,23.1,16,32.3c9.2,9.2,20.4,12.5,32.3,16c12.5,3.7,25.4,7.4,36.3,18.3s14.7,23.8,18.3,36.3
					c3.5,11.9,6.8,23.1,16,32.3c9.2,9.2,20.4,12.5,32.3,16c12.5,3.7,25.4,7.4,36.3,18.3c10.9,10.9,14.7,23.8,18.3,36.3
					c3.5,11.9,6.8,23.1,16,32.3c9.2,9.2,20.4,12.5,32.3,16c12.5,3.7,25.4,7.4,36.3,18.3C1785.9,341,1789,345.6,1791.4,350z"/>
			</g>
			<path style="fill:#F7931E;" d="M1714.1,350H1685c-5.8-2.7-11.4-6.3-16.5-11.4c-10.9-10.9-14.7-23.8-18.3-36.3
				c-3.5-11.9-6.8-23.1-16-32.3c-9.2-9.2-20.4-12.5-32.3-16c-12.5-3.7-25.4-7.4-36.3-18.3s-14.7-23.8-18.3-36.3
				c-3.5-11.9-6.8-23.1-16-32.3c-9.2-9.2-20.4-12.5-32.3-16c-12.5-3.7-25.4-7.4-36.3-18.3c-10.9-10.9-14.6-23.8-18.3-36.3
				c-3.5-11.9-6.8-23.1-16-32.3c-9.2-9.2-20.4-12.5-32.3-16c-12.5-3.7-25.4-7.4-36.3-18.3c-9.1-9.1-13.3-19.7-16.5-30.2h9.8
				c2.8,8.6,6.4,16.7,13.3,23.6c9.2,9.2,20.4,12.5,32.3,16c12.5,3.7,25.4,7.4,36.3,18.3c10.9,10.9,14.7,23.8,18.3,36.3
				c3.5,11.9,6.8,23.1,16,32.3c9.2,9.2,20.4,12.5,32.3,16c12.5,3.6,25.4,7.4,36.3,18.3s14.7,23.8,18.3,36.3
				c3.5,11.9,6.8,23.1,16,32.3c9.2,9.2,20.4,12.5,32.3,16c12.5,3.6,25.4,7.4,36.3,18.3s14.7,23.8,18.3,36.3
				c3.5,11.9,6.8,23.1,16,32.3c9.2,9.2,20.4,12.5,32.3,16C1709.6,348.6,1711.8,349.3,1714.1,350z"/>
			<path style="fill:#F7931E;" d="M1628.6,350h-10.3c-2.6-5.9-4.4-12-6.1-18.1c-3.5-11.9-6.8-23.1-16-32.3
				c-9.2-9.2-20.4-12.5-32.3-16c-12.5-3.7-25.4-7.4-36.3-18.3c-10.9-10.9-14.7-23.8-18.3-36.3c-3.5-11.9-6.8-23.1-16-32.3
				c-9.2-9.2-20.4-12.5-32.3-16c-12.5-3.7-25.4-7.4-36.3-18.3c-10.9-10.9-14.6-23.8-18.3-36.3c-3.5-11.9-6.8-23.1-16-32.3
				c-9.2-9.2-20.4-12.5-32.3-16c-12.5-3.7-25.4-7.4-36.3-18.3s-14.7-23.8-18.3-36.3c-2.4-8.3-4.8-16.3-9.1-23.5h10.6
				c3.3,6.8,5.4,13.9,7.5,20.9c3.5,11.9,6.8,23.1,16,32.3c9.2,9.2,20.4,12.5,32.3,16c12.5,3.7,25.4,7.4,36.3,18.3
				s14.7,23.8,18.3,36.3c3.5,11.9,6.8,23.1,16,32.3c9.2,9.2,20.4,12.5,32.3,16c12.5,3.7,25.4,7.4,36.3,18.3
				c10.9,10.9,14.7,23.8,18.3,36.3c3.5,11.9,6.8,23.1,16,32.3c9.2,9.2,20.4,12.5,32.3,16c12.5,3.7,25.4,7.4,36.3,18.3
				s14.7,23.8,18.3,36.3C1623.2,336.6,1625.3,343.6,1628.6,350z"/>
			<path style="fill:#F7931E;" d="M1580.4,350h-9.9c-2.7-7.6-6.2-14.6-12.3-20.8c-9.2-9.2-20.4-12.5-32.3-16
				c-12.5-3.6-25.4-7.4-36.3-18.3c-10.9-10.9-14.7-23.8-18.3-36.3c-3.5-11.9-6.8-23.1-16-32.3c-9.2-9.2-20.4-12.5-32.3-16
				c-12.5-3.7-25.4-7.4-36.3-18.3c-10.9-10.9-14.6-23.8-18.3-36.3c-3.5-11.9-6.8-23.1-16-32.3c-9.2-9.2-20.4-12.5-32.3-16
				c-12.5-3.7-25.4-7.4-36.3-18.3c-10.9-10.9-14.7-23.8-18.3-36.3c-3.5-11.9-6.8-23.1-16-32.3c-9.2-9.2-20.4-12.5-32.3-16
				c-4.9-1.4-9.9-2.9-14.9-4.8h30.4c8.2,3,16.2,7.1,23.3,14.2c10.9,10.9,14.6,23.8,18.3,36.3c3.5,11.9,6.8,23.1,16,32.3
				c9.2,9.2,20.4,12.5,32.3,16c12.5,3.7,25.4,7.4,36.3,18.3c10.9,10.9,14.7,23.8,18.3,36.3c3.5,11.9,6.8,23.1,16,32.3
				c9.2,9.2,20.4,12.5,32.3,16c12.5,3.7,25.4,7.4,36.3,18.3c10.9,10.9,14.7,23.8,18.3,36.3c3.5,11.9,6.8,23.1,16,32.3
				c9.2,9.2,20.4,12.5,32.3,16c12.5,3.7,25.4,7.4,36.3,18.3C1573.1,330.9,1577.3,340.4,1580.4,350z"/>
			<path style="fill:#F7931E;" d="M1524.4,350h-16.6c-6.2-3.1-13-5.1-19.9-7.2c-12.5-3.7-25.4-7.4-36.3-18.3
				c-10.9-10.9-14.7-23.8-18.3-36.3c-3.5-11.9-6.8-23.1-16-32.3c-9.2-9.2-20.4-12.5-32.3-16c-12.5-3.7-25.4-7.4-36.3-18.3
				c-10.9-10.9-14.7-23.8-18.3-36.3c-3.5-11.9-6.8-23.1-16-32.3c-9.2-9.2-20.4-12.5-32.3-16c-12.5-3.6-25.4-7.4-36.3-18.3
				s-14.7-23.8-18.3-36.3c-3.5-11.9-6.8-23.1-16-32.3c-9.2-9.2-20.4-12.5-32.3-16c-12.5-3.6-25.4-7.4-36.3-18.3
				c-5-5-8.5-10.5-11.2-16.1h10.5c2,3.3,4.3,6.5,7.3,9.5c9.2,9.2,20.4,12.5,32.3,16c12.5,3.7,25.4,7.4,36.3,18.3
				c10.9,10.9,14.7,23.8,18.3,36.3c3.5,11.9,6.8,23.1,16,32.3c9.2,9.2,20.4,12.5,32.3,16c12.5,3.7,25.4,7.4,36.3,18.3
				s14.6,23.8,18.3,36.3c3.5,11.9,6.8,23.1,16,32.3c9.2,9.2,20.4,12.5,32.3,16c12.5,3.7,25.4,7.4,36.3,18.3s14.7,23.8,18.3,36.3
				c3.5,11.9,6.8,23.1,16,32.3c9.2,9.2,20.4,12.5,32.3,16C1502.1,337.3,1514.1,340.8,1524.4,350z"/>
			<path style="fill:#F7931E;" d="M1422.9,350h-13c-8.1-9.9-11.4-21.2-14.6-32.1c-3.5-11.9-6.8-23.1-16-32.3
				c-9.2-9.2-20.4-12.5-32.3-16c-12.5-3.7-25.4-7.4-36.3-18.3c-10.9-10.9-14.7-23.8-18.3-36.3c-3.5-11.9-6.8-23.1-16-32.3
				c-9.2-9.2-20.4-12.5-32.3-16c-12.5-3.7-25.4-7.4-36.3-18.3s-14.7-23.8-18.3-36.3c-3.5-11.9-6.8-23.1-16-32.3
				c-9.2-9.2-20.4-12.5-32.3-16c-12.5-3.7-25.4-7.4-36.3-18.3s-14.7-23.8-18.3-36.3c-0.9-3.2-1.9-6.3-2.9-9.4h9.8
				c0.7,2.3,1.4,4.5,2,6.8c3.5,11.9,6.8,23.1,16,32.3c9.2,9.2,20.4,12.5,32.3,16c12.5,3.7,25.4,7.4,36.3,18.3
				c10.9,10.9,14.7,23.8,18.3,36.3c3.5,11.9,6.8,23.1,16,32.3c9.2,9.2,20.4,12.5,32.3,16c12.5,3.7,25.4,7.4,36.3,18.3
				c10.9,10.9,14.6,23.8,18.3,36.3c3.5,11.9,6.8,23.1,16,32.3c9.2,9.2,20.4,12.5,32.3,16c12.5,3.7,25.4,7.4,36.3,18.3
				s14.7,23.8,18.3,36.3c3.5,11.9,6.8,23.1,16,32.3C1421.1,348.4,1422,349.2,1422.9,350z"/>
			<g>
				<path style="fill:#F7931E;" d="M1367.8,350h-9.7c-0.3-0.9-0.5-1.7-0.8-2.6c-3.5-11.9-6.8-23.1-16-32.3
					c-9.2-9.2-20.4-12.5-32.3-16c-12.5-3.7-25.4-7.4-36.3-18.3c-10.9-10.9-14.7-23.8-18.3-36.3c-3.5-11.9-6.8-23.1-16-32.3
					c-9.2-9.2-20.4-12.5-32.3-16c-12.5-3.7-25.4-7.4-36.3-18.3s-14.7-23.8-18.3-36.3c-3.5-11.9-6.8-23.1-16-32.3
					c-9.2-9.2-20.4-12.5-32.3-16c-12.5-3.7-25.4-7.4-36.3-18.3c-10.9-10.9-14.7-23.8-18.3-36.3c-3.5-11.9-6.8-23.1-16-32.3
					c-2.7-2.7-5.7-4.9-8.6-6.7h15.1c0,0,0.1,0.1,0.1,0.1c10.9,10.9,14.7,23.8,18.3,36.3c3.5,11.9,6.8,23.1,16,32.3
					c9.2,9.2,20.4,12.5,32.3,16c12.5,3.6,25.4,7.4,36.3,18.3c10.9,10.9,14.7,23.8,18.3,36.3c3.5,11.9,6.8,23.1,16,32.3
					c9.2,9.2,20.4,12.5,32.3,16c12.5,3.6,25.4,7.4,36.3,18.3c10.9,10.9,14.6,23.8,18.3,36.3c3.5,11.9,6.8,23.1,16,32.3
					c9.2,9.2,20.4,12.5,32.3,16c12.5,3.7,25.4,7.4,36.3,18.3s14.6,23.8,18.3,36.3C1366.8,346.6,1367.3,348.3,1367.8,350z"/>
			</g>
		</g>
	</g>
	<g style="opacity:0.15;">
		<g>
			<g>
				<path style="fill:#F7931E;" d="M1920,14.9V25c-5.6-2.5-11.6-4.3-17.7-6.1c-12.5-3.6-25.4-7.4-36.3-18.3
					c-0.2-0.2-0.4-0.4-0.6-0.6h14.6c7.6,4.9,16,7.4,24.9,10C1909.9,11.4,1915,12.9,1920,14.9z"/>
			</g>
			<path style="fill:#F7931E;" d="M1920,89.1v28.5c-3.3-6.8-5.4-13.9-7.5-20.9c-3.5-11.9-6.8-23.1-16-32.3
				c-9.2-9.2-20.4-12.5-32.3-16c-12.5-3.7-25.4-7.4-36.3-18.3c-9.1-9.1-13.3-19.7-16.5-30.2h9.8c2.8,8.6,6.4,16.7,13.3,23.6
				c9.2,9.2,20.4,12.5,32.3,16c12.5,3.7,25.4,7.4,36.3,18.3C1912.6,67.3,1916.7,78.3,1920,89.1z"/>
			<path style="fill:#F7931E;" d="M1920,168.3v9.9c-9.5-3.1-18.9-7.3-27.1-15.5c-10.9-10.9-14.6-23.8-18.3-36.3
				c-3.5-11.9-6.8-23.1-16-32.3c-9.2-9.2-20.4-12.5-32.3-16c-12.5-3.7-25.4-7.4-36.3-18.3s-14.7-23.8-18.3-36.3
				c-2.4-8.3-4.8-16.3-9.1-23.5h10.6c3.3,6.8,5.4,13.9,7.5,20.9c3.5,11.9,6.8,23.1,16,32.3c9.2,9.2,20.4,12.5,32.3,16
				c12.5,3.7,25.4,7.4,36.3,18.3s14.7,23.8,18.3,36.3c3.5,11.9,6.8,23.1,16,32.3C1905.5,162.1,1912.5,165.6,1920,168.3z"/>
			<path style="fill:#F7931E;" d="M1920,212v11.4c-8.5-6.9-18.5-9.8-28.9-12.9c-12.5-3.7-25.4-7.4-36.3-18.3
				c-10.9-10.9-14.6-23.8-18.3-36.3c-3.5-11.9-6.8-23.1-16-32.3c-9.2-9.2-20.4-12.5-32.3-16c-12.5-3.7-25.4-7.4-36.3-18.3
				c-10.9-10.9-14.7-23.8-18.3-36.3c-3.5-11.9-6.8-23.1-16-32.3c-9.2-9.2-20.4-12.5-32.3-16c-4.9-1.4-9.9-2.9-14.9-4.8h30.4
				c8.2,3,16.2,7.1,23.3,14.2c10.9,10.9,14.6,23.8,18.3,36.3c3.5,11.9,6.8,23.1,16,32.3c9.2,9.2,20.4,12.5,32.3,16
				c12.5,3.7,25.4,7.4,36.3,18.3c10.9,10.9,14.7,23.8,18.3,36.3c3.5,11.9,6.8,23.1,16,32.3c9.2,9.2,20.4,12.5,32.3,16
				C1902.6,204.1,1911.6,206.8,1920,212z"/>
			<path style="fill:#F7931E;" d="M1920,310.1v14.8c-0.1-0.1-0.2-0.2-0.3-0.3c-10.9-10.9-14.7-23.8-18.3-36.3
				c-3.5-11.9-6.8-23.1-16-32.3c-9.2-9.2-20.4-12.5-32.3-16c-12.5-3.7-25.4-7.4-36.3-18.3c-10.9-10.9-14.7-23.8-18.3-36.3
				c-3.5-11.9-6.8-23.1-16-32.3c-9.2-9.2-20.4-12.5-32.3-16c-12.5-3.6-25.4-7.4-36.3-18.3s-14.7-23.8-18.3-36.3
				c-3.5-11.9-6.8-23.1-16-32.3c-9.2-9.2-20.4-12.5-32.3-16c-12.5-3.6-25.4-7.4-36.3-18.3c-5-5-8.5-10.5-11.2-16.1h10.5
				c2,3.3,4.3,6.5,7.3,9.5c9.2,9.2,20.4,12.5,32.3,16c12.5,3.7,25.4,7.4,36.3,18.3c10.9,10.9,14.7,23.8,18.3,36.3
				c3.5,11.9,6.8,23.1,16,32.3c9.2,9.2,20.4,12.5,32.3,16c12.5,3.7,25.4,7.4,36.3,18.3s14.6,23.8,18.3,36.3
				c3.5,11.9,6.8,23.1,16,32.3c9.2,9.2,20.4,12.5,32.3,16c12.5,3.7,25.4,7.4,36.3,18.3s14.7,23.8,18.3,36.3
				C1912.8,294.3,1915.3,302.7,1920,310.1z"/>
			<path style="fill:#F7931E;" d="M1561.8,0c0.7,2.3,1.4,4.6,2,6.8c3.5,11.9,6.8,23.1,16,32.3c9.2,9.2,20.4,12.5,32.3,16
				c12.5,3.7,25.4,7.4,36.3,18.3s14.7,23.8,18.3,36.3c3.5,11.9,6.8,23.1,15.9,32.3c9.2,9.2,20.4,12.5,32.3,16
				c12.5,3.7,25.4,7.4,36.3,18.3c10.9,10.9,14.6,23.8,18.3,36.3c3.5,11.9,6.8,23.1,16,32.3c9.2,9.2,20.4,12.5,32.3,16
				c12.5,3.7,25.4,7.4,36.3,18.3s14.7,23.8,18.3,36.3c3.5,11.9,6.8,23.1,16,32.3c0.9,0.9,1.8,1.7,2.7,2.5h-13
				c-8.1-9.9-11.4-21.2-14.6-32.1c-3.5-11.9-6.8-23.1-16-32.3c-9.2-9.2-20.4-12.5-32.3-16c-12.5-3.6-25.4-7.4-36.3-18.3
				c-10.9-10.9-14.7-23.8-18.3-36.3c-3.5-11.9-6.8-23.1-16-32.3c-9.2-9.2-20.4-12.5-32.3-16c-12.5-3.7-25.4-7.4-36.3-18.3
				c-10.9-10.9-14.7-23.8-18.3-36.3c-3.5-11.9-6.8-23.1-16-32.3c-9.2-9.2-20.4-12.5-32.3-16c-12.5-3.7-25.4-7.4-36.3-18.3
				s-14.7-23.8-18.3-36.3c-0.9-3.2-1.9-6.4-2.9-9.4H1561.8z"/>
			<g>
				<path style="fill:#F7931E;" d="M1835.8,350h-9.7c-0.3-0.9-0.5-1.7-0.8-2.6c-3.5-11.9-6.8-23.1-16-32.3
					c-9.2-9.2-20.4-12.5-32.3-16c-12.5-3.7-25.4-7.4-36.3-18.3c-10.9-10.9-14.7-23.8-18.3-36.3c-3.5-11.9-6.8-23.1-16-32.3
					c-9.2-9.2-20.4-12.5-32.3-16c-12.5-3.7-25.4-7.4-36.3-18.3s-14.7-23.8-18.3-36.3c-3.5-11.9-6.8-23.1-16-32.3
					c-9.2-9.2-20.4-12.5-32.3-16c-12.5-3.7-25.4-7.4-36.3-18.3c-10.9-10.9-14.7-23.8-18.3-36.3c-3.5-11.9-6.8-23.1-16-32.3
					c-2.7-2.7-5.7-4.9-8.6-6.7h15.1c0,0,0.1,0.1,0.1,0.1c10.9,10.9,14.7,23.8,18.3,36.3c3.5,11.9,6.8,23.1,16,32.3
					c9.2,9.2,20.4,12.5,32.3,16c12.5,3.6,25.4,7.4,36.3,18.3c10.9,10.9,14.7,23.8,18.3,36.3c3.5,11.9,6.8,23.1,16,32.3
					c9.2,9.2,20.4,12.5,32.3,16c12.5,3.6,25.4,7.4,36.3,18.3c10.9,10.9,14.6,23.8,18.3,36.3c3.5,11.9,6.8,23.1,16,32.3
					c9.2,9.2,20.4,12.5,32.3,16c12.5,3.7,25.4,7.4,36.3,18.3s14.6,23.8,18.3,36.3C1834.8,346.6,1835.3,348.3,1835.8,350z"/>
			</g>
		</g>
	</g>
</g>
</svg>
